<?xml version="1.0" encoding="UTF-8"?>
<svg id="Layer_2" data-name="Layer 2" xmlns="http://www.w3.org/2000/svg" viewBox="0 0 402.74 108.14">
  <g id="Capa_1" data-name="Capa 1">
    <g>
      <g>
        <rect y=".26" width="3.53" height="17.68"/>
        <polygon points="15.55 11.44 9.95 .26 6.56 .26 6.56 17.94 9.93 17.94 9.93 6.87 15.48 17.94 18.92 17.94 18.92 .26 15.55 .26 15.55 11.44"/>
        <polygon points="24.95 .26 20.63 .26 20.63 3.21 24.95 3.21 24.95 17.94 28.48 17.94 28.48 3.21 32.88 3.21 32.88 .26 28.48 .26 24.95 .26"/>
        <polygon points="38.49 10.27 44.04 10.27 44.04 7.42 38.49 7.42 38.49 3.21 45.04 3.21 45.04 .26 38.49 .26 37.38 .26 34.93 .26 34.93 17.94 37.38 17.94 38.49 17.94 45.07 17.94 45.07 15 38.49 15 38.49 10.27"/>
        <path d="M56.93,9.73c.48-.45.85-1.01,1.11-1.69.26-.68.39-1.49.39-2.45,0-1.17-.22-2.15-.67-2.94-.45-.79-1.08-1.39-1.92-1.8-.83-.4-1.84-.61-3.02-.61h-5.67v17.68h3.56v-6.49h1.8l2.67,6.49h3.8v-.17l-3.12-7.26c.4-.22.76-.47,1.08-.77ZM50.7,3.21h2.11c.49,0,.88.11,1.18.32.3.21.53.52.67.92.14.4.21.88.21,1.44,0,.53-.08.99-.24,1.38-.16.39-.4.7-.72.91-.32.21-.72.32-1.21.32h-2.02V3.21Z"/>
        <polygon points="69.88 11.44 64.28 .26 60.89 .26 60.89 17.94 64.27 17.94 64.27 6.87 69.82 17.94 73.26 17.94 73.26 .26 69.88 .26 69.88 11.44"/>
        <path d="M83.06.26h-2.34l-5.53,17.68h3.75l.95-3.64h4.89l.96,3.64h3.78L83.94.26h-.89ZM80.67,11.34l1.66-6.36,1.67,6.36h-3.34Z"/>
        <polygon points="93.25 .26 88.94 .26 88.94 3.21 93.25 3.21 93.25 17.94 96.78 17.94 96.78 3.21 101.18 3.21 101.18 .26 96.78 .26 93.25 .26"/>
        <rect x="103.39" y=".26" width="3.53" height="17.68"/>
        <path d="M120.61,1.96c-.57-.64-1.24-1.13-2.02-1.46-.78-.33-1.64-.49-2.59-.49s-1.81.16-2.59.49c-.78.33-1.45.81-2.02,1.46-.57.64-1,1.45-1.3,2.4-.3.96-.45,2.08-.45,3.36v2.95c0,1.25.15,2.34.46,3.27.31.94.74,1.72,1.31,2.34.56.63,1.23,1.1,2.02,1.41.78.32,1.65.47,2.59.47s1.81-.16,2.59-.47c.78-.32,1.45-.79,2-1.41.55-.63.98-1.41,1.29-2.34.3-.94.46-2.03.46-3.27v-2.95c0-1.28-.15-2.4-.46-3.36-.3-.96-.74-1.76-1.31-2.4ZM118.84,10.67c0,.81-.06,1.5-.18,2.08-.12.57-.3,1.04-.53,1.41-.24.36-.53.63-.88.81-.35.17-.76.26-1.21.26s-.87-.09-1.22-.26c-.35-.17-.65-.44-.89-.81-.24-.36-.43-.83-.55-1.41-.12-.57-.18-1.27-.18-2.08v-2.98c0-.84.06-1.56.18-2.16.12-.6.3-1.08.53-1.46.24-.38.53-.66.89-.84.35-.18.76-.27,1.22-.27s.87.09,1.21.27c.35.18.64.46.89.84.24.38.43.87.55,1.46.12.59.18,1.31.18,2.16v2.98Z"/>
        <polygon points="133.94 11.44 128.35 .26 124.96 .26 124.96 17.94 128.33 17.94 128.33 6.87 133.88 17.94 137.32 17.94 137.32 .26 133.94 .26 133.94 11.44"/>
        <path d="M147.12.26h-2.34l-5.53,17.68h3.75l.95-3.64h4.89l.96,3.64h3.78L148.01.26h-.89ZM144.73,11.34l1.66-6.36,1.67,6.36h-3.34Z"/>
        <polygon points="158.82 .26 155.26 .26 155.26 17.94 157.72 17.94 158.82 17.94 165.07 17.94 165.07 15 158.82 15 158.82 .26"/>
        <path d="M183.55,1.96c-.57-.64-1.24-1.13-2.02-1.46-.78-.33-1.64-.49-2.59-.49s-1.81.16-2.59.49c-.78.33-1.45.81-2.02,1.46-.57.64-1,1.45-1.3,2.4-.3.96-.45,2.08-.45,3.36v2.95c0,1.25.15,2.34.46,3.27.31.94.74,1.72,1.31,2.34.56.63,1.23,1.1,2.02,1.41.78.32,1.65.47,2.59.47s1.81-.16,2.59-.47c.78-.32,1.45-.79,2-1.41.55-.63.98-1.41,1.29-2.34s.46-2.03.46-3.27v-2.95c0-1.28-.15-2.4-.46-3.36-.3-.96-.74-1.76-1.31-2.4ZM181.78,10.67c0,.81-.06,1.5-.18,2.08-.12.57-.3,1.04-.53,1.41-.23.36-.53.63-.88.81-.35.17-.76.26-1.21.26s-.87-.09-1.22-.26c-.35-.17-.65-.44-.89-.81-.24-.36-.43-.83-.55-1.41-.12-.57-.18-1.27-.18-2.08v-2.98c0-.84.06-1.56.18-2.16.12-.6.3-1.08.53-1.46.24-.38.53-.66.89-.84.35-.18.76-.27,1.22-.27s.87.09,1.21.27c.35.18.64.46.89.84.24.38.43.87.55,1.46.12.59.18,1.31.18,2.16v2.98Z"/>
        <path d="M196.99,1.01c-.85-.5-1.88-.75-3.07-.75h-6.02v17.68h3.56v-6.23h2.47c1.19,0,2.21-.23,3.07-.69.85-.46,1.51-1.11,1.97-1.95.46-.84.69-1.83.69-2.97s-.23-2.14-.69-3.02c-.46-.88-1.12-1.57-1.97-2.07ZM195.86,7.47c-.15.4-.38.71-.69.94-.32.23-.73.34-1.24.34h-2.47V3.21h2.47c.51,0,.92.14,1.24.41.32.27.55.63.69,1.07.15.45.22.92.22,1.43s-.07.95-.22,1.35Z"/>
        <polygon points="205.6 10.27 211.15 10.27 211.15 7.42 205.6 7.42 205.6 3.21 212.16 3.21 212.16 .26 205.6 .26 204.49 .26 202.04 .26 202.04 17.94 204.49 17.94 205.6 17.94 212.18 17.94 212.18 15 205.6 15 205.6 10.27"/>
        <polygon points="223.23 11.44 217.63 .26 214.24 .26 214.24 17.94 217.62 17.94 217.62 6.87 223.17 17.94 226.61 17.94 226.61 .26 223.23 .26 223.23 11.44"/>
        <path d="M238.58,5.42c.1-.59.26-1.07.48-1.43.22-.36.5-.63.84-.8.34-.17.74-.25,1.21-.25.63,0,1.13.1,1.48.3.36.2.62.54.78,1.02.17.48.26,1.14.29,1.99h3.55c-.1-1.34-.38-2.47-.86-3.4s-1.14-1.64-2.01-2.12c-.87-.48-1.94-.72-3.23-.72-.96,0-1.83.16-2.59.49-.77.33-1.42.81-1.96,1.46-.54.64-.95,1.44-1.24,2.39-.29.95-.43,2.04-.43,3.27v3c0,1.23.14,2.32.41,3.26.27.94.67,1.73,1.21,2.37.53.64,1.18,1.12,1.94,1.45.76.33,1.63.49,2.61.49,1.26,0,2.34-.23,3.24-.7.89-.47,1.58-1.16,2.07-2.07.49-.91.75-2.03.8-3.36h-3.53c-.02.85-.13,1.51-.3,1.97-.18.46-.45.78-.82.96-.37.18-.85.27-1.45.27-.52,0-.95-.08-1.28-.26-.34-.17-.6-.44-.8-.81-.19-.37-.34-.85-.43-1.44-.09-.59-.13-1.3-.13-2.13v-3.02c0-.85.05-1.57.15-2.16Z"/>
        <polygon points="258.23 7.42 252.94 7.42 252.94 .26 249.38 .26 249.38 17.94 252.94 17.94 252.94 10.36 258.23 10.36 258.23 17.94 261.75 17.94 261.75 .26 258.23 .26 258.23 7.42"/>
        <path d="M271.58.26h-2.34l-5.53,17.68h3.75l.95-3.64h4.89l.96,3.64h3.78l-5.57-17.68h-.89ZM269.19,11.34l1.66-6.36,1.67,6.36h-3.34Z"/>
        <polygon points="292.7 .26 291.3 .26 287.71 12.35 284.1 .26 282.69 .26 280.98 .26 279.72 .26 279.72 17.94 283.15 17.94 283.15 11.91 282.95 6.71 286.37 17.94 289.03 17.94 292.49 5.77 292.26 11.91 292.26 17.94 295.69 17.94 295.69 .26 294.06 .26 292.7 .26"/>
        <path d="M307.67,1.01c-.85-.5-1.88-.75-3.07-.75h-6.02v17.68h3.56v-6.23h2.47c1.19,0,2.21-.23,3.07-.69.85-.46,1.51-1.11,1.97-1.95.46-.84.69-1.83.69-2.97s-.23-2.14-.69-3.02c-.46-.88-1.12-1.57-1.97-2.07ZM306.53,7.47c-.15.4-.38.71-.69.94-.32.23-.73.34-1.24.34h-2.47V3.21h2.47c.51,0,.92.14,1.24.41.32.27.55.63.69,1.07.15.45.22.92.22,1.43s-.07.95-.22,1.35Z"/>
        <rect x="312.87" y=".26" width="3.53" height="17.68"/>
        <path d="M330.09,1.96c-.57-.64-1.24-1.13-2.02-1.46-.78-.33-1.64-.49-2.59-.49s-1.81.16-2.59.49c-.78.33-1.45.81-2.02,1.46-.57.64-1,1.45-1.3,2.4-.3.96-.45,2.08-.45,3.36v2.95c0,1.25.15,2.34.46,3.27.31.94.74,1.72,1.31,2.34.56.63,1.23,1.1,2.02,1.41.78.32,1.65.47,2.59.47s1.81-.16,2.59-.47c.78-.32,1.45-.79,2-1.41.55-.63.98-1.41,1.29-2.34.3-.94.46-2.03.46-3.27v-2.95c0-1.28-.15-2.4-.46-3.36-.3-.96-.74-1.76-1.31-2.4ZM328.32,10.67c0,.81-.06,1.5-.18,2.08-.12.57-.3,1.04-.53,1.41-.23.36-.53.63-.88.81-.35.17-.76.26-1.21.26s-.87-.09-1.22-.26c-.35-.17-.65-.44-.89-.81-.24-.36-.43-.83-.55-1.41-.12-.57-.18-1.27-.18-2.08v-2.98c0-.84.06-1.56.18-2.16.12-.6.3-1.08.53-1.46.24-.38.53-.66.89-.84.35-.18.76-.27,1.22-.27s.87.09,1.21.27c.35.18.64.46.89.84s.43.87.55,1.46c.12.59.18,1.31.18,2.16v2.98Z"/>
        <polygon points="343.43 11.44 337.83 .26 334.44 .26 334.44 17.94 337.82 17.94 337.82 6.87 343.37 17.94 346.8 17.94 346.8 .26 343.43 .26 343.43 11.44"/>
        <path d="M359.45,9.7c-.41-.47-.93-.89-1.54-1.26-.62-.38-1.32-.72-2.13-1.04-.41-.16-.79-.33-1.14-.5-.34-.17-.64-.35-.89-.53-.25-.18-.45-.39-.59-.62-.14-.23-.21-.49-.21-.78,0-.39.07-.74.21-1.05.14-.31.36-.56.66-.74.3-.18.67-.27,1.12-.27.49,0,.88.11,1.19.33.31.22.53.52.67.9.14.38.21.83.21,1.33h3.55c0-1.06-.23-2-.69-2.82-.46-.82-1.1-1.46-1.93-1.93-.83-.47-1.81-.7-2.95-.7-.83,0-1.59.12-2.26.35-.68.23-1.27.57-1.77,1-.5.43-.89.95-1.16,1.56-.27.61-.41,1.28-.41,2.03s.14,1.42.43,1.99c.29.56.68,1.05,1.17,1.46.49.41,1.05.78,1.66,1.09.62.31,1.25.61,1.91.88.55.24,1,.46,1.34.68.34.22.61.44.79.66.18.22.3.46.36.72.06.26.09.55.09.86,0,.38-.06.72-.18,1.02-.12.3-.32.54-.6.72-.28.18-.65.27-1.12.27-.41,0-.78-.05-1.1-.16-.32-.11-.59-.27-.81-.5-.22-.22-.38-.52-.49-.9-.11-.38-.16-.83-.16-1.37h-3.56c0,1,.16,1.87.47,2.6.32.73.75,1.34,1.31,1.81.55.47,1.2.83,1.92,1.06.73.23,1.5.35,2.32.35s1.6-.12,2.29-.35c.68-.23,1.27-.57,1.75-1,.49-.43.86-.95,1.11-1.55.26-.6.38-1.27.38-2.01s-.11-1.41-.32-1.99c-.21-.58-.52-1.11-.94-1.57Z"/>
        <polygon points="371.94 7.42 366.65 7.42 366.65 .26 363.09 .26 363.09 17.94 366.65 17.94 366.65 10.36 371.94 10.36 371.94 17.94 375.47 17.94 375.47 .26 371.94 .26 371.94 7.42"/>
        <rect x="378.51" y=".26" width="3.53" height="17.68"/>
        <path d="M396.14,3.08c-.46-.88-1.12-1.57-1.97-2.07-.85-.5-1.88-.75-3.07-.75h-6.02v17.68h3.56v-6.23h2.47c1.19,0,2.21-.23,3.07-.69.85-.46,1.51-1.11,1.97-1.95.46-.84.69-1.83.69-2.97s-.23-2.14-.69-3.02ZM393.03,7.47c-.15.4-.38.71-.69.94-.32.23-.73.34-1.24.34h-2.47V3.21h2.47c.51,0,.92.14,1.24.41.32.27.55.63.69,1.07.15.45.22.92.22,1.43s-.07.95-.22,1.35Z"/>
      </g>
      <g>
        <g>
          <path d="M296.13,75.9h-32.47v-7.03l14.96-15.72c3.69-4.2,5.53-7.53,5.53-10,0-2-.44-3.53-1.31-4.57-.87-1.04-2.14-1.57-3.8-1.57s-2.97.7-3.99,2.09c-1.02,1.4-1.53,3.14-1.53,5.22h-10.8c0-2.85.71-5.49,2.14-7.91,1.43-2.42,3.41-4.31,5.94-5.67,2.54-1.36,5.37-2.05,8.5-2.05,5.03,0,8.9,1.16,11.62,3.48,2.72,2.32,4.07,5.66,4.07,10,0,1.83-.34,3.62-1.02,5.35-.68,1.74-1.74,3.56-3.18,5.46-1.44,1.91-3.75,4.46-6.95,7.65l-6.01,6.93h18.31v8.31Z"/>
          <path d="M331.25,56.88c0,6.28-1.41,11.13-4.23,14.54-2.82,3.41-6.8,5.11-11.94,5.11s-9.18-1.71-12.02-5.14c-2.83-3.43-4.25-8.27-4.25-14.51v-8.5c0-6.28,1.41-11.13,4.23-14.54,2.82-3.41,6.81-5.11,11.97-5.11s9.15,1.72,11.98,5.15c2.83,3.43,4.25,8.28,4.25,14.54v8.47ZM320.48,47.01c0-3.34-.44-5.84-1.31-7.49-.87-1.65-2.26-2.48-4.15-2.48s-3.2.77-4.04,2.3c-.84,1.53-1.29,3.86-1.36,6.97v11.89c0,3.47.44,6.01,1.31,7.62.87,1.61,2.26,2.41,4.15,2.41s3.18-.78,4.06-2.35c.87-1.57,1.32-4.02,1.34-7.37v-11.5Z"/>
          <path d="M366.69,75.9h-32.47v-7.03l14.96-15.72c3.69-4.2,5.53-7.53,5.53-10,0-2-.44-3.53-1.31-4.57-.87-1.04-2.14-1.57-3.8-1.57s-2.97.7-3.99,2.09c-1.02,1.4-1.53,3.14-1.53,5.22h-10.8c0-2.85.71-5.49,2.14-7.91,1.43-2.42,3.41-4.31,5.94-5.67,2.54-1.36,5.37-2.05,8.5-2.05,5.03,0,8.9,1.16,11.62,3.48,2.72,2.32,4.07,5.66,4.07,10,0,1.83-.34,3.62-1.02,5.35-.68,1.74-1.74,3.56-3.18,5.46-1.44,1.91-3.75,4.46-6.95,7.65l-6.01,6.93h18.31v8.31Z"/>
          <path d="M395.52,28.7v8.47h-.48c-4.03,0-7.33.96-9.92,2.89-2.59,1.93-4.18,4.61-4.78,8.04,2.43-2.39,5.5-3.58,9.2-3.58,4.03,0,7.23,1.47,9.62,4.41,2.39,2.94,3.58,6.8,3.58,11.57,0,2.96-.7,5.68-2.09,8.15-1.4,2.47-3.34,4.41-5.85,5.8-2.5,1.4-5.28,2.09-8.32,2.09-3.3,0-6.25-.75-8.85-2.25-2.6-1.5-4.62-3.65-6.07-6.44-1.45-2.79-2.19-6.01-2.24-9.65v-4.31c0-4.79,1.03-9.1,3.08-12.93,2.06-3.82,4.99-6.82,8.8-9,3.81-2.17,8.04-3.26,12.69-3.26h1.63ZM385.8,52.76c-1.43,0-2.62.33-3.58.99-.96.66-1.67,1.47-2.14,2.43v3.23c0,5.88,2.03,8.82,6.1,8.82,1.64,0,3.01-.73,4.11-2.2,1.1-1.47,1.65-3.31,1.65-5.53s-.56-4.14-1.68-5.58c-1.12-1.44-2.6-2.16-4.46-2.16Z"/>
        </g>
        <g>
          <g>
            <polygon points="138.14 72.95 140.85 75.8 134.35 75.8 134.35 29.48 140.58 29.48 138.14 32.05 143 37.16 138.14 42.27 143 47.38 138.14 52.5 143 57.61 138.14 62.72 143 67.83 138.14 72.95"/>
            <polygon points="148.46 29.48 148.46 75.8 144.2 75.8 141.49 72.95 146.35 67.83 141.5 62.72 146.35 57.61 141.5 52.5 146.35 47.38 141.5 42.27 146.35 37.16 141.5 32.05 143.94 29.48 148.46 29.48"/>
          </g>
          <g>
            <path d="M239.85,53.98c-.76,9.05-8.36,16.18-17.6,16.18s-16.84-7.13-17.6-16.18h-6.76c.77,12.77,11.4,22.92,24.35,22.92s23.58-10.15,24.35-22.92h-6.76Z"/>
            <path d="M246.1,47.39c-2.35-11.01-12.15-19.3-23.85-19.3s-21.5,8.29-23.85,19.3h47.71Z"/>
            <path d="M210.42,53.77c.59,6.01,5.66,10.71,11.83,10.71s11.24-4.7,11.83-10.71h-23.66Z"/>
          </g>
          <g>
            <circle cx="92.1" cy="52.44" r="4.2"/>
            <circle cx="124.46" cy="52.44" r="4.2"/>
            <g>
              <polygon points="100.53 55.2 106.75 65.32 100.41 75.63 87.97 75.63 100.53 55.2"/>
              <polygon points="128.75 29.53 116.19 49.96 109.97 39.84 116.31 29.53 128.75 29.53"/>
            </g>
            <polygon points="128.75 75.63 116.31 75.63 108.36 62.7 102.14 52.58 87.97 29.53 100.41 29.53 108.36 42.46 114.58 52.58 128.75 75.63"/>
          </g>
          <g>
            <polygon points="44.01 32.34 44.01 75.73 33.26 75.73 33.26 65.43 44.01 32.34"/>
            <polygon points="42.07 29.48 33.26 56.61 28.16 72.3 26.73 67.88 25 62.57 23.57 58.16 32.88 29.48 42.07 29.48"/>
            <polygon points=".39 32.73 11.14 65.83 11.14 75.73 .39 75.73 .39 32.73"/>
            <polygon points="26.41 75.73 17.22 75.73 16.11 72.31 11.14 56.99 2.2 29.48 11.38 29.48 20.7 58.16 22.14 62.57 22.14 62.57 23.57 66.99 25.29 72.3 26.41 75.73"/>
          </g>
          <path d="M193.02,60.03c-.15,3.2-1.01,6.03-2.59,8.49-1.58,2.46-3.8,4.36-6.66,5.71-2.86,1.35-6.12,2.02-9.79,2.02-6.05,0-10.81-1.97-14.29-5.91-3.48-3.94-5.22-9.51-5.22-16.69v-2.28c0-4.51.78-8.46,2.36-11.84,1.57-3.38,3.83-6,6.78-7.84,2.95-1.84,6.36-2.77,10.24-2.77,5.59,0,10.08,1.47,13.47,4.41,3.39,2.94,5.32,6.99,5.79,12.16h-11.07c-.08-2.8-.79-4.82-2.12-6.04-1.33-1.22-3.35-1.83-6.07-1.83s-4.79,1.03-6.07,3.1c-1.29,2.07-1.96,5.36-2.02,9.9v3.26c0,4.91.62,8.42,1.85,10.53,1.23,2.11,3.36,3.16,6.37,3.16,2.55,0,4.5-.6,5.85-1.8,1.35-1.2,2.06-3.11,2.15-5.72h11.04Z"/>
          <path d="M81.37,56.23h-20.18v10.84h20.68v8.55h-31.81V29.53h31.87v8.58h-20.74v9.89h20.18v8.23Z"/>
        </g>
      </g>
      <g>
        <polygon points="94.18 93.15 100.2 93.15 100.73 90.2 94.69 90.2 93.8 90.2 91.22 90.2 88.16 107.88 91.63 107.88 92.88 100.65 98.25 100.65 98.77 97.71 93.39 97.71 94.18 93.15"/>
        <polygon points="100.01 107.88 103.46 107.88 106.54 90.2 103.09 90.2 100.01 107.88"/>
        <path d="M117.68,90.89c-.72-.42-1.62-.65-2.68-.69h-5.33s-3.06,17.67-3.06,17.67h3.47l1.12-6.49h1.78l1.48,6.49h3.7v-.19l-1.86-7.15c.59-.31,1.11-.66,1.54-1.05.54-.49.96-1.06,1.26-1.72.3-.66.49-1.44.57-2.32.09-1.06-.04-1.98-.39-2.75-.35-.77-.89-1.37-1.62-1.8ZM112.64,93.15h2.22c.46.04.8.18,1.01.45.21.27.33.6.37.98.04.39.03.77-.02,1.15-.06.5-.21.96-.43,1.37-.22.41-.52.74-.9.98-.38.24-.84.37-1.38.39l-1.78-.02.92-5.31Z"/>
        <path d="M131.06,90.72c-.72-.49-1.61-.74-2.67-.77-.75-.02-1.48.09-2.18.31-.7.22-1.33.55-1.89,1-.56.44-1.01.98-1.36,1.61-.35.63-.55,1.34-.61,2.14-.05.7.02,1.32.22,1.87.19.55.48,1.04.87,1.48.38.43.83.82,1.34,1.17.51.34,1.05.65,1.62.93.32.15.6.3.84.47.25.17.46.35.63.56.17.21.3.44.37.71.07.27.08.58.04.95-.06.41-.18.78-.36,1.09-.19.32-.43.56-.74.74-.31.18-.68.27-1.11.27-.45,0-.82-.08-1.09-.24-.28-.16-.48-.37-.63-.64-.14-.27-.23-.58-.27-.94-.04-.36-.04-.72-.02-1.1h-3.47c-.04.81.05,1.57.27,2.27.22.7.55,1.32,1,1.85.45.53,1.01.94,1.67,1.23.66.3,1.42.46,2.26.48.79.02,1.53-.09,2.22-.3.68-.22,1.29-.54,1.83-.98.53-.43.97-.96,1.29-1.58.33-.62.52-1.34.59-2.16.05-.74-.01-1.39-.18-1.97-.17-.57-.43-1.08-.79-1.52-.36-.44-.8-.83-1.31-1.18-.51-.34-1.07-.67-1.69-.97-.25-.11-.5-.25-.75-.41-.25-.16-.48-.34-.67-.53-.2-.2-.35-.42-.46-.67-.11-.25-.14-.53-.1-.85.06-.4.19-.77.39-1.09.2-.32.47-.58.79-.78.32-.19.7-.29,1.12-.28.5,0,.87.14,1.11.39.23.26.39.58.46.97.07.39.09.79.05,1.18h3.46c.04-1-.12-1.91-.47-2.73-.35-.82-.89-1.47-1.61-1.96Z"/>
        <polygon points="147.6 90.2 143.34 90.2 139.88 90.2 135.7 90.2 135.19 93.15 139.36 93.15 136.8 107.88 140.27 107.88 142.83 93.15 147.08 93.15 147.6 90.2"/>
        <path d="M154.45,96.35v-.4c0-.5-.14-.92-.41-1.25-.09-.11-.21-.2-.35-.28.03-.01.05-.03.08-.04.23-.14.4-.31.52-.51.12-.2.18-.42.18-.68,0-.41-.09-.75-.28-1.02s-.46-.48-.8-.62c-.34-.14-.75-.21-1.22-.21h-1.98v6.02h1.06v-2.39h1.12c.37,0,.63.08.79.24.16.16.23.41.23.74v.38c0,.1,0,.27.01.5s.03.4.08.52h1.09v-.11c-.05-.11-.08-.24-.1-.4-.02-.16-.02-.32-.02-.5ZM152.21,94.02h-.96v-1.74h.92c.31,0,.55.03.73.09s.31.15.39.29c.08.13.12.31.12.55,0,.18-.05.33-.16.45-.11.12-.26.21-.44.27-.19.06-.38.09-.59.1Z"/>
        <path d="M155.82,90.66c-.46-.48-.99-.85-1.6-1.12-.61-.27-1.26-.4-1.95-.4s-1.34.13-1.95.4c-.61.27-1.14.64-1.6,1.12-.46.48-.82,1.04-1.08,1.68-.26.64-.39,1.34-.39,2.09s.13,1.45.39,2.09c.26.64.62,1.2,1.08,1.68.46.48,1,.86,1.6,1.13.61.27,1.26.4,1.95.4s1.34-.13,1.95-.4c.61-.27,1.14-.64,1.6-1.13.46-.48.82-1.04,1.08-1.68.26-.64.39-1.34.39-2.09s-.13-1.45-.39-2.09c-.26-.64-.62-1.2-1.08-1.68ZM156.1,96.17c-.22.54-.52,1-.9,1.41-.38.4-.82.71-1.32.94-.5.22-1.04.34-1.61.34s-1.12-.11-1.62-.34c-.5-.22-.95-.54-1.33-.94-.38-.4-.68-.87-.9-1.41-.21-.54-.32-1.12-.32-1.74s.11-1.2.32-1.74c.21-.54.51-1,.9-1.4s.82-.71,1.33-.93c.5-.22,1.04-.33,1.62-.33s1.11.11,1.61.33c.5.22.94.53,1.32.93.38.4.68.87.9,1.4.22.54.33,1.12.33,1.74s-.11,1.2-.33,1.74Z"/>
        <polygon points="169.08 90.2 165.52 90.2 165.52 107.88 167.99 107.88 169.08 107.88 175.33 107.88 175.33 104.94 169.08 104.94 169.08 90.2"/>
        <polygon points="181.21 100.22 186.76 100.22 186.76 97.36 181.21 97.36 181.21 93.15 187.76 93.15 187.76 90.2 181.21 90.2 180.1 90.2 177.65 90.2 177.65 107.88 180.1 107.88 181.21 107.88 187.79 107.88 187.79 104.94 181.21 104.94 181.21 100.22"/>
        <path d="M196,101.27h2.54v3.25c-.11.06-.24.14-.39.24-.16.1-.37.2-.63.29-.26.09-.6.13-1.03.13-.53,0-1-.08-1.39-.25-.39-.17-.72-.44-.97-.81-.26-.37-.45-.85-.58-1.45-.13-.59-.19-1.3-.19-2.14v-3.04c0-.84.06-1.55.17-2.14.11-.58.29-1.06.52-1.43.23-.37.53-.64.87-.81.35-.17.76-.25,1.23-.25.54,0,.98.09,1.32.27.34.18.61.48.8.9.19.42.31,1,.37,1.75h3.44c-.09-1.27-.35-2.34-.8-3.22-.44-.87-1.09-1.53-1.94-1.98-.85-.45-1.95-.67-3.27-.67-.96,0-1.83.15-2.59.46-.77.31-1.42.78-1.97,1.41-.55.63-.97,1.42-1.26,2.37-.29.95-.43,2.07-.43,3.35v3.01c0,1.3.15,2.42.45,3.36.3.94.73,1.73,1.31,2.36.57.63,1.25,1.1,2.05,1.4.8.31,1.69.46,2.67.46,1.11,0,2.05-.13,2.82-.39.77-.26,1.4-.57,1.88-.92.48-.35.85-.66,1.1-.93v-7.29h-6.08v2.68Z"/>
        <path d="M215.52,91.9c-.57-.64-1.24-1.13-2.02-1.46-.78-.33-1.64-.49-2.59-.49s-1.81.16-2.59.49c-.78.33-1.45.81-2.02,1.46-.57.64-1,1.45-1.3,2.4-.3.96-.45,2.08-.45,3.36v2.95c0,1.25.15,2.34.46,3.27.31.94.74,1.72,1.31,2.34.56.63,1.23,1.1,2.02,1.41.78.32,1.65.47,2.59.47s1.81-.16,2.59-.47c.78-.32,1.45-.79,2-1.41.55-.63.98-1.41,1.29-2.34s.46-2.03.46-3.27v-2.95c0-1.28-.15-2.4-.46-3.36s-.74-1.76-1.31-2.4ZM213.75,100.62c0,.81-.06,1.5-.18,2.08-.12.58-.3,1.04-.53,1.41-.23.36-.53.63-.88.81-.35.17-.76.26-1.21.26s-.87-.09-1.22-.26c-.35-.17-.65-.44-.89-.81-.24-.36-.43-.83-.55-1.41-.12-.57-.18-1.27-.18-2.08v-2.98c0-.84.06-1.56.18-2.16.12-.6.3-1.08.53-1.46.24-.38.53-.66.89-.84.35-.18.76-.27,1.22-.27s.87.09,1.21.27c.35.18.64.46.89.84s.43.87.55,1.46c.12.59.18,1.31.18,2.16v2.98Z"/>
        <path d="M226.49,96.35v-.4c0-.5-.14-.92-.41-1.25-.09-.11-.21-.2-.35-.28.03-.01.05-.03.08-.04.23-.14.4-.31.52-.51.12-.2.18-.42.18-.68,0-.41-.09-.75-.28-1.02-.19-.27-.46-.48-.8-.62-.34-.14-.75-.21-1.22-.21h-1.98v6.02h1.06v-2.39h1.12c.37,0,.63.08.79.24.16.16.23.41.23.74v.38c0,.1,0,.27.01.5,0,.23.03.4.08.52h1.09v-.11c-.05-.11-.08-.24-.1-.4-.02-.16-.02-.32-.02-.5ZM224.25,94.02h-.96v-1.74h.92c.31,0,.55.03.73.09.18.06.31.15.39.29.08.13.12.31.12.55,0,.18-.05.33-.16.45-.11.12-.26.21-.44.27-.19.06-.38.09-.59.1Z"/>
        <path d="M227.86,90.66c-.46-.48-.99-.85-1.6-1.12-.61-.27-1.26-.4-1.95-.4s-1.34.13-1.95.4c-.61.27-1.14.64-1.6,1.12-.46.48-.82,1.04-1.08,1.68-.26.64-.39,1.34-.39,2.09s.13,1.45.39,2.09c.26.64.62,1.2,1.08,1.68.46.48,1,.86,1.6,1.13.61.27,1.26.4,1.95.4s1.34-.13,1.95-.4c.61-.27,1.14-.64,1.6-1.13.46-.48.82-1.04,1.08-1.68.26-.64.39-1.34.39-2.09s-.13-1.45-.39-2.09c-.26-.64-.62-1.2-1.08-1.68ZM228.14,96.17c-.22.54-.52,1-.9,1.41-.38.4-.82.71-1.32.94-.5.22-1.04.34-1.61.34s-1.12-.11-1.62-.34c-.5-.22-.95-.54-1.33-.94-.38-.4-.68-.87-.9-1.41-.21-.54-.32-1.12-.32-1.74s.11-1.2.32-1.74c.21-.54.51-1,.9-1.4.38-.4.82-.71,1.33-.93.5-.22,1.04-.33,1.62-.33s1.11.11,1.61.33c.5.22.94.53,1.32.93s.68.87.9,1.4c.22.54.33,1.12.33,1.74s-.11,1.2-.33,1.74Z"/>
        <polygon points="241.12 90.2 237.56 90.2 237.56 107.88 240.03 107.88 241.12 107.88 247.37 107.88 247.37 104.94 241.12 104.94 241.12 90.2"/>
        <polygon points="253.24 100.22 258.8 100.22 258.8 97.36 253.24 97.36 253.24 93.15 259.8 93.15 259.8 90.2 253.24 90.2 252.14 90.2 249.69 90.2 249.69 107.88 252.14 107.88 253.24 107.88 259.83 107.88 259.83 104.94 253.24 104.94 253.24 100.22"/>
        <path d="M268.83,90.2h-2.34l-5.53,17.68h3.75l.95-3.64h4.89l.96,3.64h3.78l-5.57-17.68h-.89ZM266.44,101.28l1.66-6.36,1.67,6.36h-3.34Z"/>
        <path d="M282.86,101.27h2.54v3.25c-.11.06-.24.14-.39.24-.16.1-.37.2-.63.29-.26.09-.6.13-1.03.13-.53,0-1-.08-1.39-.25-.39-.17-.72-.44-.97-.81-.26-.37-.45-.85-.58-1.45-.13-.59-.19-1.3-.19-2.14v-3.04c0-.84.06-1.55.17-2.14.11-.58.29-1.06.52-1.43.23-.37.53-.64.87-.81.35-.17.76-.25,1.23-.25.54,0,.98.09,1.32.27.34.18.61.48.8.9.19.42.31,1,.37,1.75h3.44c-.09-1.27-.35-2.34-.8-3.22-.44-.87-1.09-1.53-1.94-1.98-.85-.45-1.95-.67-3.27-.67-.96,0-1.83.15-2.59.46-.77.31-1.42.78-1.97,1.41-.55.63-.97,1.42-1.26,2.37-.29.95-.43,2.07-.43,3.35v3.01c0,1.3.15,2.42.45,3.36.3.94.73,1.73,1.31,2.36.57.63,1.25,1.1,2.05,1.4.8.31,1.69.46,2.67.46,1.11,0,2.05-.13,2.82-.39.77-.26,1.4-.57,1.88-.92.48-.35.85-.66,1.1-.93v-7.29h-6.08v2.68Z"/>
        <path d="M299.67,102.34c0,.77-.09,1.36-.26,1.77-.17.41-.43.69-.75.84-.33.15-.74.22-1.24.22s-.91-.07-1.24-.22c-.34-.15-.59-.43-.77-.84-.17-.41-.26-1-.26-1.77v-12.14h-3.55v12.14c0,1.36.24,2.47.73,3.32.49.85,1.18,1.48,2.06,1.87.88.39,1.89.59,3.02.59s2.13-.2,3-.59c.87-.39,1.56-1.02,2.06-1.87.5-.85.75-1.96.75-3.32v-12.14h-3.55v12.14Z"/>
        <polygon points="309.7 104.94 309.7 100.22 315.25 100.22 315.25 97.36 309.7 97.36 309.7 93.15 316.26 93.15 316.26 90.2 309.7 90.2 308.6 90.2 306.14 90.2 306.14 107.88 308.6 107.88 309.7 107.88 316.28 107.88 316.28 104.94 309.7 104.94"/>
      </g>
    </g>
  </g>
</svg>