<?xml version="1.0" encoding="UTF-8"?>
<svg id="Capa_1" xmlns="http://www.w3.org/2000/svg" version="1.1" viewBox="12 6 155 44">
  <!-- Recortado para centrar el contenido y eliminar espacios vacíos -->
  <g>
    <g>
      <rect x="13.36" y="7.07" width="1.36" height="6.79"/>
      <polygon points="19.33 11.36 17.18 7.07 15.88 7.07 15.88 13.86 17.18 13.86 17.18 9.61 19.31 13.86 20.63 13.86 20.63 7.07 19.33 7.07 19.33 11.36"/>
      <polygon points="22.94 7.07 21.29 7.07 21.29 8.2 22.94 8.2 22.94 13.86 24.3 13.86 24.3 8.2 25.99 8.2 25.99 7.07 24.3 7.07 22.94 7.07"/>
      <polygon points="28.15 10.92 30.28 10.92 30.28 9.82 28.15 9.82 28.15 8.2 30.67 8.2 30.67 7.07 28.15 7.07 27.72 7.07 26.78 7.07 26.78 13.86 27.72 13.86 28.15 13.86 30.68 13.86 30.68 12.73 28.15 12.73 28.15 10.92"/>
      <path d="M35.24,10.71c.18-.17.33-.39.42-.65.1-.26.15-.57.15-.94,0-.45-.09-.82-.26-1.13-.17-.3-.42-.54-.74-.69-.32-.16-.71-.23-1.16-.23h-2.18v6.79h1.37v-2.49h.69l1.03,2.49h1.46v-.07l-1.2-2.79c.15-.08.29-.18.41-.3ZM32.84,8.2h.81c.19,0,.34.04.46.12.12.08.2.2.26.35.05.15.08.34.08.55,0,.2-.03.38-.09.53-.06.15-.15.27-.28.35-.12.08-.28.12-.46.12h-.77v-2.03Z"/>
      <polygon points="40.21 11.36 38.06 7.07 36.76 7.07 36.76 13.86 38.06 13.86 38.06 9.61 40.19 13.86 41.51 13.86 41.51 7.07 40.21 7.07 40.21 11.36"/>
      <path d="M45.28,7.07h-.9l-2.12,6.79h1.44l.37-1.4h1.88l.37,1.4h1.45l-2.14-6.79h-.34ZM44.36,11.33l.64-2.44.64,2.44h-1.28Z"/>
      <polygon points="49.19 7.07 47.53 7.07 47.53 8.2 49.19 8.2 49.19 13.86 50.55 13.86 50.55 8.2 52.24 8.2 52.24 7.07 50.55 7.07 49.19 7.07"/>
      <rect x="53.09" y="7.07" width="1.36" height="6.79"/>
      <path d="M59.71,7.72c-.22-.25-.48-.43-.77-.56-.3-.13-.63-.19-.99-.19s-.7.06-.99.19c-.3.13-.56.31-.77.56-.22.25-.38.56-.5.92-.12.37-.17.8-.17,1.29v1.13c0,.48.06.9.18,1.26.12.36.29.66.5.9.22.24.47.42.77.54.3.12.63.18,1,.18s.7-.06,1-.18c.3-.12.56-.3.77-.54.21-.24.38-.54.49-.9.12-.36.18-.78.18-1.26v-1.13c0-.49-.06-.92-.18-1.29-.12-.37-.28-.68-.5-.92ZM59.02,11.07c0,.31-.02.58-.07.8-.05.22-.12.4-.21.54-.09.14-.2.24-.34.31-.14.07-.29.1-.46.1s-.33-.03-.47-.1c-.14-.07-.25-.17-.34-.31-.09-.14-.16-.32-.21-.54-.05-.22-.07-.49-.07-.8v-1.14c0-.32.02-.6.07-.83.05-.23.11-.42.21-.56.09-.15.21-.25.34-.32.14-.07.29-.1.47-.1s.33.03.47.1c.13.07.25.18.34.32s.16.33.21.56c.05.23.07.5.07.83v1.14Z"/>
      <polygon points="64.83 11.36 62.68 7.07 61.38 7.07 61.38 13.86 62.67 13.86 62.67 9.61 64.81 13.86 66.13 13.86 66.13 7.07 64.83 7.07 64.83 11.36"/>
      <path d="M69.89,7.07h-.9l-2.12,6.79h1.44l.37-1.4h1.88l.37,1.4h1.45l-2.14-6.79h-.34ZM68.97,11.33l.64-2.44.64,2.44h-1.28Z"/>
      <polygon points="74.39 7.07 73.02 7.07 73.02 13.86 73.97 13.86 74.39 13.86 76.79 13.86 76.79 12.73 74.39 12.73 74.39 7.07"/>
      <path d="M83.89,7.72c-.22-.25-.48-.43-.77-.56-.3-.13-.63-.19-.99-.19s-.7.06-.99.19c-.3.13-.56.31-.77.56-.22.25-.38.56-.5.92-.12.37-.17.8-.17,1.29v1.13c0,.48.06.9.18,1.26.12.36.29.66.5.9.22.24.47.42.77.54.3.12.63.18,1,.18s.7-.06,1-.18c.3-.12.56-.3.77-.54.21-.24.38-.54.49-.9s.17-.78.17-1.26v-1.13c0-.49-.06-.92-.17-1.29-.12-.37-.28-.68-.5-.92ZM83.21,11.07c0,.31-.02.58-.07.8-.05.22-.12.4-.21.54-.09.14-.2.24-.34.31-.14.07-.29.1-.46.1s-.33-.03-.47-.1c-.14-.07-.25-.17-.34-.31-.09-.14-.16-.32-.21-.54-.05-.22-.07-.49-.07-.8v-1.14c0-.32.02-.6.07-.83.05-.23.11-.42.21-.56.09-.15.21-.25.34-.32.14-.07.29-.1.47-.1s.33.03.47.1c.13.07.25.18.34.32s.16.33.21.56c.05.23.07.5.07.83v1.14Z"/>
      <path d="M89.06,7.36c-.33-.19-.72-.29-1.18-.29h-2.31v6.79h1.37v-2.39h.95c.46,0,.85-.09,1.18-.27s.58-.43.76-.75c.18-.32.27-.7.27-1.14s-.09-.82-.27-1.16c-.18-.34-.43-.6-.76-.8ZM88.62,9.84c-.06.15-.14.27-.27.36-.12.09-.28.13-.48.13h-.95v-2.13h.95c.2,0,.35.05.48.16.12.1.21.24.27.41.06.17.08.35.08.55s-.03.37-.08.52Z"/>
      <polygon points="92.36 10.92 94.5 10.92 94.5 9.82 92.36 9.82 92.36 8.2 94.88 8.2 94.88 7.07 92.36 7.07 91.94 7.07 91 7.07 91 13.86 91.94 13.86 92.36 13.86 94.89 13.86 94.89 12.73 92.36 12.73 92.36 10.92"/>
      <polygon points="99.14 11.36 96.99 7.07 95.69 7.07 95.69 13.86 96.98 13.86 96.98 9.61 99.12 13.86 100.44 13.86 100.44 7.07 99.14 7.07 99.14 11.36"/>
      <path d="M105.04,9.05c.04-.23.1-.41.18-.55.08-.14.19-.24.32-.31s.29-.1.47-.1c.24,0,.43.04.57.11.14.08.24.21.3.39.06.19.1.44.11.76h1.36c-.04-.51-.15-.95-.33-1.31s-.44-.63-.77-.81c-.33-.19-.75-.28-1.24-.28-.37,0-.7.06-1,.19-.29.13-.54.31-.75.56-.21.25-.37.55-.48.92-.11.36-.17.78-.17,1.26v1.15c0,.47.05.89.16,1.25.1.36.26.67.46.91.21.25.45.43.75.56.29.13.63.19,1,.19.49,0,.9-.09,1.24-.27.34-.18.61-.45.8-.8.19-.35.29-.78.31-1.29h-1.36c0,.33-.05.58-.12.76-.07.18-.17.3-.32.37-.14.07-.33.1-.56.1-.2,0-.36-.03-.49-.1-.13-.07-.23-.17-.31-.31-.07-.14-.13-.33-.16-.55-.03-.23-.05-.5-.05-.82v-1.16c0-.33.02-.6.06-.83Z"/>
      <polygon points="112.59 9.82 110.56 9.82 110.56 7.07 109.19 7.07 109.19 13.86 110.56 13.86 110.56 10.95 112.59 10.95 112.59 13.86 113.94 13.86 113.94 7.07 112.59 7.07 112.59 9.82"/>
      <path d="M117.72,7.07h-.9l-2.12,6.79h1.44l.37-1.4h1.88l.37,1.4h1.45l-2.14-6.79h-.34ZM116.8,11.33l.64-2.44.64,2.44h-1.28Z"/>
      <polygon points="125.83 7.07 125.3 7.07 123.92 11.71 122.53 7.07 121.99 7.07 121.33 7.07 120.85 7.07 120.85 13.86 122.17 13.86 122.17 11.55 122.09 9.55 123.4 13.86 124.43 13.86 125.76 9.18 125.67 11.55 125.67 13.86 126.98 13.86 126.98 7.07 126.36 7.07 125.83 7.07"/>
      <path d="M131.59,7.36c-.33-.19-.72-.29-1.18-.29h-2.31v6.79h1.37v-2.39h.95c.46,0,.85-.09,1.18-.27.33-.18.58-.43.76-.75.18-.32.27-.7.27-1.14s-.09-.82-.27-1.16c-.18-.34-.43-.6-.76-.8ZM131.15,9.84c-.06.15-.14.27-.27.36-.12.09-.28.13-.48.13h-.95v-2.13h.95c.2,0,.35.05.48.16.12.1.21.24.27.41.06.17.08.35.08.55s-.03.37-.08.52Z"/>
      <rect x="133.59" y="7.07" width="1.36" height="6.79"/>
      <path d="M140.2,7.72c-.22-.25-.48-.43-.77-.56-.3-.13-.63-.19-.99-.19s-.7.06-.99.19c-.3.13-.56.31-.77.56-.22.25-.38.56-.5.92-.12.37-.17.8-.17,1.29v1.13c0,.48.06.9.18,1.26.12.36.29.66.5.9.22.24.47.42.77.54.3.12.63.18,1,.18s.7-.06,1-.18c.3-.12.56-.3.77-.54.21-.24.38-.54.49-.9s.18-.78.18-1.26v-1.13c0-.49-.06-.92-.18-1.29-.12-.37-.28-.68-.5-.92ZM139.52,11.07c0,.31-.02.58-.07.8-.05.22-.12.4-.21.54-.09.14-.2.24-.34.31-.14.07-.29.1-.46.1s-.33-.03-.47-.1c-.14-.07-.25-.17-.34-.31-.09-.14-.16-.32-.21-.54-.05-.22-.07-.49-.07-.8v-1.14c0-.32.02-.6.07-.83.05-.23.11-.42.21-.56.09-.15.21-.25.34-.32.14-.07.29-.1.47-.1s.33.03.47.1c.13.07.25.18.34.32s.16.33.21.56c.05.23.07.5.07.83v1.14Z"/>
      <polygon points="145.33 11.36 143.18 7.07 141.87 7.07 141.87 13.86 143.17 13.86 143.17 9.61 145.3 13.86 146.63 13.86 146.63 7.07 145.33 7.07 145.33 11.36"/>
      <path d="M151.48,10.69c-.16-.18-.36-.34-.59-.49-.24-.14-.51-.28-.82-.4-.16-.06-.3-.13-.44-.19-.13-.07-.25-.13-.34-.2-.1-.07-.17-.15-.23-.24-.05-.09-.08-.19-.08-.3,0-.15.03-.28.08-.4.05-.12.14-.21.25-.28.11-.07.26-.11.43-.11.19,0,.34.04.46.13.12.08.2.2.26.35.05.15.08.32.08.51h1.36c0-.41-.09-.77-.26-1.08-.18-.31-.42-.56-.74-.74-.32-.18-.7-.27-1.13-.27-.32,0-.61.05-.87.14-.26.09-.49.22-.68.39-.19.17-.34.37-.45.6-.1.23-.16.49-.16.78s.06.55.17.76c.11.22.26.4.45.56.19.16.4.3.64.42.24.12.48.23.73.34.21.09.38.18.52.26.13.08.23.17.3.25.07.08.12.18.14.28.02.1.03.21.03.33,0,.15-.02.28-.07.39-.05.12-.12.21-.23.28-.11.07-.25.1-.43.1-.16,0-.3-.02-.42-.06-.12-.04-.23-.11-.31-.19-.08-.09-.15-.2-.19-.35-.04-.14-.06-.32-.06-.52h-1.37c0,.39.06.72.18,1,.12.28.29.51.5.7.21.18.46.32.74.41.28.09.58.13.89.13s.62-.05.88-.14c.26-.09.49-.22.67-.38.19-.17.33-.37.43-.6.1-.23.15-.49.15-.77s-.04-.54-.12-.77c-.08-.22-.2-.43-.36-.6Z"/>
      <polygon points="156.29 9.82 154.25 9.82 154.25 7.07 152.88 7.07 152.88 13.86 154.25 13.86 154.25 10.95 156.29 10.95 156.29 13.86 157.64 13.86 157.64 7.07 156.29 7.07 156.29 9.82"/>
      <rect x="158.81" y="7.07" width="1.36" height="6.79"/>
      <path d="M165.58,8.15c-.18-.34-.43-.6-.76-.8-.33-.19-.72-.29-1.18-.29h-2.31v6.79h1.37v-2.39h.95c.46,0,.85-.09,1.18-.27.33-.18.58-.43.76-.75.18-.32.27-.7.27-1.14s-.09-.82-.27-1.16ZM164.39,9.84c-.06.15-.14.27-.27.36-.12.09-.28.13-.48.13h-.95v-2.13h.95c.2,0,.35.05.48.16.12.1.21.24.27.41.06.17.08.35.08.55s-.03.37-.08.52Z"/>
    </g>
    <g>
      <g>
        <path d="M127.15,36.13h-12.48v-2.7l5.75-6.04c1.42-1.61,2.12-2.89,2.12-3.84,0-.77-.17-1.35-.5-1.76-.34-.4-.82-.6-1.46-.6s-1.14.27-1.53.8c-.39.54-.59,1.21-.59,2.01h-4.15c0-1.1.27-2.11.82-3.04.55-.93,1.31-1.66,2.28-2.18.97-.52,2.06-.79,3.27-.79,1.93,0,3.42.45,4.46,1.34,1.04.89,1.57,2.17,1.57,3.84,0,.7-.13,1.39-.39,2.06-.26.67-.67,1.37-1.22,2.1-.55.73-1.44,1.71-2.67,2.94l-2.31,2.66h7.04v3.19Z"/>
        <path d="M140.65,28.83c0,2.42-.54,4.28-1.63,5.59-1.08,1.31-2.61,1.96-4.59,1.96s-3.53-.66-4.62-1.98c-1.09-1.32-1.63-3.18-1.63-5.57v-3.27c0-2.41.54-4.28,1.63-5.59,1.08-1.31,2.62-1.96,4.6-1.96s3.52.66,4.6,1.98c1.09,1.32,1.63,3.18,1.63,5.59v3.25ZM136.51,25.03c0-1.29-.17-2.25-.5-2.88-.34-.63-.87-.95-1.6-.95s-1.23.29-1.55.88c-.32.59-.5,1.48-.52,2.68v4.57c0,1.33.17,2.31.5,2.93.34.62.87.93,1.6.93s1.22-.3,1.56-.9c.34-.6.51-1.55.52-2.83v-4.42Z"/>
        <path d="M154.27,36.13h-12.48v-2.7l5.75-6.04c1.42-1.61,2.12-2.89,2.12-3.84,0-.77-.17-1.35-.5-1.76-.34-.4-.82-.6-1.46-.6s-1.14.27-1.53.8c-.39.54-.59,1.21-.59,2.01h-4.15c0-1.1.27-2.11.82-3.04.55-.93,1.31-1.66,2.28-2.18.97-.52,2.06-.79,3.27-.79,1.93,0,3.42.45,4.46,1.34,1.04.89,1.57,2.17,1.57,3.84,0,.7-.13,1.39-.39,2.06-.26.67-.67,1.37-1.22,2.1-.55.73-1.44,1.71-2.67,2.94l-2.31,2.66h7.04v3.19Z"/>
        <path d="M165.34,18v3.25h-.18c-1.55,0-2.82.37-3.81,1.11-.99.74-1.61,1.77-1.84,3.09.93-.92,2.11-1.38,3.54-1.38,1.55,0,2.78.56,3.7,1.69.92,1.13,1.38,2.61,1.38,4.45,0,1.14-.27,2.18-.8,3.13-.54.95-1.29,1.69-2.25,2.23-.96.54-2.03.8-3.2.8-1.27,0-2.4-.29-3.4-.87-1-.58-1.78-1.4-2.33-2.47-.56-1.07-.84-2.31-.86-3.71v-1.66c0-1.84.39-3.5,1.19-4.97.79-1.47,1.92-2.62,3.38-3.46,1.47-.84,3.09-1.25,4.88-1.25h.63ZM161.61,27.24c-.55,0-1.01.13-1.38.38-.37.25-.64.56-.82.93v1.24c0,2.26.78,3.39,2.35,3.39.63,0,1.16-.28,1.58-.85.42-.56.63-1.27.63-2.12s-.21-1.59-.64-2.14c-.43-.55-1-.83-1.71-.83Z"/>
      </g>
      <g>
        <g>
          <polygon points="66.44 35 67.48 36.1 64.99 36.1 64.99 18.3 67.38 18.3 66.44 19.28 68.31 21.25 66.44 23.21 68.31 25.18 66.44 27.14 68.31 29.11 66.44 31.07 68.31 33.03 66.44 35"/>
          <polygon points="70.41 18.3 70.41 36.1 68.77 36.1 67.73 35 69.6 33.03 67.73 31.07 69.6 29.11 67.73 27.14 69.6 25.18 67.73 23.21 69.6 21.25 67.73 19.28 68.67 18.3 70.41 18.3"/>
        </g>
        <g>
          <path d="M105.52,27.71c-.29,3.48-3.21,6.22-6.76,6.22s-6.47-2.74-6.76-6.22h-2.6c.3,4.91,4.38,8.81,9.36,8.81s9.06-3.9,9.36-8.81h-2.6Z"/>
          <path d="M107.93,25.18c-.9-4.23-4.67-7.42-9.17-7.42s-8.26,3.19-9.17,7.42h18.33Z"/>
          <path d="M94.22,27.63c.23,2.31,2.17,4.12,4.55,4.12s4.32-1.81,4.55-4.12h-9.09Z"/>
        </g>
        <g>
          <circle cx="48.75" cy="27.12" r="1.61"/>
          <circle cx="61.19" cy="27.12" r="1.61"/>
          <g>
            <polygon points="51.99 28.18 54.38 32.07 51.94 36.03 47.16 36.03 51.99 28.18"/>
            <polygon points="62.83 18.32 58.01 26.17 55.62 22.28 58.05 18.32 62.83 18.32"/>
          </g>
          <polygon points="62.83 36.03 58.05 36.03 55 31.06 52.61 27.17 47.16 18.32 51.94 18.32 55 23.28 57.39 27.17 62.83 36.03"/>
        </g>
        <g>
          <polygon points="30.27 19.39 30.27 36.07 26.14 36.07 26.14 32.11 30.27 19.39"/>
          <polygon points="29.53 18.3 26.14 28.72 24.18 34.75 23.63 33.05 22.97 31.01 22.42 29.32 25.99 18.3 29.53 18.3"/>
          <polygon points="13.51 19.55 17.64 32.26 17.64 36.07 13.51 36.07 13.51 19.55"/>
          <polygon points="23.51 36.07 19.98 36.07 19.55 34.75 17.64 28.87 14.21 18.3 17.73 18.3 21.31 29.32 21.87 31.01 21.87 31.01 22.42 32.71 23.08 34.75 23.51 36.07"/>
        </g>
        <path d="M87.53,30.04c-.06,1.23-.39,2.32-1,3.26-.61.94-1.46,1.67-2.56,2.19-1.1.52-2.35.78-3.76.78-2.32,0-4.16-.76-5.49-2.27-1.34-1.51-2-3.65-2-6.42v-.87c0-1.73.3-3.25.91-4.55.6-1.3,1.47-2.3,2.61-3.01,1.13-.71,2.45-1.06,3.94-1.06,2.15,0,3.87.56,5.18,1.69,1.3,1.13,2.05,2.69,2.22,4.67h-4.25c-.03-1.08-.3-1.85-.81-2.32-.51-.47-1.29-.7-2.33-.7s-1.84.4-2.33,1.19c-.49.79-.75,2.06-.78,3.8v1.25c0,1.89.24,3.24.71,4.05.47.81,1.29,1.22,2.45,1.22.98,0,1.73-.23,2.25-.69.52-.46.79-1.19.83-2.2h4.24Z"/>
        <path d="M44.63,28.58h-7.76v4.16h7.94v3.28h-12.22v-17.71h12.25v3.3h-7.97v3.8h7.76v3.16Z"/>
      </g>
    </g>
    <g>
      <polygon points="49.55 42.76 51.86 42.76 52.06 41.63 49.75 41.63 49.4 41.63 48.41 41.63 47.23 48.42 48.57 48.42 49.05 45.65 51.11 45.65 51.31 44.52 49.25 44.52 49.55 42.76"/>
      <polygon points="51.79 48.42 53.12 48.42 54.3 41.63 52.97 41.63 51.79 48.42"/>
      <path d="M58.58,41.9c-.28-.16-.62-.25-1.03-.26h-2.05s-1.18,6.79-1.18,6.79h1.33l.43-2.49h.68l.57,2.49h1.42v-.07l-.71-2.75c.23-.12.43-.25.59-.4.21-.19.37-.41.49-.66.12-.26.19-.55.22-.89.03-.41-.02-.76-.15-1.06-.14-.3-.34-.53-.62-.69ZM56.64,42.76h.85c.18.01.31.07.39.17.08.1.13.23.14.38.01.15.01.3,0,.44-.02.19-.08.37-.17.53-.09.16-.2.28-.35.38-.15.09-.32.14-.53.15h-.68s.35-2.05.35-2.05Z"/>
      <path d="M63.72,41.83c-.28-.19-.62-.28-1.03-.29-.29,0-.57.03-.84.12-.27.09-.51.21-.73.38-.21.17-.39.38-.52.62-.13.24-.21.52-.23.82-.02.27,0,.51.08.72.07.21.19.4.33.57.15.17.32.32.51.45.19.13.4.25.62.36.12.06.23.12.32.18.09.06.18.14.24.21.07.08.11.17.14.27.03.1.03.22.01.36-.02.16-.07.3-.14.42-.07.12-.17.22-.28.28-.12.07-.26.1-.42.1-.17,0-.31-.03-.42-.09-.11-.06-.19-.14-.24-.25-.05-.1-.09-.22-.1-.36-.01-.14-.02-.28,0-.42h-1.33c-.02.31.02.6.1.87.08.27.21.51.38.71.17.2.39.36.64.47.26.11.54.18.87.18.3,0,.59-.03.85-.12.26-.08.5-.21.7-.38.21-.17.37-.37.5-.61.13-.24.2-.52.23-.83.02-.28,0-.54-.07-.76-.06-.22-.16-.42-.3-.59-.14-.17-.31-.32-.5-.45-.2-.13-.41-.26-.65-.37-.1-.04-.19-.1-.29-.16-.1-.06-.18-.13-.26-.21-.08-.08-.14-.16-.18-.26-.04-.1-.06-.21-.04-.33.02-.16.07-.3.15-.42.08-.12.18-.22.3-.3.12-.07.27-.11.43-.11.19,0,.33.05.42.15.09.1.15.22.18.37.03.15.03.3.02.46h1.33c.02-.38-.04-.74-.18-1.05-.14-.31-.34-.56-.62-.75Z"/>
      <polygon points="70.08 41.63 68.44 41.63 67.11 41.63 65.5 41.63 65.31 42.76 66.91 42.76 65.93 48.42 67.26 48.42 68.24 42.76 69.88 42.76 70.08 41.63"/>
      <path d="M72.71,43.99v-.15c0-.19-.05-.35-.16-.48-.03-.04-.08-.08-.13-.11,0,0,.02-.01.03-.02.09-.05.16-.12.2-.2.05-.08.07-.16.07-.26,0-.16-.04-.29-.11-.39s-.18-.18-.31-.24c-.13-.05-.29-.08-.47-.08h-.76v2.31h.41v-.92h.43c.14,0,.24.03.3.09.06.06.09.16.09.29v.15s0,.1,0,.19.01.15.03.2h.42v-.04s-.03-.09-.04-.15c0-.06,0-.12,0-.19ZM71.85,43.1h-.37v-.67h.35c.12,0,.21.01.28.03s.12.06.15.11c.03.05.04.12.04.21,0,.07-.02.13-.06.17-.04.05-.1.08-.17.1-.07.02-.15.04-.23.04Z"/>
      <path d="M73.23,41.81c-.18-.18-.38-.33-.61-.43-.23-.1-.48-.15-.75-.15s-.52.05-.75.15c-.23.1-.44.25-.62.43-.18.18-.32.4-.42.65-.1.25-.15.51-.15.8s.05.56.15.8c.1.25.24.46.42.65.18.19.38.33.62.43.23.1.48.16.75.16s.52-.05.75-.16c.23-.1.44-.25.61-.43.18-.18.32-.4.41-.65.1-.25.15-.51.15-.8s-.05-.56-.15-.8c-.1-.25-.24-.46-.41-.65ZM73.34,43.92c-.08.21-.2.39-.35.54-.15.15-.32.27-.51.36-.19.09-.4.13-.62.13s-.43-.04-.62-.13-.36-.21-.51-.36c-.15-.15-.26-.33-.34-.54-.08-.21-.12-.43-.12-.67s.04-.46.12-.67c.08-.21.2-.39.34-.54s.32-.27.51-.36c.19-.09.4-.13.62-.13s.43.04.62.13c.19.09.36.2.51.36.15.15.26.33.35.54.08.21.13.43.13.67s-.04.46-.13.67Z"/>
      <polygon points="78.33 41.63 76.96 41.63 76.96 48.42 77.91 48.42 78.33 48.42 80.73 48.42 80.73 47.29 78.33 47.29 78.33 41.63"/>
      <polygon points="82.99 45.48 85.12 45.48 85.12 44.38 82.99 44.38 82.99 42.76 85.51 42.76 85.51 41.63 82.99 41.63 82.57 41.63 81.62 41.63 81.62 48.42 82.57 48.42 82.99 48.42 85.52 48.42 85.52 47.29 82.99 47.29 82.99 45.48"/>
      <path d="M88.68,45.88h.98v1.25s-.09.05-.15.09c-.06.04-.14.08-.24.11-.1.03-.23.05-.4.05-.21,0-.38-.03-.53-.1-.15-.06-.28-.17-.37-.31-.1-.14-.17-.33-.22-.56-.05-.23-.07-.5-.07-.82v-1.17c0-.32.02-.6.07-.82.04-.22.11-.41.2-.55.09-.14.2-.25.34-.31.13-.06.29-.1.47-.1.21,0,.38.03.51.11.13.07.23.19.31.35.07.16.12.39.14.67h1.32c-.03-.49-.14-.9-.31-1.24-.17-.34-.42-.59-.75-.76-.33-.17-.75-.26-1.26-.26-.37,0-.7.06-1,.18-.29.12-.55.3-.76.54-.21.24-.37.55-.48.91-.11.37-.17.79-.17,1.29v1.16c0,.5.06.93.17,1.29.12.36.28.66.5.91.22.24.48.42.79.54.31.12.65.18,1.02.18.43,0,.79-.05,1.09-.15.3-.1.54-.22.72-.35.19-.14.33-.25.42-.36v-2.8h-2.34v1.03Z"/>
      <path d="M96.18,42.28c-.22-.25-.48-.43-.77-.56-.3-.13-.63-.19-.99-.19s-.7.06-.99.19c-.3.13-.56.31-.77.56-.22.25-.38.56-.5.92s-.17.8-.17,1.29v1.13c0,.48.06.9.18,1.26.12.36.29.66.5.9.22.24.47.42.77.54.3.12.63.18,1,.18s.7-.06,1-.18c.3-.12.56-.3.77-.54.21-.24.38-.54.49-.9s.18-.78.18-1.26v-1.13c0-.49-.06-.92-.18-1.29s-.28-.68-.5-.92ZM95.5,45.63c0,.31-.02.58-.07.8-.05.22-.12.4-.21.54-.09.14-.2.24-.34.31-.14.07-.29.1-.46.1s-.33-.03-.47-.1c-.14-.07-.25-.17-.34-.31-.09-.14-.16-.32-.21-.54-.05-.22-.07-.49-.07-.8v-1.14c0-.32.02-.6.07-.83.05-.23.11-.42.21-.56.09-.15.21-.25.34-.32.14-.07.29-.1.47-.1s.33.03.47.1c.13.07.25.18.34.32s.16.33.21.56c.05.23.07.5.07.83v1.14Z"/>
      <path d="M100.39,43.99v-.15c0-.19-.05-.35-.16-.48-.03-.04-.08-.08-.13-.11,0,0,.02-.01.03-.02.09-.05.16-.12.2-.2.05-.08.07-.16.07-.26,0-.16-.04-.29-.11-.39-.07-.11-.18-.18-.31-.24-.13-.05-.29-.08-.47-.08h-.76v2.31h.41v-.92h.43c.14,0,.24.03.3.09.06.06.09.16.09.29v.15s0,.1,0,.19c0,.09.01.15.03.2h.42v-.04s-.03-.09-.04-.15c0-.06,0-.12,0-.19ZM99.53,43.1h-.37v-.67h.35c.12,0,.21.01.28.03.07.02.12.06.15.11.03.05.04.12.04.21,0,.07-.02.13-.06.17-.04.05-.1.08-.17.1-.07.02-.15.04-.23.04Z"/>
      <path d="M100.92,41.81c-.18-.18-.38-.33-.61-.43-.23-.1-.48-.15-.75-.15s-.52.05-.75.15c-.23.1-.44.25-.62.43-.18.18-.32.4-.42.65-.1.25-.15.51-.15.8s.05.56.15.8c.1.25.24.46.42.65.18.19.38.33.62.43.23.1.48.16.75.16s.52-.05.75-.16c.23-.1.44-.25.61-.43.18-.18.32-.4.41-.65.1-.25.15-.51.15-.8s-.05-.56-.15-.8c-.1-.25-.24-.46-.41-.65ZM101.03,43.92c-.08.21-.2.39-.35.54-.15.15-.32.27-.51.36s-.4.13-.62.13-.43-.04-.62-.13c-.19-.09-.36-.21-.51-.36-.15-.15-.26-.33-.34-.54-.08-.21-.12-.43-.12-.67s.04-.46.12-.67c.08-.21.2-.39.34-.54.15-.15.32-.27.51-.36.19-.09.4-.13.62-.13s.43.04.62.13c.19.09.36.2.51.36s.26.33.35.54c.08.21.13.43.13.67s-.04.46-.13.67Z"/>
      <polygon points="106.01 41.63 104.65 41.63 104.65 48.42 105.59 48.42 106.01 48.42 108.42 48.42 108.42 47.29 106.01 47.29 106.01 41.63"/>
      <polygon points="110.67 45.48 112.81 45.48 112.81 44.38 110.67 44.38 110.67 42.76 113.19 42.76 113.19 41.63 110.67 41.63 110.25 41.63 109.31 41.63 109.31 48.42 110.25 48.42 110.67 48.42 113.2 48.42 113.2 47.29 110.67 47.29 110.67 45.48"/>
      <path d="M116.66,41.63h-.9l-2.12,6.79h1.44l.37-1.4h1.88l.37,1.4h1.45l-2.14-6.79h-.34ZM115.74,45.89l.64-2.44.64,2.44h-1.28Z"/>
      <path d="M122.06,45.88h.98v1.25s-.09.05-.15.09c-.06.04-.14.08-.24.11-.1.03-.23.05-.4.05-.21,0-.38-.03-.53-.1-.15-.06-.28-.17-.37-.31-.1-.14-.17-.33-.22-.56-.05-.23-.07-.5-.07-.82v-1.17c0-.32.02-.6.07-.82.04-.22.11-.41.2-.55.09-.14.2-.25.34-.31.13-.06.29-.1.47-.1.21,0,.38.03.51.11.13.07.23.19.31.35.07.16.12.39.14.67h1.32c-.03-.49-.14-.9-.31-1.24-.17-.34-.42-.59-.75-.76-.33-.17-.75-.26-1.26-.26-.37,0-.7.06-1,.18-.29.12-.55.3-.76.54-.21.24-.37.55-.48.91-.11.37-.17.79-.17,1.29v1.16c0,.5.06.93.17,1.29.12.36.28.66.5.91.22.24.48.42.79.54.31.12.65.18,1.02.18.43,0,.79-.05,1.09-.15.3-.1.54-.22.72-.35.19-.14.33-.25.42-.36v-2.8h-2.34v1.03Z"/>
      <path d="M128.51,46.29c0,.3-.03.52-.1.68-.07.16-.16.27-.29.32-.13.06-.29.09-.48.09s-.35-.03-.48-.09c-.13-.06-.23-.17-.29-.32-.07-.16-.1-.39-.1-.68v-4.67h-1.36v4.67c0,.52.09.95.28,1.28.19.33.45.57.79.72.34.15.73.23,1.16.23s.82-.08,1.15-.23c.34-.15.6-.39.79-.72.19-.33.29-.75.29-1.28v-4.67h-1.36v4.67Z"/>
      <polygon points="132.37 47.29 132.37 45.48 134.5 45.48 134.5 44.38 132.37 44.38 132.37 42.76 134.89 42.76 134.89 41.63 132.37 41.63 131.94 41.63 131 41.63 131 48.42 131.94 48.42 132.37 48.42 134.9 48.42 134.9 47.29 132.37 47.29"/>
    </g>
  </g>
</svg>