<?xml version="1.0" encoding="UTF-8"?>
<svg id="Layer_2" data-name="Layer 2" xmlns="http://www.w3.org/2000/svg" viewBox="0 0 32.8 17.42">
  <defs>
    <style>
      .cls-1 {
        fill: #e52521;
      }
    </style>
  </defs>
  <g id="Capa_1" data-name="Capa 1">
    <path class="cls-1" d="M22.98,10.66L19.98,0h-6.75v2.86C12.34,1.15,10.22.13,7.27.13,3.77.13.67,1.75.52,5.61h4.46c.15-1.19,1-1.77,2.17-1.77.97,0,1.94.4,1.94,1.5,0,1.55-1.62,1.7-2.94,1.7v2.91c1.19,0,3.07.17,3.07,1.84,0,.97-.77,1.94-2.2,1.94-1.54,0-2.37-.94-2.37-2.47H0c0,4.09,2.86,6.16,6.75,6.16,3.02,0,5.31-.92,6.5-2.71v2.35h5.03v-5.78c0-1.37-.18-3.67-.35-5.18h.05l3.11,10.94h3.89l3.11-10.94h.05c-.22,1.95-.35,3.82-.35,5.73v5.23h5.03V.02h-6.75l-3.07,10.64ZM13.21,9.12c-.38-.43-.89-.78-1.5-1.02.7-.33,1.17-.8,1.5-1.37v2.39Z"/>
  </g>
</svg>