<?xml version="1.0" encoding="UTF-8"?>
<svg id="Layer_2" data-name="Layer 2" xmlns="http://www.w3.org/2000/svg" xmlns:xlink="http://www.w3.org/1999/xlink" viewBox="0 0 503.68 282.89">
  <defs>
    <style>
      .cls-1 {
        fill: #004852;
      }

      .cls-2 {
        fill: #405055;
      }

      .cls-3 {
        fill: #e41683;
      }

      .cls-4 {
        fill: #867e6e;
      }

      .cls-5 {
        fill: #322e47;
      }

      .cls-6 {
        fill: #010101;
      }

      .cls-7 {
        fill: #b0b920;
      }

      .cls-8 {
        fill: #ffd108;
      }

      .cls-9 {
        fill: #70706f;
      }

      .cls-10 {
        fill: #00a5d6;
      }

      .cls-11 {
        fill: #ed881c;
      }

      .cls-12 {
        fill: #00abc8;
      }

      .cls-13 {
        fill: #e7004c;
      }

      .cls-14 {
        fill: #242422;
      }

      .cls-15 {
        fill: #a3c617;
      }

      .cls-16 {
        fill: url(#Degradado_sin_nombre_14);
      }

      .cls-17 {
        fill: none;
        stroke: #706f6f;
        stroke-miterlimit: 10;
        stroke-width: .64px;
      }

      .cls-18 {
        fill: #e52521;
      }

      .cls-19 {
        fill: #ff8300;
      }

      .cls-20 {
        fill: #809fb4;
      }
    </style>
    <linearGradient id="Degradado_sin_nombre_14" data-name="Degradado sin nombre 14" x1="-3653.61" y1="-1149.06" x2="-3653.46" y2="-1149.06" gradientTransform="translate(743591.58 -233652.1) scale(203.52 -203.52)" gradientUnits="userSpaceOnUse">
      <stop offset="0" stop-color="#f9af0a"/>
      <stop offset=".02" stop-color="#f9af0a"/>
      <stop offset=".1" stop-color="#f7a40a"/>
      <stop offset=".26" stop-color="#f08225"/>
      <stop offset=".47" stop-color="#ea5451"/>
      <stop offset=".73" stop-color="#e61281"/>
      <stop offset=".77" stop-color="#e41683"/>
      <stop offset="1" stop-color="#e41683"/>
    </linearGradient>
  </defs>
  <g id="Capa_1" data-name="Capa 1">
    <g>
      <g>
        <g>
          <path class="cls-10" d="M83.9,59.53c.74-.7,1.09-1.61,1.09-2.78v-2.25c0-1.17-.35-2.07-1.07-2.76l-.04-.04c-.75-.68-1.77-1.03-3.01-1.03h-20.94v21.2h20.94c1.25,0,2.27-.35,3.03-1.05.73-.69,1.09-1.6,1.09-2.78v-2.26c0-1.17-.36-2.08-1.09-2.77-.31-.28-.66-.5-1.04-.67l-2.46-1.08,2.46-1.06c.39-.17.74-.39,1.04-.67ZM80.78,63.51c.64.53.97,1.39.97,2.56s-.32,2.02-.94,2.56c-.59.48-1.34.72-2.21.72h-15.42v-6.55h15.42c.86,0,1.6.24,2.19.71ZM80.81,58.97l-.03.03c-.58.47-1.3.7-2.19.7h-15.42v-6.56h15.42c.87,0,1.61.24,2.19.71.44.36.97,1.1.97,2.57,0,1.16-.31,2.02-.93,2.56Z"/>
          <path class="cls-10" d="M27.47,59.64c.8-.82,1.2-1.88,1.2-3.26v-5.54c0-1.37-.4-2.44-1.22-3.26-.81-.81-1.94-1.22-3.34-1.22H.49v25.59h3.23v-11.08h14.07l5.55,11.08h4.67l-5.58-10.96,2.11-.13c1.23-.08,2.19-.47,2.94-1.22ZM24.28,56.59c-.71.56-1.6.84-2.65.84H3.71v-7.64h17.91c1.06,0,1.95.28,2.65.83.78.62,1.17,1.63,1.17,2.98s-.39,2.36-1.17,2.98Z"/>
          <path class="cls-10" d="M56.8,66.32c0,3.71-3.18,5.56-9.55,5.56h-5.96c-6.32,0-9.48-1.84-9.48-5.53v-10.19c0-3.67,3.16-5.5,9.48-5.5h5.96c6.36,0,9.55,1.83,9.55,5.5v10.15ZM53.59,56.35c0-2.14-1.76-3.22-5.27-3.22h-7.71c-3.72,0-5.58,1.07-5.58,3.22v9.94c0,2.04,1.86,3.06,5.58,3.06h7.52c3.64,0,5.46-1.02,5.46-3.06v-9.94Z"/>
          <polygon class="cls-10" points="127.06 71.88 130.38 71.88 130.38 53.13 141.22 53.13 141.22 50.66 116.22 50.66 116.22 53.13 127.06 53.13 127.06 71.88"/>
          <g>
            <path class="cls-15" d="M181.79,65.72c-1.79,0-3.25,1.39-3.25,3.1s1.46,3.1,3.25,3.1,3.25-1.39,3.25-3.1-1.46-3.1-3.25-3.1M181.79,71.53c-1.57,0-2.84-1.22-2.84-2.72s1.27-2.71,2.84-2.71,2.85,1.21,2.85,2.71-1.28,2.72-2.85,2.72"/>
            <path class="cls-15" d="M182.36,68.97c.25-.04.45-.14.59-.29h0c.17-.19.26-.41.26-.66,0-.33-.12-.58-.35-.75-.22-.16-.53-.24-.91-.24h-1.19v3.58h.55v-1.58h.45l.98,1.58h.66l-1.04-1.63ZM181.86,68.62h-.65v-1.19h.65c.16,0,.29.02.4.04.11.03.21.06.27.13.06.06.11.12.15.19.03.08.05.14.05.22,0,.09-.02.17-.05.23-.03.08-.08.14-.15.19-.07.06-.16.1-.27.13-.11.04-.25.05-.4.05"/>
          </g>
          <path class="cls-15" d="M147.49,50.66v21.21h-3.21v-21.21h3.21Z"/>
          <polygon class="cls-15" points="170.64 71.92 175.62 71.92 165.62 61.3 175.62 50.71 170.64 50.71 163.14 58.69 155.61 50.71 150.63 50.71 160.63 61.3 150.63 71.92 155.61 71.92 163.14 63.95 170.64 71.92"/>
          <path class="cls-10" d="M95.49,64.78c.54.25,1.07.46,1.57.63.5.18,1.01.32,1.52.42.51.1,1.03.16,1.56.17.53.01,1.1-.02,1.71-.11s1.16-.2,1.65-.36c.5-.15.97-.34,1.42-.57.45-.22.88-.49,1.31-.79.43-.3.87-.64,1.34-1.02l.7.7c-.83.79-1.78,1.45-2.86,1.97-1.08.52-2.22.87-3.41,1.03-1.13.16-2.3.14-3.49-.07-1.2-.2-2.32-.59-3.38-1.17l.39-.85Z"/>
          <ellipse class="cls-15" cx="105.62" cy="59.21" rx="1.81" ry="1.79"/>
          <ellipse class="cls-15" cx="96.08" cy="59.21" rx="1.81" ry="1.79"/>
          <path class="cls-10" d="M114.38,56.34h-.6v-.22c0-3.67-3.2-5.51-9.6-5.51h-2.18c-.03-.93-.15-2.73-.6-3.77,0,0,0,0,0,0,.37-.27.61-.7.61-1.18,0-.83-.7-1.5-1.57-1.5s-1.57.67-1.57,1.5.7,1.5,1.57,1.5c.04,0,.08,0,.12-.01h0s.51,1.36.52,3.47h-2.9c-6.36,0-9.54,1.84-9.54,5.51v.22h-.54c-.24,0-.43.19-.43.42v4.41c0,.23.2.42.43.42h.54v4.75c0,3.7,3.18,5.54,9.54,5.54h6c6.4,0,9.6-1.86,9.6-5.57v-4.71h.6c.24,0,.43-.19.43-.42v-4.41c0-.23-.2-.42-.43-.42ZM110.73,66.41c0,2.06-1.86,3.09-5.59,3.09h-7.7c-3.81,0-5.72-1.03-5.72-3.09v-10.03c0-2.16,1.91-3.25,5.72-3.25h7.9c3.6,0,5.4,1.08,5.4,3.25v10.03Z"/>
          <path class="cls-15" d="M100.7,78.22c.19,0,.29.09.29.27v1.18c0,.18-.1.27-.29.27h-5.38c-.32,0-.59.03-.8.08-.21.05-.38.15-.5.27s-.21.3-.27.52c-.05.22-.08.49-.08.81v.25h6.96c.18,0,.27.09.27.27v.98c0,.18-.09.27-.27.27h-6.96v3.22c0,.18-.09.27-.27.27h-1.34c-.19,0-.29-.09-.29-.27v-5.13c0-.6.06-1.1.19-1.51.13-.41.33-.75.61-1.01.28-.26.63-.45,1.07-.57s.97-.18,1.6-.18h5.45Z"/>
          <path class="cls-15" d="M172.91,80.64c.51,0,.94.04,1.29.13.35.09.63.22.84.41s.36.43.45.72.14.64.14,1.06v3.7c0,.17-.08.25-.25.25h-1.12c-.17,0-.25-.08-.25-.25v-3.31c0-.24-.02-.44-.05-.6-.03-.16-.09-.29-.18-.39s-.21-.16-.36-.21c-.15-.04-.35-.06-.59-.06h-3.03c-.24,0-.44.02-.6.06-.16.04-.29.11-.38.21s-.16.22-.2.39c-.04.16-.06.36-.06.6v3.31c0,.17-.08.25-.25.25h-1.12c-.18,0-.26-.08-.26-.25v-3.7c0-.41.05-.76.14-1.06.09-.29.24-.53.45-.72.21-.19.49-.32.83-.41.35-.09.78-.13,1.29-.13h3.27Z"/>
          <g>
            <path class="cls-15" d="M103.92,80.62c.17,0,.25.09.25.26v3.3c0,.24.02.44.05.6.03.16.09.29.17.38s.2.16.35.21c.15.04.35.06.6.06h2.93c.25,0,.46-.02.62-.06.16-.04.29-.11.38-.21.09-.1.16-.22.2-.38.04-.16.06-.36.06-.6v-3.3c0-.18.08-.26.25-.26h1.12c.17,0,.25.09.25.26v3.7c0,.41-.05.76-.14,1.06-.09.29-.24.53-.45.72s-.49.32-.84.4c-.35.08-.78.13-1.29.13h-3.18c-.52,0-.95-.04-1.29-.13-.35-.08-.62-.22-.83-.4-.21-.19-.36-.43-.45-.72-.09-.29-.14-.64-.14-1.06v-3.7c0-.18.09-.26.26-.26h1.12Z"/>
            <path class="cls-15" d="M118.95,80.61c.51,0,.94.04,1.29.13.35.09.63.22.84.41s.36.43.45.72c.09.29.14.64.14,1.06v3.7c0,.17-.08.25-.25.25h-1.12c-.17,0-.25-.08-.25-.25v-3.31c0-.24-.02-.44-.05-.6-.03-.16-.09-.29-.18-.39s-.21-.16-.36-.21c-.15-.04-.35-.06-.59-.06h-3.03c-.24,0-.44.02-.6.06-.16.04-.29.11-.38.21s-.16.22-.2.39c-.04.16-.06.36-.06.6v3.31c0,.17-.08.25-.25.25h-1.12c-.18,0-.26-.08-.26-.25v-3.7c0-.41.05-.76.14-1.06.09-.29.24-.53.45-.72s.49-.32.83-.41c.35-.09.78-.13,1.29-.13h3.27Z"/>
            <path class="cls-15" d="M130.48,80.61v-2.04c0-.17.08-.25.25-.25h1.12c.17,0,.25.08.25.25v6c0,.41-.05.76-.14,1.06s-.24.53-.45.72c-.21.19-.49.32-.84.4-.35.08-.78.13-1.29.13h-3.19c-.52,0-.95-.04-1.29-.13-.35-.08-.62-.22-.83-.4-.21-.19-.36-.43-.45-.72s-.14-.64-.14-1.06v-1.64c0-.41.05-.76.14-1.06s.24-.53.45-.72c.21-.19.49-.32.83-.41.35-.09.78-.13,1.29-.13h4.29ZM129.22,85.5c.25,0,.46-.02.62-.06.16-.04.29-.11.38-.2.09-.1.16-.22.2-.38s.06-.36.06-.6v-2.27h-4.13c-.24,0-.44.02-.6.06-.16.04-.29.11-.38.21-.1.1-.16.22-.2.39-.04.16-.06.36-.06.6v1.02c0,.24.02.44.06.6.04.16.1.29.2.38.09.1.22.16.38.2.16.04.36.06.6.06h2.87Z"/>
            <path class="cls-15" d="M139.22,80.61c.51,0,.94.04,1.29.13.35.09.63.22.84.41s.36.43.45.72c.09.29.14.64.14,1.06v3.03c0,.18-.01.33-.04.45-.03.12-.07.21-.14.28-.06.07-.15.12-.26.14-.11.03-.24.04-.41.04h-5.43c-.33,0-.61-.03-.84-.1s-.4-.16-.54-.29c-.14-.13-.23-.3-.29-.5-.06-.21-.09-.45-.09-.73v-.55c0-.24.03-.45.09-.63.06-.19.15-.34.29-.47.14-.13.32-.23.54-.29s.5-.1.84-.1h4.64v-.22c0-.18-.02-.34-.06-.47-.04-.13-.1-.23-.19-.31s-.22-.14-.38-.18c-.16-.04-.37-.06-.62-.06h-4.77c-.14,0-.21-.07-.21-.21v-.96c0-.14.07-.2.21-.2h4.93ZM139.98,85.62c.12,0,.21-.03.26-.08.05-.06.07-.16.07-.3v-1h-4.18c-.24,0-.4.05-.5.14-.1.1-.14.23-.14.42v.24c0,.21.05.36.14.45.09.1.26.14.5.14h3.84Z"/>
            <path class="cls-15" d="M151.05,80.62c.14,0,.21.07.21.2v.96c0,.14-.07.21-.21.21h-4.43c-.25,0-.46.02-.62.06s-.29.11-.38.21-.16.22-.19.39c-.04.16-.06.36-.06.6v1.02c0,.24.02.44.06.6s.1.29.19.38.22.16.38.2c.16.04.37.06.62.06h4.43c.14,0,.21.07.21.21v.96c0,.14-.07.21-.21.21h-4.59c-.52,0-.95-.04-1.29-.13-.35-.08-.62-.22-.83-.4s-.36-.43-.45-.72c-.09-.29-.14-.64-.14-1.06v-1.64c0-.41.05-.76.14-1.06.09-.29.24-.53.45-.72s.49-.32.83-.41c.35-.09.78-.13,1.29-.13h4.59Z"/>
            <path class="cls-15" d="M154.44,78.31c.17,0,.25.08.25.25v1.08c0,.18-.08.26-.25.26h-1.12c-.18,0-.26-.09-.26-.26v-1.08c0-.17.09-.25.26-.25h1.12ZM154.44,80.62c.17,0,.25.09.25.26v5.75c0,.17-.08.25-.25.25h-1.12c-.17,0-.25-.08-.25-.25v-5.75c0-.18.08-.26.25-.26h1.12Z"/>
            <path class="cls-15" d="M162.45,80.59c.51,0,.94.04,1.29.13.35.09.63.22.84.41s.36.43.45.72c.09.29.14.64.14,1.06v1.64c0,.41-.05.76-.14,1.06-.09.29-.24.53-.45.72-.21.19-.49.32-.84.4-.35.08-.78.13-1.29.13h-3.23c-.52,0-.95-.04-1.29-.13-.35-.08-.62-.22-.83-.4-.21-.19-.36-.43-.45-.72s-.14-.64-.14-1.06v-1.64c0-.41.05-.76.14-1.06s.24-.53.45-.72c.21-.19.49-.32.83-.41.35-.09.78-.13,1.29-.13h3.23ZM158.13,84.26c0,.24.02.44.06.6.04.16.1.29.2.38.09.1.22.16.38.2.16.04.36.06.6.06h2.91c.25,0,.46-.02.62-.06.16-.04.29-.11.38-.2.09-.1.16-.22.2-.38.04-.16.06-.36.06-.6v-1.08c0-.24-.02-.43-.06-.59-.04-.16-.1-.29-.2-.39-.1-.1-.22-.17-.38-.21-.16-.04-.36-.06-.62-.06h-2.91c-.24,0-.44.02-.6.06-.16.04-.29.11-.38.21-.1.1-.16.23-.2.39-.04.16-.06.36-.06.59v1.08ZM162.47,78.22c.06,0,.11.02.14.05.03.03.03.08,0,.14l-.87,1.56c-.03.06-.07.11-.11.14-.04.03-.09.05-.15.05h-.64c-.06,0-.11-.02-.14-.05-.03-.03-.03-.08,0-.14l.77-1.56c.06-.13.15-.19.26-.19h.74Z"/>
          </g>
        </g>
        <g>
          <path class="cls-9" d="M0,4.9c0-.68.11-1.31.34-1.87.23-.56.54-1.04.94-1.43.4-.39.87-.7,1.43-.91.55-.21,1.16-.32,1.82-.32.67,0,1.28.09,1.84.3.56.21,1.04.51,1.44.9.4.4.72.87.94,1.43.23.56.34,1.18.34,1.86s-.11,1.28-.34,1.83c-.23.55-.54,1.02-.94,1.42-.4.39-.88.7-1.44.92s-1.17.34-1.84.34c-.66,0-1.27-.11-1.82-.32-.55-.21-1.03-.52-1.43-.91-.4-.39-.71-.86-.94-1.41-.23-.55-.34-1.16-.34-1.83ZM1.6,4.8c0,.46.07.88.21,1.27s.34.72.6,1c.26.28.57.5.92.67.36.16.76.24,1.2.24s.85-.08,1.21-.24.67-.38.93-.67c.26-.28.46-.62.6-1s.21-.81.21-1.27c0-.43-.07-.83-.21-1.2-.14-.37-.34-.7-.6-.97-.26-.28-.57-.5-.93-.65s-.77-.24-1.21-.24-.84.08-1.2.24c-.36.16-.67.38-.92.65-.26.28-.46.6-.6.97-.14.37-.21.77-.21,1.2Z"/>
          <path class="cls-9" d="M10.4,3.34h1.45v.92h.02c.16-.34.39-.6.69-.79.3-.18.64-.28,1.03-.28.09,0,.18,0,.26.02.08.02.17.04.26.06v1.4c-.12-.03-.24-.06-.36-.08s-.23-.03-.34-.03c-.34,0-.61.06-.82.19s-.36.27-.47.43c-.11.16-.18.32-.22.48-.04.16-.05.28-.05.36v3.11h-1.45V3.34Z"/>
          <path class="cls-9" d="M20.86,3.34v5.28c0,.52-.06,1-.19,1.42-.13.42-.33.78-.6,1.08s-.61.52-1.02.68-.9.24-1.46.24-1.05-.07-1.54-.21c-.48-.14-.93-.39-1.34-.75l.87-1.18c.29.27.59.47.91.62.31.15.68.22,1.09.22.35,0,.64-.05.88-.14s.43-.23.57-.4.24-.37.3-.61c.06-.24.09-.5.09-.79v-.42h-.02c-.21.28-.49.49-.83.63-.35.14-.7.21-1.06.21-.44,0-.83-.08-1.19-.24-.35-.16-.66-.37-.91-.63-.25-.27-.45-.58-.59-.94-.14-.36-.21-.75-.21-1.16s.06-.83.19-1.2c.13-.37.32-.69.57-.97.25-.27.55-.49.9-.65s.75-.24,1.2-.24c.41,0,.79.08,1.15.24.35.16.64.42.85.77h.02v-.87h1.38ZM17.76,4.5c-.26,0-.49.04-.7.13-.21.08-.39.2-.54.35-.15.15-.27.33-.35.54s-.13.45-.13.71c0,.23.04.45.13.65s.2.38.36.53c.15.15.33.27.54.36.21.09.44.13.68.13.27,0,.51-.04.72-.13.21-.09.39-.21.54-.36.15-.15.26-.33.34-.54.08-.21.12-.44.12-.68,0-.51-.15-.92-.46-1.23s-.73-.47-1.26-.47Z"/>
          <path class="cls-9" d="M26.13,8.34h-.04c-.21.33-.48.57-.8.72-.32.15-.68.22-1.06.22-.27,0-.53-.04-.78-.11s-.48-.18-.68-.33c-.2-.15-.36-.33-.48-.54-.12-.22-.18-.47-.18-.76,0-.31.06-.58.17-.8.11-.22.26-.41.45-.56.19-.15.41-.27.66-.36s.51-.16.78-.2c.27-.04.54-.07.82-.08.27-.01.53-.02.77-.02h.36v-.16c0-.36-.12-.63-.37-.82-.25-.18-.57-.27-.96-.27-.31,0-.59.05-.86.16-.27.11-.5.26-.69.44l-.76-.76c.32-.33.7-.57,1.13-.71.43-.14.88-.22,1.34-.22.41,0,.76.05,1.04.14s.52.21.7.36c.19.15.33.31.43.5s.17.38.22.57c.04.19.07.38.08.56,0,.18.01.34.01.48v3.34h-1.31v-.8ZM26.04,6.54h-.3c-.2,0-.43,0-.68.02s-.49.05-.71.12c-.22.06-.41.15-.56.27-.15.12-.23.28-.23.49,0,.14.03.25.09.34.06.09.14.17.24.24s.21.11.33.14.24.04.36.04c.5,0,.87-.12,1.11-.36.24-.24.36-.56.36-.97v-.33Z"/>
          <path class="cls-9" d="M28.99,3.34h1.38v.93h.02c.14-.29.35-.54.63-.76.28-.21.67-.32,1.15-.32.39,0,.72.06.99.19s.49.3.66.51c.17.21.29.45.36.73.07.27.11.56.11.86v3.66h-1.45v-2.94c0-.16,0-.34-.02-.54-.02-.2-.06-.38-.13-.56-.07-.17-.18-.32-.32-.44-.15-.12-.34-.17-.59-.17s-.45.04-.61.12c-.17.08-.3.19-.41.33-.11.14-.19.29-.24.47-.05.18-.07.36-.07.56v3.17h-1.45V3.34Z"/>
          <path class="cls-9" d="M35.75,1.37c0-.23.09-.44.26-.61.17-.17.39-.26.66-.26s.49.08.67.25c.18.17.27.37.27.62s-.09.46-.27.62c-.18.17-.41.25-.67.25s-.49-.09-.66-.26c-.17-.17-.26-.38-.26-.61ZM35.96,3.34h1.45v5.8h-1.45V3.34Z"/>
          <path class="cls-9" d="M38.67,7.8l3.11-3.28v-.02h-2.96v-1.16h4.72v1.32l-3.14,3.32h3.29v1.16h-5.01v-1.34Z"/>
          <path class="cls-9" d="M46.07,6.75c.05.43.22.77.51,1.02.29.24.64.36,1.05.36.36,0,.67-.07.91-.22.25-.15.46-.34.65-.56l1.04.79c-.34.42-.72.72-1.14.89-.42.18-.86.27-1.32.27-.44,0-.85-.07-1.23-.22-.39-.15-.72-.35-1-.62-.28-.27-.51-.59-.67-.96s-.25-.79-.25-1.25.08-.88.25-1.25.39-.7.67-.96.62-.47,1-.62c.39-.14.8-.22,1.23-.22.4,0,.77.07,1.11.21.33.14.62.34.86.61.24.27.42.59.56.99.13.39.2.84.2,1.35v.4h-4.43ZM49.04,5.66c0-.43-.14-.76-.4-1.01-.26-.25-.62-.37-1.08-.37-.44,0-.78.12-1.03.38s-.41.58-.47,1h2.97Z"/>
          <path class="cls-9" d="M56.44,8.27h-.02c-.21.35-.49.61-.85.77-.35.16-.74.24-1.15.24-.45,0-.85-.08-1.2-.24s-.65-.37-.9-.65c-.25-.27-.44-.6-.57-.97-.13-.37-.19-.77-.19-1.2s.07-.83.21-1.2c.14-.37.33-.69.57-.97.25-.27.54-.49.89-.65.35-.16.73-.24,1.14-.24.27,0,.52.03.73.08.21.06.4.13.56.22s.3.18.41.28c.11.1.21.2.28.3h.04V0h1.45v9.14h-1.38v-.87ZM53.01,6.24c0,.23.04.44.11.65.08.21.19.4.34.56.15.16.33.29.54.39s.45.14.71.14.5-.05.71-.14.39-.23.54-.39c.15-.16.26-.35.34-.56.08-.21.12-.43.12-.65s-.04-.44-.12-.65c-.08-.21-.19-.39-.34-.56-.15-.16-.33-.29-.54-.39s-.45-.14-.71-.14-.5.05-.71.14-.39.23-.54.39c-.15.16-.26.35-.34.56-.08.21-.11.43-.11.65Z"/>
          <path class="cls-9" d="M63.04,0h1.45v4.07h.04c.07-.1.17-.2.28-.3s.25-.2.41-.28c.16-.09.35-.16.56-.22.21-.06.45-.08.73-.08.41,0,.79.08,1.14.24s.64.37.89.65c.25.27.44.6.57.97s.21.77.21,1.2-.06.83-.19,1.2c-.13.37-.32.69-.57.97-.25.27-.55.49-.91.65s-.75.24-1.2.24c-.41,0-.79-.08-1.15-.24-.35-.16-.64-.42-.85-.77h-.02v.87h-1.38V0ZM67.85,6.24c0-.23-.04-.44-.11-.65-.08-.21-.19-.39-.34-.56-.15-.16-.33-.29-.54-.39-.21-.1-.45-.14-.71-.14s-.5.05-.71.14c-.21.1-.39.23-.54.39-.15.16-.26.35-.34.56-.08.21-.11.43-.11.65s.04.44.11.65c.08.21.19.4.34.56.15.16.33.29.54.39.21.1.45.14.71.14s.5-.05.71-.14c.21-.1.39-.23.54-.39.15-.16.26-.35.34-.56.08-.21.11-.43.11-.65Z"/>
          <path class="cls-9" d="M69.87,3.34h1.6l1.62,4.03h.02l1.45-4.03h1.51l-2.74,7.05c-.1.27-.22.51-.34.72-.12.21-.27.38-.44.52-.17.14-.37.25-.6.31-.23.07-.51.1-.83.1-.38,0-.75-.05-1.11-.14l.18-1.31c.11.04.23.07.36.1.12.03.25.04.38.04.18,0,.33-.02.45-.05.12-.03.22-.08.31-.15s.16-.16.21-.27c.06-.11.12-.24.18-.39l.28-.69-2.48-5.85Z"/>
        </g>
        <g>
          <path class="cls-9" d="M305.88.58h1.52v8.56h-1.52V.58Z"/>
          <path class="cls-9" d="M309.15,3.34h1.38v.93h.02c.14-.29.35-.54.63-.76s.67-.32,1.15-.32c.39,0,.71.06.99.19s.49.3.66.51c.17.21.29.45.36.73.07.27.11.56.11.86v3.66h-1.45v-2.94c0-.16,0-.34-.02-.54-.02-.2-.06-.38-.13-.56-.07-.17-.17-.32-.32-.44-.14-.12-.34-.17-.59-.17s-.45.04-.61.12c-.17.08-.3.19-.41.33-.11.14-.19.29-.24.47-.05.18-.07.36-.07.56v3.17h-1.45V3.34Z"/>
          <path class="cls-9" d="M319.67,3.34h1.38v.87h.02c.21-.35.49-.61.85-.77.35-.16.74-.24,1.15-.24.44,0,.84.08,1.2.24.35.16.66.37.91.65.25.27.44.6.57.97s.19.77.19,1.2-.07.83-.21,1.2c-.14.37-.33.69-.57.97-.25.27-.54.49-.89.65-.35.16-.73.24-1.14.24-.27,0-.52-.03-.73-.08-.21-.06-.4-.13-.56-.22s-.3-.18-.41-.28c-.11-.1-.21-.2-.28-.3h-.04v3.49h-1.45V3.34ZM324.48,6.24c0-.23-.04-.44-.11-.65-.08-.21-.19-.39-.34-.56s-.33-.29-.54-.39c-.21-.1-.45-.14-.71-.14s-.5.05-.71.14c-.21.1-.39.23-.54.39-.15.16-.26.35-.34.56-.08.21-.12.43-.12.65s.04.44.12.65c.08.21.19.4.34.56.15.16.33.29.54.39.21.1.45.14.71.14s.5-.05.71-.14c.21-.1.39-.23.54-.39s.26-.35.34-.56c.08-.21.11-.43.11-.65Z"/>
          <path class="cls-9" d="M330.91,8.34h-.04c-.21.33-.48.57-.8.72-.32.15-.68.22-1.06.22-.27,0-.53-.04-.78-.11s-.48-.18-.68-.33c-.2-.15-.36-.33-.48-.54-.12-.22-.18-.47-.18-.76,0-.31.06-.58.17-.8.11-.22.26-.41.45-.56s.41-.27.66-.36.51-.16.78-.2c.27-.04.54-.07.82-.08.27-.01.53-.02.77-.02h.36v-.16c0-.36-.12-.63-.38-.82-.25-.18-.57-.27-.96-.27-.31,0-.59.05-.86.16-.27.11-.5.26-.69.44l-.76-.76c.32-.33.7-.57,1.13-.71.43-.14.88-.22,1.34-.22.41,0,.76.05,1.04.14s.52.21.7.36c.19.15.33.31.43.5.1.19.17.38.22.57.04.19.07.38.08.56s.01.34.01.48v3.34h-1.31v-.8ZM330.83,6.54h-.3c-.2,0-.43,0-.68.02-.25.02-.49.05-.71.12-.22.06-.41.15-.56.27-.15.12-.23.28-.23.49,0,.14.03.25.09.34s.14.17.24.24.21.11.33.14.24.04.36.04c.5,0,.87-.12,1.11-.36.24-.24.36-.56.36-.97v-.33Z"/>
          <path class="cls-9" d="M333.78,3.34h1.45v.92h.02c.16-.34.39-.6.69-.79.3-.18.64-.28,1.03-.28.09,0,.18,0,.26.02.08.02.17.04.26.06v1.4c-.12-.03-.24-.06-.36-.08-.12-.02-.23-.03-.34-.03-.34,0-.61.06-.82.19s-.36.27-.47.43c-.11.16-.18.32-.22.48s-.05.28-.05.36v3.11h-1.45V3.34Z"/>
          <path class="cls-9" d="M337.8,4.57v-1.23h1.2v-1.68h1.45v1.68h1.6v1.23h-1.6v2.54c0,.29.05.52.16.69.11.17.32.25.65.25.13,0,.27-.01.42-.04.15-.03.27-.07.36-.14v1.22c-.15.07-.34.12-.56.15-.22.03-.42.04-.59.04-.39,0-.7-.04-.95-.13-.25-.08-.44-.21-.58-.39-.14-.17-.24-.39-.29-.65-.05-.26-.08-.56-.08-.89v-2.66h-1.2Z"/>
          <path class="cls-9" d="M343.18,3.34h1.38v.93h.02c.14-.29.35-.54.63-.76s.67-.32,1.15-.32c.39,0,.71.06.99.19s.49.3.66.51c.17.21.29.45.36.73.07.27.11.56.11.86v3.66h-1.45v-2.94c0-.16,0-.34-.02-.54-.02-.2-.06-.38-.13-.56-.07-.17-.17-.32-.32-.44-.14-.12-.34-.17-.59-.17s-.45.04-.61.12c-.17.08-.3.19-.41.33-.11.14-.19.29-.24.47-.05.18-.07.36-.07.56v3.17h-1.45V3.34Z"/>
          <path class="cls-9" d="M351.28,6.75c.05.43.22.77.51,1.02.29.24.64.36,1.05.36.36,0,.67-.07.91-.22s.46-.34.65-.56l1.04.79c-.34.42-.72.72-1.14.89-.42.18-.86.27-1.32.27-.44,0-.85-.07-1.23-.22-.39-.15-.72-.35-1-.62-.28-.27-.51-.59-.67-.96-.17-.38-.25-.79-.25-1.25s.08-.88.25-1.25c.17-.38.39-.7.67-.96s.62-.47,1-.62c.39-.14.8-.22,1.23-.22.4,0,.77.07,1.11.21.33.14.62.34.86.61.24.27.42.59.56.99.13.39.2.84.2,1.35v.4h-4.43ZM354.26,5.66c0-.43-.14-.76-.4-1.01-.26-.25-.62-.37-1.08-.37s-.78.12-1.03.38-.41.58-.47,1h2.97Z"/>
          <path class="cls-9" d="M357.06,3.34h1.45v.92h.02c.16-.34.39-.6.69-.79.3-.18.64-.28,1.03-.28.09,0,.18,0,.26.02.08.02.17.04.26.06v1.4c-.12-.03-.24-.06-.36-.08-.12-.02-.23-.03-.34-.03-.34,0-.61.06-.82.19s-.36.27-.47.43c-.11.16-.18.32-.22.48s-.05.28-.05.36v3.11h-1.45V3.34Z"/>
          <path class="cls-9" d="M364.86,4.95c-.28-.39-.66-.59-1.14-.59-.19,0-.38.05-.57.15-.19.1-.28.25-.28.47,0,.18.08.31.23.39.15.08.35.15.58.21.23.06.49.12.76.18.27.06.52.15.76.28s.43.3.58.51.23.52.23.89c0,.35-.08.64-.22.88-.15.24-.34.43-.58.57-.24.14-.51.25-.8.31-.3.06-.6.1-.89.1-.45,0-.87-.07-1.25-.19-.38-.13-.72-.36-1.02-.7l.97-.91c.19.21.38.38.6.51.21.13.47.2.78.2.11,0,.21-.01.33-.04.11-.02.22-.06.31-.12.1-.06.17-.13.24-.21.06-.08.09-.18.09-.3,0-.2-.08-.35-.23-.45-.15-.1-.35-.17-.58-.24-.23-.06-.49-.12-.75-.17-.27-.05-.52-.14-.76-.25-.23-.12-.43-.28-.58-.49-.15-.21-.23-.5-.23-.87,0-.32.07-.6.2-.84.13-.24.31-.43.53-.59s.47-.27.75-.34.57-.11.86-.11c.39,0,.77.07,1.15.2s.68.36.92.68l-.97.87Z"/>
          <path class="cls-9" d="M368.58,4.15h.02c.11-.24.31-.46.6-.66s.66-.3,1.11-.3c.39,0,.71.06.99.19s.49.3.66.51c.17.21.29.45.36.73.07.27.11.56.11.86v3.66h-1.45v-2.94c0-.16,0-.34-.02-.54-.02-.2-.06-.38-.13-.56-.07-.17-.17-.32-.32-.44-.14-.12-.34-.17-.59-.17s-.45.04-.61.12c-.17.08-.3.19-.41.33-.11.14-.19.29-.24.47-.05.18-.07.36-.07.56v3.17h-1.45V0h1.45v4.15Z"/>
          <path class="cls-9" d="M373.89,1.37c0-.23.09-.44.26-.61.17-.17.39-.26.66-.26s.49.08.67.25c.18.17.27.37.27.62s-.09.46-.27.62c-.18.17-.4.25-.67.25s-.49-.09-.66-.26-.26-.38-.26-.61ZM374.1,3.34h1.45v5.8h-1.45V3.34Z"/>
          <path class="cls-9" d="M377.22,3.34h1.38v.87h.02c.21-.35.49-.61.85-.77.35-.16.74-.24,1.15-.24.44,0,.84.08,1.2.24.35.16.66.37.91.65.25.27.44.6.57.97s.19.77.19,1.2-.07.83-.21,1.2c-.14.37-.33.69-.57.97-.25.27-.54.49-.89.65-.35.16-.73.24-1.14.24-.27,0-.52-.03-.73-.08-.21-.06-.4-.13-.56-.22s-.3-.18-.41-.28c-.11-.1-.21-.2-.28-.3h-.04v3.49h-1.45V3.34ZM382.03,6.24c0-.23-.04-.44-.11-.65-.08-.21-.19-.39-.34-.56s-.33-.29-.54-.39c-.21-.1-.45-.14-.71-.14s-.5.05-.71.14c-.21.1-.39.23-.54.39-.15.16-.26.35-.34.56-.08.21-.12.43-.12.65s.04.44.12.65c.08.21.19.4.34.56.15.16.33.29.54.39.21.1.45.14.71.14s.5-.05.71-.14c.21-.1.39-.23.54-.39s.26-.35.34-.56c.08-.21.11-.43.11-.65Z"/>
          <path class="cls-9" d="M387.63,3.34h1.57l1.26,4.06h.02l1.17-4.06h1.57l1.26,4.06h.02l1.21-4.06h1.46l-1.97,5.8h-1.44l-1.38-3.97h-.02l-1.22,3.97h-1.5l-2.02-5.8Z"/>
          <path class="cls-9" d="M397.85,1.37c0-.23.09-.44.26-.61.17-.17.39-.26.66-.26s.49.08.67.25c.18.17.27.37.27.62s-.09.46-.27.62c-.18.17-.4.25-.67.25s-.49-.09-.66-.26-.26-.38-.26-.61ZM398.06,3.34h1.45v5.8h-1.45V3.34Z"/>
          <path class="cls-9" d="M400.5,4.57v-1.23h1.2v-1.68h1.45v1.68h1.6v1.23h-1.6v2.54c0,.29.05.52.16.69.11.17.32.25.65.25.13,0,.27-.01.42-.04.15-.03.27-.07.36-.14v1.22c-.15.07-.34.12-.56.15-.22.03-.42.04-.59.04-.39,0-.7-.04-.95-.13-.25-.08-.44-.21-.58-.39-.14-.17-.24-.39-.29-.65-.05-.26-.08-.56-.08-.89v-2.66h-1.2Z"/>
          <path class="cls-9" d="M407.35,4.15h.02c.11-.24.31-.46.6-.66s.66-.3,1.11-.3c.39,0,.71.06.99.19s.49.3.66.51c.17.21.29.45.36.73.07.27.11.56.11.86v3.66h-1.45v-2.94c0-.16,0-.34-.02-.54-.02-.2-.06-.38-.13-.56-.07-.17-.17-.32-.32-.44-.14-.12-.34-.17-.59-.17s-.45.04-.61.12c-.17.08-.3.19-.41.33-.11.14-.19.29-.24.47-.05.18-.07.36-.07.56v3.17h-1.45V0h1.45v4.15Z"/>
        </g>
        <g>
          <g>
            <g>
              <path class="cls-2" d="M490.36,48.72c0-4.83-3.93-8.76-8.76-8.76-3.07,0-5.9,1.6-7.49,4.21h-3.2l-1.24-.93c.64-.73,1.14-1.62,1.43-2.6l.73-.35.44-2.65-.95-.36c-.05-.23-.11-.45-.18-.67.13.01.27.02.4.02.03,0,.06,0,.09,0,2.2-.05,3.97-1.88,3.94-4.08,0-.38-.06-.75-.17-1.12-.15-.49-.36-.85-.44-.97l-.58.56c-.46.44-1.06.69-1.7.69-.58,0-1.15-.21-1.59-.58l-1.07-1.07c-.13-.13-.26-.26-.38-.39l-.14-.15c-.73-.76-1.72-1.17-2.77-1.17s-2,.4-2.73,1.13c-.73.73-1.13,1.7-1.13,2.73,0,.86.29,1.69.81,2.36-.8.68-1.33,1.62-1.55,2.73l-.95.36.44,2.65.66.31c.3,1.01.8,1.91,1.45,2.65l-1.18.92h-3.2c-1.59-2.61-4.42-4.21-7.49-4.21-4.83,0-8.76,3.93-8.76,8.76,0,2.79,1.34,5.43,3.59,7.08l6.08,5.02h0c.45.31.72.81.72,1.35,0,.9-.73,1.63-1.63,1.63s-1.63-.73-1.63-1.63c0-.41.15-.8.43-1.1l-.96-.88c-.5.54-.77,1.24-.77,1.98,0,1.61,1.31,2.93,2.93,2.93s2.93-1.31,2.93-2.93c0-.9-.42-1.75-1.12-2.3h0s-6.18-5.1-6.18-5.1l-.09.11.08-.11c-1.93-1.4-3.08-3.66-3.08-6.04,0-4.12,3.35-7.46,7.46-7.46,2.34,0,4.51,1.09,5.91,2.91h-2.09c-1.07-.9-2.41-1.39-3.82-1.39-3.28,0-5.95,2.67-5.95,5.95,0,1.83.83,3.54,2.27,4.68l6.36,4.94.25.2s.07.06.1.09c.03.03.06.05.09.08.03.03.06.06.1.09.03.03.06.06.09.09.03.03.06.06.09.1.03.03.06.06.09.09.03.03.06.07.08.1.03.03.05.06.08.1.03.03.05.07.08.1.03.03.05.07.08.1.02.04.05.07.07.11.02.04.05.07.07.11.02.04.04.07.06.11.02.04.04.07.06.11.02.04.04.08.06.11.02.04.04.07.06.11.02.04.04.08.05.12.02.04.03.08.05.11.02.04.03.08.05.12.01.04.03.08.04.11.01.04.03.08.04.13.01.04.03.08.04.12.01.04.02.09.03.13.01.04.02.08.03.12.01.05.02.09.03.14,0,.04.02.07.02.11,0,.05.01.1.02.15,0,.03.01.07.01.1,0,.05,0,.11.01.16,0,.03,0,.06,0,.09,0,.08,0,.17,0,.25,0,0,0,0,0,0,0,.67-.14,1.32-.42,1.93l-.02.05c-.77,1.63-2.4,2.67-4.21,2.67-2.56,0-4.65-2.09-4.65-4.65,0-1.11.39-2.18,1.11-3.02l-.99-.84c-.92,1.07-1.42,2.45-1.42,3.86,0,3.28,2.67,5.95,5.95,5.95,1.95,0,3.74-.95,4.84-2.49,2.26,3.28,6.01,5.27,10.03,5.27s7.76-1.99,10.02-5.27c1.1,1.54,2.89,2.49,4.84,2.49,3.28,0,5.95-2.67,5.95-5.95,0-1.41-.51-2.79-1.42-3.86l-.99.84c.72.84,1.11,1.91,1.11,3.02,0,2.56-2.09,4.65-4.65,4.65-1.76,0-3.35-.98-4.14-2.53l-.09-.19c-.28-.61-.42-1.26-.42-1.93,0-1.4.62-2.71,1.71-3.6l.07-.06.18-.14,6.37-4.94c1.44-1.14,2.27-2.84,2.27-4.68,0-3.28-2.67-5.95-5.95-5.95-1.41,0-2.75.49-3.82,1.39h-2.09c1.4-1.82,3.57-2.91,5.91-2.91,4.12,0,7.46,3.35,7.46,7.46,0,2.38-1.15,4.64-3.08,6.04h0s-6.18,5.1-6.18,5.1h0c-.71.55-1.12,1.4-1.12,2.3,0,1.61,1.31,2.93,2.93,2.93s2.93-1.31,2.93-2.93c0-.74-.27-1.44-.77-1.98l-.96.88c.28.3.43.69.43,1.1,0,.9-.73,1.63-1.63,1.63s-1.63-.73-1.63-1.63c0-.54.27-1.05.72-1.35h0s6.08-5.02,6.08-5.02c2.25-1.65,3.59-4.29,3.59-7.08ZM450.8,50.04c-.39-.33-.62-.82-.62-1.33,0-.96.78-1.74,1.74-1.74.39,0,.77.13,1.08.37l1.56,1.28h0v4.51l-3.76-3.08ZM454.56,56.71l-5.58-4.33c-1.13-.89-1.77-2.22-1.77-3.65,0-2.56,2.09-4.65,4.65-4.65.98,0,1.92.3,2.7.86v1.99l-.74-.6h0c-.53-.43-1.2-.66-1.89-.66-1.68,0-3.04,1.37-3.04,3.04,0,.9.4,1.76,1.09,2.34h0s4.58,3.76,4.58,3.76v1.91ZM464.04,41.44l2.69,1.28,2.61-1.24c-.61,1.06-1.54,1.88-2.64,2.29-1.1-.42-2.05-1.26-2.66-2.33ZM464.89,40.41v-2.77l1.18-.44v3.77l-1.18-.56ZM467.37,40.98v-3.77l1.18.44v2.77l-1.18.56ZM470.66,39.41l-.8.38v-1.66l.96.36-.15.92ZM464.83,30.3c.51-.51,1.18-.79,1.9-.79s1.42.29,1.93.82l.14.15c.13.14.26.27.4.41l1.08,1.08.03.03c.66.57,1.5.89,2.37.89.61,0,1.2-.15,1.72-.43,0,.04,0,.08,0,.12.02,1.56-1.23,2.86-2.79,2.89-.42,0-.82-.07-1.2-.24-.2-.26-.42-.49-.67-.7-.83-.69-1.89-1.07-3.01-1.07-.72,0-1.43.16-2.06.46-.4-.48-.62-1.09-.62-1.71,0-.72.28-1.39.78-1.9ZM463.59,39.79l-.8-.38-.15-.92.96-.36v1.66ZM466.72,34.75c1.54,0,2.55.87,3.05,1.96l-3.05-1.14-3.05,1.14c.5-1.09,1.51-1.96,3.05-1.96ZM464.69,44.15c.54.41,1.15.72,1.8.94l.2.07.2-.07c.65-.21,1.26-.53,1.8-.95l1.14.86c-.78.89-1.9,1.41-3.11,1.41s-2.33-.52-3.11-1.42l1.08-.84ZM478.9,52.95v-4.33h0s1.56-1.29,1.56-1.29c.31-.24.68-.37,1.08-.37.96,0,1.74.78,1.74,1.74,0,.52-.23,1-.62,1.33l-3.75,3.08v-.17ZM478.9,44.94c.78-.56,1.72-.86,2.7-.86,2.56,0,4.65,2.09,4.65,4.65,0,1.43-.65,2.77-1.77,3.65l-5.57,4.33v-1.9l4.58-3.76h0c.69-.58,1.09-1.44,1.09-2.34,0-1.68-1.37-3.04-3.04-3.04-.68,0-1.35.23-1.89.66h0s-.74.61-.74.61v-1.99ZM477.6,45.47v12.26c-1.24,1.13-1.95,2.72-1.95,4.41,0,.74.14,1.47.4,2.15-1.96,3.26-5.5,5.28-9.32,5.28s-7.36-2.01-9.32-5.28c0-.02.01-.04.02-.06.01-.04.03-.08.04-.12.02-.05.04-.1.05-.16.01-.04.02-.08.04-.12.02-.05.03-.1.04-.16.01-.04.02-.08.03-.12.01-.05.03-.11.04-.16,0-.04.02-.08.03-.12.01-.05.02-.11.03-.17,0-.04.01-.08.02-.12,0-.06.02-.12.02-.17,0-.04,0-.07.01-.11,0-.06.01-.13.01-.19,0-.03,0-.06,0-.09,0-.1,0-.19,0-.29h0c0-.05,0-.11,0-.16,0-.02,0-.04,0-.05,0-.04,0-.07,0-.11,0-.02,0-.04,0-.06,0-.03,0-.07,0-.1,0-.02,0-.05,0-.07,0-.03,0-.06,0-.09,0-.02,0-.05,0-.07,0-.03,0-.06-.01-.09,0-.02,0-.05-.01-.07,0-.03,0-.06-.01-.09,0-.02,0-.05-.01-.07,0-.03-.01-.06-.02-.09,0-.02,0-.05-.01-.07,0-.03-.01-.06-.02-.09,0-.02-.01-.05-.02-.07,0-.03-.01-.06-.02-.09,0-.02-.01-.05-.02-.07,0-.03-.02-.06-.02-.09,0-.02-.01-.05-.02-.07,0-.03-.02-.06-.03-.09,0-.02-.01-.04-.02-.07,0-.03-.02-.06-.03-.09,0-.02-.01-.04-.02-.07-.01-.03-.02-.06-.03-.09,0-.02-.01-.04-.02-.06-.01-.03-.02-.06-.04-.09,0-.02-.01-.04-.02-.06-.01-.03-.03-.07-.04-.1,0-.02-.01-.03-.02-.05-.04-.1-.09-.19-.14-.29,0-.01-.01-.03-.02-.04-.02-.03-.03-.07-.05-.1,0-.02-.02-.04-.03-.05-.02-.03-.03-.06-.05-.09-.01-.02-.02-.04-.03-.06-.02-.03-.03-.05-.05-.08-.01-.02-.02-.04-.04-.06-.02-.03-.03-.05-.05-.08-.01-.02-.03-.04-.04-.06-.02-.02-.03-.05-.05-.07-.01-.02-.03-.04-.04-.06-.02-.02-.03-.05-.05-.07-.01-.02-.03-.04-.04-.06-.02-.02-.04-.05-.05-.07-.01-.02-.03-.04-.04-.06-.02-.02-.04-.05-.06-.07-.02-.02-.03-.04-.05-.06-.02-.02-.04-.05-.06-.07-.02-.02-.03-.04-.05-.05-.02-.02-.04-.04-.06-.07-.02-.02-.03-.03-.05-.05-.02-.02-.04-.04-.06-.07-.02-.02-.03-.03-.05-.05-.02-.02-.04-.04-.07-.07-.02-.02-.03-.03-.05-.05-.02-.02-.05-.05-.07-.07-.02-.01-.03-.03-.05-.04,0,0,0,0,0,0v-12.27h6.48c1.02,1.4,2.64,2.23,4.39,2.23s3.37-.83,4.39-2.23h6.48Z"/>
              <polygon class="cls-2" points="466.22 33.05 467.23 33.05 467.23 32.18 468.09 32.18 468.09 31.18 467.23 31.18 467.23 30.31 466.22 30.31 466.22 31.18 465.36 31.18 465.36 32.18 466.22 32.18 466.22 33.05"/>
              <path class="cls-2" d="M470.68,57.13l-.1.26c-.18.02-.33.12-.42.26,0,0-.49.2-.49.2-.03.01-.06.05-.06.1,0,.04.02.07.04.09,0,0,0,.01,0,.02l.16.36c.07,0,.15,0,.22-.03.16-.07.19-.09.27-.09.11,0,.2.09.2.2s-.09.2-.19.2h-.07s-.09-.01-.12-.03c-.05-.03-.09-.08-.1-.14-.11.1-.15.2-.16.31,0,.06,0,.13,0,.21h.89l-.76.47s-.07.02-.1,0l-1.18-.74v-.29c0-.06-.03-.12-.08-.15l-.34-.22v1.09c0,.06.03.12.08.15l1.21.76s-.01.08-.01.12l-.86.54v-.31c0-.06-.03-.12-.08-.15l-.34-.22v1.43c0,.14.15.22.27.15l1.22-.77.7,1.45-1.03.65c-.05.03-.08.09-.08.15v.67s-.53-.18-.53-.18c-.07-.02-.12-.09-.12-.16v-.37c0-.07-.05-.14-.12-.16l-.31-.11v1.28c0,.07.05.14.12.16l1.49.53c.11.04.23-.04.23-.16v-.78c0-.09.08-.17.18-.17h.79l.52,1.09c.03.06.09.1.16.1h.9l-.18.53c-.02.07-.09.12-.16.12h-.37c-.07,0-.14.05-.16.12l-.11.31h1.28c.07,0,.14-.05.16-.12l.53-1.49c.04-.11-.04-.23-.16-.23l-.9-.02c-.12,0-.2-.12-.16-.23l.26-.74h.5c.62,0,1.16-.49,1.16-1.11,0-.25-.05-.39-.13-.55l-.64-1.35c-.1-.26.09-.55.37-.55h0c.05.1.14.16.25.16h.11c.31,0,.58-.19.68-.48h-1.05c-.16,0-.32.05-.45.16-.28.22-.35.57-.19.91l.65,1.34c.05.1.07.22.07.34,0,.46-.38.82-.84.82h-.42c-.4,0-.73-.33-.73-.73,0-.13.08-.35.08-.35l.77-2.16c.18-.5.15-1.06-.11-1.53-.11-.2-.26-.4-.49-.58-.35-.28-.82-.41-1.12-.41-.17,0-.34.03-.49.09Z"/>
              <path class="cls-2" d="M470.71,51.83c-.05,0-.09-.05-.1-.1-.1-1.02-.96-1.83-2.01-1.83-.05,0-.1,0-.15,0-.04,0-.08-.01-.1-.05-.37-.5-.96-.82-1.62-.82s-1.26.32-1.62.82c-.02.03-.06.05-.1.05-.05,0-.1,0-.15,0-1.05,0-1.91.8-2.01,1.83,0,.05-.04.09-.1.1-.73.1-1.29.73-1.29,1.48s.56,1.38,1.29,1.48c.05,0,.09.05.1.1.1,1.02.96,1.83,2.01,1.83.05,0,.1,0,.15,0,.04,0,.08.01.1.05.16.22.36.4.59.54,0,0,0,0,0,0,.3.18.51.51.51.89v6.62s-.03.09-.07.11l-2.42.84s-.07.06-.07.11v.09h3.09s0,0,0,0h3.09s0,0,0,0h0v-.09s-.03-.09-.07-.11l-2.42-.84s-.07-.06-.07-.11v-6.64c.01-.37.21-.69.51-.87.23-.14.43-.32.59-.54.02-.03.06-.05.1-.05.05,0,.1,0,.15,0,1.05,0,1.91-.8,2.01-1.83,0-.05.04-.09.1-.1.73-.1,1.29-.73,1.29-1.48s-.56-1.38-1.29-1.48Z"/>
              <path class="cls-2" d="M465.16,64.11v-1.28l-.31.11c-.07.02-.12.09-.12.16v.37c0,.07-.05.14-.12.16l-.53.18v-.67c0-.06-.03-.12-.08-.15l-1.03-.65.7-1.45,1.22.77c.12.07.27-.01.27-.15v-1.43l-.34.22c-.05.03-.08.09-.08.15v.31l-.86-.54s0-.08-.01-.12l1.21-.76c.05-.03.08-.09.08-.15v-1.09l-.34.22c-.05.03-.08.09-.08.15v.29l-1.18.74s-.07.02-.1,0l-.76-.47h.89c0-.08,0-.15,0-.21,0-.1-.04-.21-.16-.31,0,.06-.05.11-.1.14-.03.02-.08.03-.12.03h-.07c-.11,0-.19-.09-.19-.2s.09-.2.2-.2c.08,0,.11.02.27.09.07.03.14.04.22.03l.16-.36s0-.02,0-.02c.03-.02.04-.05.04-.09,0-.05-.04-.09-.06-.1,0,0-.49-.2-.49-.2-.09-.14-.24-.24-.42-.26l-.1-.26c-.15-.06-.32-.09-.49-.09-.31,0-.78.13-1.12.41-.22.17-.38.38-.49.58-.25.47-.29,1.03-.11,1.53l.77,2.16s.08.23.08.35c0,.4-.33.73-.73.73h-.42c-.46,0-.84-.36-.84-.82,0-.12.02-.23.07-.34l.65-1.34c.16-.35.08-.7-.19-.91-.14-.11-.3-.16-.45-.16h-1.05c.1.29.37.48.68.48h.11c.11,0,.21-.06.25-.16h0c.28,0,.48.28.37.55l-.64,1.35c-.08.16-.13.3-.13.55,0,.62.54,1.11,1.16,1.11h.5l.26.74c.04.11-.04.23-.16.23l-.9.02c-.12,0-.2.12-.16.23l.53,1.49c.02.07.09.12.16.12h1.28l-.11-.31c-.02-.07-.09-.12-.16-.12h-.37c-.07,0-.14-.05-.16-.12l-.18-.53h.9c.07,0,.13-.04.16-.1l.52-1.09h.79c.09,0,.17.08.17.17v.78c0,.12.12.2.24.16l1.49-.53c.07-.02.12-.09.12-.16Z"/>
            </g>
            <path class="cls-2" d="M432.31,93.11c-.21-.2-.52-.3-.78-.3-.64,0-1.05.36-1.05,1.1,0,.48.26,1.08,1.05,1.08.23,0,.45-.04.71-.23v-.54h-.8v-.62h1.45v1.46c-.29.41-.75.62-1.36.62-1.29,0-1.78-.89-1.78-1.77,0-.94.56-1.78,1.78-1.78.45,0,.87.12,1.25.52l-.46.46ZM435.95,95.66c-1.07,0-1.81-.67-1.81-1.76s.74-1.76,1.81-1.76,1.81.67,1.81,1.76-.74,1.76-1.81,1.76ZM435.95,92.81c-.64,0-1.08.48-1.08,1.09s.44,1.08,1.08,1.08,1.08-.46,1.08-1.08-.43-1.09-1.08-1.09ZM440.82,92.22c.64,0,1.16.29,1.16.91,0,.28-.12.54-.45.68.43.15.6.58.53.97-.1.54-.55.78-1.22.78h-1.68v-3.35h1.65ZM439.9,93.53h.91c.29,0,.44-.12.44-.32s-.14-.34-.43-.34h-.92v.66ZM439.9,94.92h.92c.33,0,.49-.15.49-.38s-.17-.39-.5-.39h-.91v.78ZM443.5,95.57v-3.35h.74v3.35h-.74ZM448.39,95.57h-2.55v-3.35h2.48v.68h-1.75v.65h1.65v.66h-1.65v.67h1.82v.69ZM452.8,95.57h-.83l-.86-1.1h-.54v1.1h-.75v-3.35h1.59c.81,0,1.24.54,1.24,1.13,0,.44-.13.82-.78,1.05l.92,1.11v.06ZM450.58,92.87v.98h.85c.34,0,.49-.26.49-.47,0-.23-.15-.51-.5-.51h-.84ZM456.48,94.4l-.05-1.05v-1.12h.75v3.35h-.64l-1.67-2.14.03,1.1v1.04h-.76v-3.35h.64l1.69,2.18ZM460.4,95.66c-1.07,0-1.81-.67-1.81-1.76s.74-1.76,1.81-1.76,1.81.67,1.81,1.76-.74,1.76-1.81,1.76ZM460.4,92.81c-.64,0-1.08.48-1.08,1.09s.44,1.08,1.08,1.08,1.08-.46,1.08-1.08-.43-1.09-1.08-1.09ZM466.98,92.22c1.15,0,1.67.78,1.67,1.65s-.49,1.7-1.67,1.7h-1.37v-3.35h1.37ZM466.34,94.89h.64c.73,0,.93-.54.93-1.02s-.23-.97-.93-.97h-.64v1.99ZM472.61,95.57h-2.55v-3.35h2.48v.68h-1.75v.65h1.65v.66h-1.65v.67h1.82v.69ZM474.8,92.22v2.67h1.67v.68h-2.42v-3.35h.75ZM482.18,95.57h-2.55v-3.35h2.48v.68h-1.75v.65h1.65v.66h-1.65v.67h1.82v.69ZM485.6,93.03c-.19-.2-.51-.28-.78-.28-.33,0-.6.14-.6.37,0,.31.29.36.72.4.66.06,1.29.31,1.29,1.09s-.69,1.07-1.41,1.08c-.58,0-1.18-.22-1.46-.69l.45-.46c.26.33.68.47,1.02.47.4,0,.67-.16.67-.4,0-.28-.22-.41-.67-.45-.71-.07-1.34-.24-1.33-1.03,0-.67.64-1.02,1.33-1.02.52,0,.9.11,1.25.52l-.47.41ZM488.33,92.89h-1.02v-.67h2.78v.67h-1.02v2.68h-.74v-2.68ZM493.48,95h-1.72l-.24.57h-.8l1.5-3.35h.81l1.5,3.35h-.81l-.24-.57ZM492.62,92.98l-.58,1.36h1.15l-.57-1.36ZM497.11,92.22c1.15,0,1.67.78,1.67,1.65s-.49,1.7-1.67,1.7h-1.37v-3.35h1.37ZM496.47,94.89h.64c.73,0,.93-.54.93-1.02s-.23-.97-.93-.97h-.64v1.99ZM501.81,95.66c-1.07,0-1.81-.67-1.81-1.76s.74-1.76,1.81-1.76,1.81.67,1.81,1.76-.74,1.76-1.81,1.76ZM501.81,92.81c-.64,0-1.08.48-1.08,1.09s.44,1.08,1.08,1.08,1.08-.46,1.08-1.08-.43-1.09-1.08-1.09ZM434.27,75.45v2.33h3.19v4.53c0,1.77-1,2.76-2.68,2.76-1.46,0-2.53-.71-2.62-2.6h-2.48s-.72,0-.72,0l.24.64h0c.28,0,.53.21.57.49.4,2.7,2.19,3.9,5.05,3.9,3.4,0,5.21-2.17,5.21-5.17v-6.88h-5.76ZM448.41,75.45h-2.8s-1.01,0-1.01,0l.24.64h0c.23,0,.39.24.29.45l-4.96,10.98h2.78l1.09-2.54h5.91l1.09,2.54h2.78l-5.42-12.06ZM445.02,82.71l1.99-4.66,1.97,4.66h-3.96ZM457.59,85.15v-9.71h-2.57s-.75,0-.75,0l.24.64h0c.28,0,.51.23.51.51v10.91h8.32v-2.35h-5.76ZM497.46,87.51c-3.68,0-6.22-2.28-6.22-6.03s2.53-6.04,6.22-6.04,6.22,2.3,6.22,6.04-2.53,6.03-6.22,6.03ZM497.46,77.74c-2.19,0-3.7,1.66-3.7,3.74s1.51,3.71,3.7,3.71,3.7-1.58,3.7-3.71-1.46-3.74-3.7-3.74ZM465.13,75.44h0s-.75,0-.75,0l.24.64h0c.28,0,.51.23.51.51v10.91h2.55v-12.06h-2.55ZM478.44,77.08c-.24-.27-.48-.5-.73-.7-.02-.01-.03-.02-.05-.04-.99-.78-2.12-1.03-3.52-1.03-2.37,0-4.54,1.22-4.56,3.5-.03,2.71,2.14,3.32,4.57,3.55,1.56.13,2.34.57,2.32,1.54,0,.82-.94,1.36-2.3,1.36-.18,0-.37-.01-.56-.04l-.11-.02c-.65-.1-1.33-.33-1.92-.73-.27-.18-.31-.56-.09-.79l-.3-.61-.54.56s0,0,0,0l-1.53,1.59c.97,1.61,3.04,2.38,5.03,2.36,2.48-.02,4.85-1.13,4.85-3.7s-2.15-3.53-4.42-3.73c-1.48-.13-2.48-.33-2.48-1.38,0-.79.92-1.26,2.06-1.26.9,0,2.02.3,2.66.97l1.62-1.42ZM486.22,85.16c-2.7,0-3.6-1.91-3.62-3.58-.02-1.68,1-3.7,3.62-3.7.92,0,1.92.28,2.62.95l1.46-1.45.65-.64-.61-.29h0c-.2.2-.51.23-.74.07-1.01-.7-2.15-1.06-3.37-1.06-4.23,0-6.17,3.12-6.15,6.09.02,3.14,1.76,5.96,6.15,5.96,1.71,0,3.24-.53,4.42-1.69l-1.6-1.77c-.69.69-1.91,1.1-2.83,1.1Z"/>
          </g>
          <g>
            <polygon class="cls-19" points="348.04 73.48 348.04 73.48 348 73.62 348.62 73.62 351.62 61.5 351.62 61.5 351.78 60.84 351.17 60.84 348.04 73.48"/>
            <g>
              <path class="cls-13" d="M360.98,70.87h-5.7v-7.13h5.56v1.69h-3.57v1.02h3.37v1.64h-3.37v1.08h3.72v1.7Z"/>
              <path class="cls-13" d="M365.47,63.74h1.87v7.13h-1.67l-.08-.54c-.43.49-1.1.66-1.66.63-1.48-.09-2.3-1.02-2.3-2.61s.98-2.63,2.44-2.63c.64,0,1.12.2,1.4.54v-2.53ZM363.5,68.35c0,.7.45,1.1,1.01,1.1.63,0,1.01-.52,1.01-1.05,0-.61-.35-1.16-1.01-1.16-.56,0-1.01.41-1.01,1.11Z"/>
              <path class="cls-13" d="M370.21,65.84v2.78c0,.62.36.84.7.84.45,0,.87-.28.87-.94v-2.68h1.85v5.03h-1.66l-.08-.55c-.43.5-1.06.68-1.59.67-1.06-.01-1.97-.57-1.97-2.36v-2.79h1.87Z"/>
              <path class="cls-13" d="M379.34,70.12c-.6.54-1.32.86-2.08.86-1.47,0-2.85-.72-2.85-2.61s1.41-2.64,2.82-2.64c.72,0,1.45.25,1.98.78l-1,1.08c-.24-.25-.53-.37-.87-.37-.71,0-1.1.52-1.1,1.15,0,.55.38,1.04,1.09,1.04.35,0,.68-.14.94-.42l1.07,1.12Z"/>
              <path class="cls-13" d="M384.72,67.7v3.17h-1.7l-.08-.52c-.36.4-.8.61-1.38.61-1.22,0-1.9-.7-1.9-1.81s1.07-1.62,2.18-1.62c.25,0,.68.06,1.02.16-.03-.46-.46-.61-.96-.61-.7,0-1.34.21-1.63.34l-.24-1.24c.65-.32,1.35-.47,1.94-.47,1.53,0,2.76.35,2.76,2ZM382.07,69.58c.29-.01.74-.17.81-.64-.16-.09-.5-.2-.83-.2-.36,0-.57.15-.57.43,0,.35.33.42.58.42Z"/>
              <path class="cls-13" d="M390.38,70.12c-.6.54-1.32.86-2.08.86-1.47,0-2.85-.72-2.85-2.61s1.41-2.64,2.82-2.64c.72,0,1.45.25,1.98.78l-1,1.08c-.24-.25-.53-.37-.87-.37-.71,0-1.1.52-1.1,1.15,0,.55.38,1.04,1.09,1.04.35,0,.68-.14.94-.42l1.07,1.12Z"/>
              <path class="cls-13" d="M391.83,63.6c.52,0,1.05.32,1.05.95s-.53.94-1.05.94-1.06-.32-1.06-.94.53-.95,1.06-.95ZM392.77,70.87v-4.95h-1.88v4.95h1.88Z"/>
              <path class="cls-13" d="M396.36,65.73c1.49,0,2.87.8,2.87,2.64s-1.46,2.63-2.87,2.63-2.87-.79-2.87-2.63,1.42-2.64,2.87-2.64ZM396.36,69.45c.63,0,1.04-.48,1.04-1.09s-.38-1.1-1.04-1.1-1.04.52-1.04,1.1.38,1.09,1.04,1.09ZM398.07,63.61h-1.92l-.76,1.58v.06h1.6l1.09-1.56v-.08Z"/>
              <path class="cls-13" d="M403.41,70.87v-2.78c0-.62-.36-.84-.7-.84-.45,0-.87.31-.87.97v2.65h-1.85v-5.03h1.66l.08.55c.43-.5,1.06-.68,1.59-.67,1.06,0,1.97.57,1.97,2.36v2.79h-1.87Z"/>
            </g>
            <g>
              <path class="cls-19" d="M339.55,70.94c-1.52,7.11-7.82,12.44-15.38,12.47-7.55-.03-13.86-5.36-15.38-12.47h-4.16c1.45,9.47,9.63,16.73,19.51,16.73h.06c9.88,0,18.06-7.26,19.51-16.73h-4.16Z"/>
              <path class="cls-13" d="M332.57,62.85c-.06,0-.12,0-.17,0-.69,0-1.34.13-1.95.35l-.41,1.03c-.71.08-1.32.48-1.69,1.05,0,0-1.9.79-1.9.79,0,0,0,0,0,0-.19.05-.34.22-.34.43,0,.14.07.27.17.35-.02.03-.01.06,0,.09l.64,1.45c.29.04.6,0,.88-.13.56-.24.73-.33.97-.35.44-.03.86.27.92.71.06.49-.3.91-.77.93h-.27c-.16,0-.37-.05-.5-.13-.21-.11-.36-.32-.39-.56-.45.4-.62.82-.63,1.24,0,.23,0,.52,0,.84h4.21s-.04.02-.06.03c-3.24,1.33-5.35,4.5-5.35,8.01v.02c5.8-.94,10.18-6.07,10.18-12.12v-.27c0-1.99-1.55-3.68-3.54-3.76ZM330.16,65.87s-.07.09-.1.13c-.09.15-.24.26-.41.31-.06.02-.12.03-.19.02-.21-.03-.31-.28-.2-.45.11-.17.3-.28.5-.29.08,0,.33,0,.37,0,.06,0,.11.03.13.1.02.09-.05.13-.1.17ZM317.07,70.97s-.05-.02-.06-.03h4.21c0-.32,0-.61,0-.84-.01-.42-.18-.84-.63-1.24-.03.24-.18.45-.39.56-.13.09-.34.13-.5.13h-.27c-.47-.03-.84-.44-.77-.93.06-.44.48-.74.92-.71.24.02.41.11.97.35.28.13.59.17.88.13l.64-1.45s.02-.07,0-.09c.1-.08.17-.21.17-.35,0-.21-.14-.38-.34-.43,0,0,0,0,0,0,0,0-1.9-.79-1.9-.79-.36-.58-.98-.98-1.69-1.05l-.41-1.03c-.61-.23-1.26-.35-1.95-.35-.02,0-.04,0-.05,0-2.03.02-3.66,1.71-3.66,3.75v.28c0,6.05,4.38,11.18,10.18,12.12v-.02c0-3.5-2.11-6.67-5.35-8ZM318.08,65.69c.02-.07.07-.1.13-.1.05,0,.3,0,.37,0,.2,0,.39.11.5.29.11.17,0,.42-.2.45-.06,0-.13,0-.19-.02-.17-.05-.32-.16-.41-.31-.03-.05-.06-.1-.1-.13-.05-.05-.12-.09-.1-.17ZM325.19,79.09c-.34.03-.68.05-1.02.06-.34,0-.69-.02-1.02-.06v-7.78h-.01v-6.52c-.02-.81-.45-1.38-1.08-1.78-.53-.3-.99-.7-1.34-1.19-.05-.07-.13-.11-.22-.1-.11,0-.22.01-.33.01-2.23,0-4.07-1.71-4.28-3.89-.01-.11-.09-.2-.2-.21-1.55-.22-2.74-1.55-2.74-3.16s1.19-2.94,2.74-3.16c.11-.02.19-.1.2-.21.21-2.18,2.05-3.89,4.28-3.89.11,0,.22,0,.33.01.08,0,.17-.03.22-.1.78-1.06,2.04-1.75,3.46-1.75h0c1.42,0,2.67.69,3.46,1.75.05.07.13.11.22.1.11,0,.22-.01.33-.01,2.23,0,4.07,1.71,4.28,3.89.01.11.09.2.2.21,1.55.22,2.74,1.55,2.74,3.16s-1.19,2.94-2.74,3.16c-.11.02-.19.1-.2.21-.21,2.18-2.05,3.89-4.28,3.89-.11,0-.22,0-.33-.01-.08,0-.17.03-.22.1-.36.48-.82.89-1.34,1.19-.63.4-1.06.98-1.07,1.78v6.52h-.02v7.78Z"/>
            </g>
          </g>
        </g>
      </g>
      <g>
        <g>
          <path class="cls-9" d="M217.48,141.23c-.16-.23-.38-.4-.65-.51-.27-.11-.55-.16-.85-.16-.18,0-.35.02-.51.06-.17.04-.31.1-.45.19-.13.09-.24.2-.32.34-.08.14-.12.31-.12.5,0,.29.1.51.3.67.2.15.45.29.75.4.3.11.62.22.98.33.35.11.68.25.98.44s.55.43.75.74c.2.31.3.71.3,1.22,0,.46-.08.86-.25,1.2-.17.34-.4.63-.68.85-.29.23-.62.39-1,.51-.38.11-.78.17-1.2.17-.53,0-1.04-.09-1.54-.27-.49-.18-.92-.47-1.27-.89l1.15-1.11c.19.28.43.5.73.66s.62.24.96.24c.18,0,.35-.02.53-.07.18-.05.34-.12.48-.22.15-.1.26-.22.35-.37.09-.15.13-.32.13-.51,0-.31-.1-.56-.3-.73-.2-.17-.45-.31-.75-.43-.3-.12-.62-.23-.98-.33-.35-.11-.68-.25-.98-.43s-.55-.42-.75-.73c-.2-.3-.3-.71-.3-1.21,0-.44.09-.83.27-1.15.18-.32.42-.59.71-.8.29-.21.63-.37,1.01-.48.38-.1.77-.16,1.16-.16.45,0,.89.07,1.31.21.42.14.8.36,1.14.68l-1.11,1.17Z"/>
          <path class="cls-9" d="M225.39,147.96h-1.38v-.93h-.02c-.14.29-.35.54-.63.75-.28.21-.66.32-1.15.32-.39,0-.72-.06-.99-.19s-.49-.29-.66-.51c-.17-.21-.29-.46-.36-.73-.07-.27-.11-.56-.11-.86v-3.66h1.45v2.94c0,.16,0,.34.02.54.02.2.06.38.13.56.07.17.17.32.31.44.14.12.34.17.6.17.24,0,.45-.04.61-.12.17-.08.3-.19.41-.33.11-.14.19-.29.24-.47.05-.18.07-.36.07-.56v-3.17h1.45v5.8Z"/>
          <path class="cls-9" d="M227.04,142.15h1.38v.87h.02c.21-.35.49-.61.85-.77.35-.16.74-.24,1.15-.24.44,0,.84.08,1.2.24s.66.37.91.65c.25.27.44.6.57.97s.19.77.19,1.2-.07.83-.21,1.2c-.14.37-.33.69-.57.97-.25.27-.54.49-.89.65s-.73.24-1.14.24c-.27,0-.52-.03-.73-.08-.21-.06-.4-.13-.56-.22-.16-.09-.3-.18-.41-.28s-.21-.2-.28-.3h-.04v3.49h-1.45v-8.56ZM231.85,145.05c0-.23-.04-.44-.11-.65-.08-.21-.19-.39-.34-.56-.15-.16-.33-.29-.54-.39-.21-.1-.45-.14-.71-.14s-.5.05-.71.14c-.21.1-.39.23-.54.39-.15.16-.26.35-.34.56-.08.21-.11.43-.11.65s.04.44.11.65c.08.21.19.4.34.56.15.16.33.29.54.39.21.1.45.14.71.14s.5-.05.71-.14c.21-.1.39-.23.54-.39.15-.16.26-.35.34-.56.08-.21.11-.43.11-.65Z"/>
          <path class="cls-9" d="M234.65,142.15h1.38v.87h.02c.21-.35.49-.61.85-.77.35-.16.74-.24,1.15-.24.44,0,.84.08,1.2.24s.66.37.91.65c.25.27.44.6.57.97s.19.77.19,1.2-.07.83-.21,1.2c-.14.37-.33.69-.57.97-.25.27-.54.49-.89.65s-.73.24-1.14.24c-.27,0-.52-.03-.73-.08-.21-.06-.4-.13-.56-.22-.16-.09-.3-.18-.41-.28s-.21-.2-.28-.3h-.04v3.49h-1.45v-8.56ZM239.47,145.05c0-.23-.04-.44-.11-.65-.08-.21-.19-.39-.34-.56-.15-.16-.33-.29-.54-.39-.21-.1-.45-.14-.71-.14s-.5.05-.71.14c-.21.1-.39.23-.54.39-.15.16-.26.35-.34.56-.08.21-.11.43-.11.65s.04.44.11.65c.08.21.19.4.34.56.15.16.33.29.54.39.21.1.45.14.71.14s.5-.05.71-.14c.21-.1.39-.23.54-.39.15-.16.26-.35.34-.56.08-.21.11-.43.11-.65Z"/>
          <path class="cls-9" d="M241.98,145.05c0-.46.08-.88.25-1.25s.39-.7.67-.96.62-.47,1-.62c.39-.14.8-.22,1.23-.22s.85.07,1.23.22c.39.15.72.35,1,.62.28.27.5.59.67.96s.25.79.25,1.25-.08.88-.25,1.25-.39.7-.67.96c-.28.27-.62.47-1,.62-.39.14-.8.22-1.23.22s-.85-.07-1.23-.22c-.39-.15-.72-.35-1-.62-.28-.27-.51-.59-.67-.96s-.25-.79-.25-1.25ZM243.43,145.05c0,.23.04.44.11.65.08.21.19.4.34.56.15.16.33.29.54.39s.45.14.71.14.5-.05.71-.14.39-.23.54-.39c.15-.16.26-.35.34-.56.08-.21.12-.43.12-.65s-.04-.44-.12-.65c-.08-.21-.19-.39-.34-.56-.15-.16-.33-.29-.54-.39s-.45-.14-.71-.14-.5.05-.71.14-.39.23-.54.39c-.15.16-.26.35-.34.56-.08.21-.11.43-.11.65Z"/>
          <path class="cls-9" d="M249.65,142.15h1.45v.92h.02c.16-.34.39-.6.69-.79.3-.18.64-.28,1.03-.28.09,0,.18,0,.26.02.08.02.17.04.26.06v1.4c-.12-.03-.24-.06-.36-.08-.12-.02-.23-.03-.34-.03-.34,0-.61.06-.82.19s-.36.27-.47.43c-.11.16-.18.32-.22.48s-.05.28-.05.36v3.11h-1.45v-5.8Z"/>
          <path class="cls-9" d="M253.67,143.39v-1.23h1.2v-1.68h1.45v1.68h1.6v1.23h-1.6v2.54c0,.29.05.52.16.69.11.17.32.25.65.25.13,0,.27-.01.42-.04.15-.03.27-.07.36-.14v1.22c-.15.07-.34.12-.56.15-.22.03-.42.04-.59.04-.39,0-.7-.04-.95-.13-.25-.08-.44-.21-.58-.39-.14-.17-.24-.39-.29-.65-.05-.26-.08-.56-.08-.89v-2.66h-1.2Z"/>
          <path class="cls-9" d="M260.21,145.56c.05.43.22.77.51,1.02.29.24.64.36,1.05.36.36,0,.67-.07.91-.22s.46-.34.65-.56l1.04.79c-.34.42-.72.72-1.14.89-.42.18-.86.27-1.32.27-.44,0-.85-.07-1.23-.22-.39-.15-.72-.35-1-.62-.28-.27-.51-.59-.67-.96-.17-.38-.25-.79-.25-1.25s.08-.88.25-1.25c.17-.38.39-.7.67-.96s.62-.47,1-.62c.39-.14.8-.22,1.23-.22.4,0,.77.07,1.11.21.33.14.62.34.86.61.24.27.42.59.56.99.13.39.2.84.2,1.35v.4h-4.43ZM263.19,144.47c0-.43-.14-.76-.4-1.01-.26-.25-.62-.37-1.08-.37s-.78.12-1.03.38-.41.58-.47,1h2.97Z"/>
          <path class="cls-9" d="M270.59,147.09h-.02c-.21.35-.49.61-.85.77s-.74.24-1.15.24c-.45,0-.85-.08-1.2-.24s-.65-.37-.9-.65c-.25-.27-.44-.6-.57-.97-.13-.37-.19-.77-.19-1.2s.07-.83.21-1.2.33-.69.57-.97c.25-.27.54-.49.89-.65s.73-.24,1.14-.24c.27,0,.52.03.73.08.21.06.39.13.56.22s.3.18.41.28c.11.1.21.2.28.3h.04v-4.07h1.45v9.14h-1.38v-.87ZM267.15,145.05c0,.23.04.44.12.65.08.21.19.4.34.56.15.16.33.29.54.39.21.1.45.14.71.14s.5-.05.71-.14c.21-.1.39-.23.54-.39.15-.16.26-.35.34-.56.08-.21.12-.43.12-.65s-.04-.44-.12-.65c-.08-.21-.19-.39-.34-.56-.15-.16-.33-.29-.54-.39-.21-.1-.45-.14-.71-.14s-.5.05-.71.14c-.21.1-.39.23-.54.39-.15.16-.26.35-.34.56-.08.21-.12.43-.12.65Z"/>
          <path class="cls-9" d="M277.19,138.82h1.45v4.07h.04c.07-.1.17-.2.28-.3.11-.1.25-.2.41-.28s.35-.16.56-.22c.21-.06.45-.08.73-.08.41,0,.79.08,1.14.24.35.16.64.37.89.65.25.27.44.6.57.97.14.37.21.77.21,1.2s-.06.83-.19,1.2c-.13.37-.32.69-.57.97-.25.27-.55.49-.91.65-.36.16-.75.24-1.2.24-.41,0-.79-.08-1.15-.24-.36-.16-.64-.42-.85-.77h-.02v.87h-1.38v-9.14ZM282,145.05c0-.23-.04-.44-.11-.65-.08-.21-.19-.39-.34-.56s-.33-.29-.54-.39c-.21-.1-.45-.14-.71-.14s-.5.05-.71.14c-.21.1-.39.23-.54.39-.15.16-.26.35-.34.56-.08.21-.12.43-.12.65s.04.44.12.65c.08.21.19.4.34.56.15.16.33.29.54.39.21.1.45.14.71.14s.5-.05.71-.14c.21-.1.39-.23.54-.39s.26-.35.34-.56c.08-.21.11-.43.11-.65Z"/>
          <path class="cls-9" d="M284.02,142.15h1.6l1.62,4.03h.02l1.45-4.03h1.51l-2.75,7.05c-.1.27-.22.51-.34.72-.12.21-.27.38-.44.52-.17.14-.37.25-.6.31-.23.07-.51.1-.83.1-.38,0-.75-.05-1.11-.14l.18-1.31c.11.04.23.07.36.1s.25.04.38.04c.18,0,.33-.02.45-.05.12-.03.22-.08.31-.15s.16-.16.21-.27c.06-.11.12-.24.18-.39l.28-.69-2.48-5.85Z"/>
        </g>
        <line class="cls-17" x1="15.77" y1="144.07" x2="183.37" y2="144.07"/>
        <line class="cls-17" x1="319.81" y1="144.07" x2="487.42" y2="144.07"/>
      </g>
      <g>
        <g>
          <g>
            <path class="cls-16" d="M22.27,194.61h-13.51l1.33,4.59h12.15c1.27,0,2.3,1.02,2.3,2.3v2.3h-11.48c-3.79,0-6.89,3.09-6.89,6.89s3.09,6.89,6.89,6.89h9.18c3.79,0,6.89-3.09,6.89-6.89v-9.16c.02-3.81-3.07-6.91-6.87-6.91ZM24.57,210.7c0,1.27-1.02,2.3-2.3,2.3h-9.2c-1.27,0-2.3-1.02-2.3-2.3s1.02-2.3,2.3-2.3h11.5v2.3h0Z"/>
            <polygon class="cls-3" points="35.74 203.81 31.56 203.81 31.56 208.41 37.07 208.41 35.74 203.81"/>
            <path class="cls-5" d="M52.5,210.74h-2.01v-1.11c-.64.82-1.58,1.35-2.89,1.35-2.58,0-4.61-2.03-4.61-4.84s2.03-4.84,4.61-4.84c1.31,0,2.25.53,2.89,1.35v-1.11h2.01v9.18ZM45.06,206.13c0,1.62,1.05,2.95,2.79,2.95s2.77-1.27,2.77-2.95-1.11-2.95-2.77-2.95c-1.74,0-2.79,1.35-2.79,2.95Z"/>
            <path class="cls-5" d="M69.8,204.96v5.78h-2.01v-5.12c0-1.56-.8-2.42-2.15-2.42s-2.38.86-2.38,2.44v5.1h-2.03v-5.12c0-1.56-.8-2.42-2.15-2.42s-2.38.86-2.38,2.44v5.1h-2.03v-9.2h2.01v1.13c.74-1.09,1.89-1.37,2.83-1.37,1.39,0,2.54.61,3.18,1.64.8-1.31,2.21-1.64,3.36-1.64,2.21,0,3.75,1.52,3.75,3.67Z"/>
            <path class="cls-5" d="M92.77,206.13c0,2.77-2.11,4.84-4.96,4.84s-4.94-2.09-4.94-4.84,2.11-4.84,4.94-4.84,4.96,2.09,4.96,4.84ZM84.92,206.13c0,1.74,1.23,2.95,2.89,2.95s2.89-1.21,2.89-2.95-1.25-2.95-2.89-2.95c-1.66,0-2.89,1.21-2.89,2.95Z"/>
            <path class="cls-5" d="M102.47,202.77l-1.29,1.37c-.64-.61-1.33-.94-2.21-.94-1.56,0-2.73,1.21-2.73,2.95s1.17,2.95,2.73,2.95c.88,0,1.68-.41,2.25-.96l1.25,1.37c-.84.96-2.07,1.48-3.44,1.48-2.93,0-4.84-2.09-4.84-4.84s1.91-4.84,4.84-4.84c1.37-.02,2.62.47,3.44,1.46Z"/>
            <path class="cls-5" d="M110.74,203.83c-.55-.35-1.7-.78-2.85-.78-1.09,0-1.74.45-1.74,1.09s.68.82,1.52.94l.94.14c2.01.29,3.2,1.15,3.2,2.73,0,1.76-1.54,3.01-4.18,3.01-.94,0-2.6-.18-3.96-1.19l.92-1.52c.66.51,1.54.94,3.03.94,1.37,0,2.09-.43,2.09-1.13,0-.51-.49-.86-1.6-1.02l-.96-.12c-2.03-.29-3.12-1.23-3.12-2.71,0-1.82,1.46-2.95,3.81-2.95,1.43,0,2.79.35,3.73.96l-.84,1.6Z"/>
            <path class="cls-5" d="M79.02,202.65v-3.38l2.01-.72v12.19h-2.01v-1.11c-.64.82-1.58,1.35-2.89,1.35-2.58,0-4.61-2.03-4.61-4.84s2.03-4.84,4.61-4.84c1.29-.02,2.25.51,2.89,1.33ZM73.59,206.13c0,1.62,1.05,2.95,2.79,2.95s2.79-1.27,2.79-2.95-1.11-2.95-2.79-2.95c-1.74,0-2.79,1.35-2.79,2.95Z"/>
          </g>
          <g>
            <path class="cls-6" d="M240.68,204.76l-1.89-1.89v5.35h1.89v-3.46ZM233.12,199.06h4.6l-1.88-1.88h0s-2.42,0-2.42,0c1.71-.14,2.98-1.65,2.84-3.36-.14-1.62-1.5-2.87-3.13-2.85v6.22h0l-5.17-5.16c-.57.3-1.11.65-1.61,1.06l4.89,4.87v10.71l3.78,3.78v-2.67l-1.89-1.89v-8.83Z"/>
            <path class="cls-6" d="M235.01,199.07v9.13s1.88,0,1.88,0v-7.23s-1.88-1.9-1.88-1.9ZM241.49,202.86l-1.89-1.89h-2.71l1.89,1.89h2.71ZM229.34,206.89v-8.13l-4.34-4.34c-.41.5-.77,1.04-1.06,1.61l3.52,3.52v2.67l-4.27-4.27c-.2.75-.31,1.54-.32,2.35l6.48,6.59ZM222.89,203.01v2.67l12.12,12.11v-2.67l-12.12-12.11ZM244.46,205.83h-1.89v2.39h-1.89c-.05,1.72,1.31,3.15,3.03,3.2,1.72.05,3.15-1.31,3.2-3.03,0-.06,0-.11,0-.17l-2.44-2.39h0ZM259.85,208.26l-1.42,2.69h-8.83l5.74-11.03h-5.08l1.42-2.7h8.83l-5.75,11.04h5.08s0,0,0,0ZM264.98,202.72h4.53v2.7h-4.53v2.84h4.53v2.7h-7.86v-13.73h7.86v2.7h-4.53v2.8ZM275.84,197.22c1.75,0,2.76.19,3.5.66.95.58,1.52,1.75,1.52,3.07,0,.97-.31,1.77-.93,2.39-.39.41-.7.6-1.44.8.84.18,1.21.37,1.65.78.62.58.93,1.38.93,2.39,0,1.27-.52,2.41-1.4,3-.68.45-1.5.64-2.9.64h-5.62v-13.73h4.69ZM274.48,202.9h.82c1.52,0,2.16-.47,2.16-1.61s-.64-1.58-2.2-1.58h-.78v3.19h0ZM274.48,208.56h1.21c1.4,0,2-.47,2-1.58,0-.66-.25-1.13-.74-1.4-.37-.21-.7-.25-1.71-.25h-.76v3.23h0ZM285.69,210.95h-3.34v-13.73h4.45c1.81,0,3.13.33,4.03,1.03.95.74,1.48,1.98,1.48,3.48,0,2.1-.88,3.48-2.66,4.18l3.03,5.04h-3.99l-3-5.31v5.31s0,0,0,0ZM286.77,203.77c1.36,0,2.18-.7,2.18-1.89,0-1.13-.8-1.91-1.98-1.91h-1.28v3.81h1.07ZM302.35,210.95h3.62l-4.5-13.73h-4.24l-4.53,13.73h3.52l.85-2.7h4.45l.84,2.7ZM297.9,205.55l1.38-4.4,1.38,4.4h-2.76Z"/>
          </g>
          <g>
            <path class="cls-12" d="M450.31,193.89c-.66-.01-1.33-.1-2.01-.15-.67-.05-.69-.04-.68.64.04,2.38.08,4.77.12,7.15.03,1.64.08,3.27.09,4.91,0,.49.21.64.61.6.69-.06,1.37-.09,2.03-.21.53-.1,1.19-.2,1.63-.53.84-.62,1.03-1.68,1.08-2.38.1-1.41-.01-5.8-.03-6.97-.02-1.93-1.05-3.03-2.84-3.07M451.35,203.34c0,1.42-.16,1.59-1.54,1.56-.04-3.03-.08-6.07-.13-9.16.22.01.4.02.57.03.79.05,1.02.3,1.03,1.15.02,1.63.03,3.26.06,4.89,0,.17,0,1.27,0,1.52"/>
            <path class="cls-12" d="M481.03,205.05c0-.63,0-1.26,0-1.89-.01-.97-.03-1.94-.04-2.91-.01-.8-.02-1.6-.02-2.41,0-.22-.05-.32-.19-.32-.2,0-.4-.04-.6-.1-.14-.04-.21,0-.24.23-.11.7-.24,1.41-.35,2.11-.26,1.61-.53,3.24-.79,4.87-.12.74-.11.74.32.74.28,0,.31-.04.39-.53.06-.41.12-.82.17-1.24.02-.12.09-.22.16-.21.13,0,.25.02.37,0,.13-.02.17.09.17.29,0,.39,0,.78,0,1.17-.01.45,0,.5.25.5.08,0,.16-.01.23,0,.14.03.18-.08.18-.31M480.29,202.21c-.11,0-.22-.01-.33-.02-.05,0-.08-.07-.06-.15.13-.91.26-1.8.4-2.69,0-.04.09-.05.09.01,0,.9-.01,1.81-.02,2.74,0,.06-.03.11-.06.11"/>
            <path class="cls-12" d="M426.62,199.66c-1.11.07-2.26.12-3.41.26-.22.03-.52.36-.54.57-.05.46.06.92.1,1.38.04.5.32.77,1.01.65.53-.09.71.09.74.49.09,1.13.24,2.25.33,3.37.03.33,0,.69-.11,1.02-.08.22-.32.49-.56.59-1.37.57-2.28.23-2.43-.96-.21-1.69-.35-3.4-.51-5.1-.17-1.74-.36-3.49-.5-5.23-.04-.53-.07-1.23.76-1.34,1.46-.2,2.13-.21,2.33,1.11.03.2-.01.45.12.6.19.21.51.46.78.47.68.04,1.38.03,2.02-.08.26-.04.63-.37.63-.57.04-2.01-1.18-3.96-4.65-4.27-3.19-.28-5.92,1.07-5.97,3.37-.04,1.59.19,3.18.36,4.77.23,2.15.6,4.28.73,6.44.17,2.63,1.93,3.93,5.14,3.78,2.95-.14,5.31-2.24,5.17-4.54-.13-1.99-.33-3.97-.44-5.96-.03-.64-.35-.86-1.09-.81"/>
            <path class="cls-12" d="M446.36,203.41c-.3-1.69-.62-3.39-.94-5.1-.26-1.41-.51-2.83-.75-4.26-.07-.4-.25-.56-.71-.55-.64.01-1.3-.03-1.96-.12-.46-.06-.67.04-.72.45-.16,1.29-.35,2.57-.52,3.87-.38,2.97-.76,5.98-1.11,9.03-.16,1.39-.13,1.38,1.27,1.21.91-.11,1.01-.2,1.09-1.09.07-.75.13-1.5.2-2.27.02-.23.21-.41.44-.42.43-.02.81-.04,1.17-.1.41-.07.56.12.62.46.11.69.25,1.37.33,2.07.1.8.16.88.92.79.24-.03.49-.08.72-.07.42,0,.54-.19.47-.6-.18-1.09-.34-2.19-.53-3.29M443.79,201.91c-.36.02-.72.03-1.07.05-.15,0-.26-.11-.25-.26.16-1.66.32-3.28.49-4.89.01-.08.26-.11.29.01.24,1.61.48,3.22.72,4.88.02.1-.07.2-.17.21"/>
            <path class="cls-12" d="M437.25,193.15h0s0,0,0,0c-.07-.01-.15-.01-.24-.01-.31-.01-.87-.04-1.27-.06-.65-.09-.81.18-.77.72.13,2.13.23,4.26.35,6.39.09,1.75.21,3.5.28,5.25.03.79-.29,1.08-1.16,1.17-.76.08-1.26-.27-1.31-.99-.08-1.3-.12-2.6-.2-3.9-.15-2.58-.3-5.16-.49-7.74-.07-1.02-.13-1.04-1.36-1.05-.36,0-.72.02-1.08-.02-.61-.07-.78.17-.75.61.07.83.12,1.67.19,2.5.3,3.5.56,6.99.91,10.47.13,1.3,1.07,2.15,2.4,2.45,1.32.31,2.68.12,3.85-.66,1.31-.87,1.78-2.04,1.7-3.41-.11-1.79-.18-3.58-.26-5.38-.09-1.87-.2-3.74-.26-5.61-.01-.43-.13-.68-.52-.74"/>
            <path class="cls-12" d="M462.66,204.35c-.46.03-.93.04-1.49.06,0-.43.02-.8.02-1.16.05-2.39.11-4.79.16-7.18.02-1.13.01-1.13-.9-1.18-.47-.02-.52.04-.53.62-.06,3.38-.11,6.76-.17,10.14,0,.34.09.46.36.44.66-.05,1.31-.07,1.94-.12,1.04-.08.87.18.91-1.25,0-.28-.07-.39-.29-.37"/>
            <path class="cls-12" d="M467.6,202.88c-.09-1.24-.19-2.48-.29-3.73-.08-1.03-.15-2.06-.22-3.1-.02-.29-.11-.41-.35-.41-.33,0-.67-.05-1-.13-.23-.05-.34.01-.39.3-.13.91-.29,1.83-.42,2.75-.32,2.1-.63,4.22-.94,6.36-.14.97-.12.97.59.94.47-.02.52-.08.6-.71.07-.53.13-1.06.2-1.61.02-.16.12-.28.24-.28.22,0,.42.01.61-.01.22-.03.29.11.3.36.03.5.07,1,.09,1.51.02.59.05.64.45.62.13,0,.26-.03.39-.01.22.02.29-.11.27-.41-.05-.8-.09-1.61-.15-2.41M466.31,201.68c-.19,0-.37,0-.56-.01-.08,0-.13-.09-.12-.19.15-1.18.3-2.34.45-3.49,0-.06.14-.07.15.02.06,1.17.12,2.33.17,3.54,0,.08-.04.14-.1.14"/>
            <path class="cls-12" d="M471.44,196.25c-.14,0-.28-.04-.42-.08-.25-.08-.32.14-.34.44-.11,2.16-.22,4.32-.34,6.48-.01.22-.01.44-.04.66-.04.36-.2.55-.47.56-.25.01-.39-.16-.42-.52-.01-.15,0-.3,0-.44.01-.48,0-.51-.33-.52-.17,0-.33-.03-.5,0-.07,0-.17.11-.19.2-.22.99.1,2.12.73,2.54.79.52,2.04-.03,2.16-1.8.08-1.16.33-5.85.4-7.03.02-.29-.03-.46-.25-.46"/>
            <path class="cls-12" d="M474.86,202.98c-.04-1.09-.09-2.19-.14-3.29-.04-.9-.07-1.81-.1-2.72,0-.25-.07-.36-.26-.36-.26,0-.51-.05-.77-.12-.17-.05-.26.01-.3.26-.12.8-.26,1.6-.39,2.4-.29,1.83-.58,3.68-.86,5.54-.13.84-.12.85.43.83.36,0,.4-.06.48-.61.06-.46.12-.93.19-1.41.02-.14.1-.24.19-.24.17,0,.32.02.47,0,.17-.02.22.1.23.32.01.44.04.88.04,1.32,0,.51.02.57.34.56.1,0,.2-.02.3,0,.17.03.23-.09.22-.36-.02-.71-.04-1.42-.06-2.13M473.89,201.91c-.14,0-.29-.01-.43-.02-.06,0-.1-.08-.09-.17.14-1.03.28-2.04.42-3.05,0-.05.11-.06.11.02.02,1.02.04,2.05.06,3.1,0,.07-.04.12-.08.12"/>
            <path class="cls-12" d="M458.61,202.94c-.16-1.43-.34-2.86-.52-4.3-.14-1.19-.28-2.38-.41-3.58-.04-.33-.16-.47-.48-.47-.44,0-.9-.05-1.35-.14-.31-.06-.47.02-.51.36-.15,1.06-.32,2.13-.47,3.2-.35,2.45-.7,4.93-1.02,7.43-.15,1.14-.13,1.14.83,1.06.63-.05.7-.12.79-.86.07-.62.13-1.24.2-1.88.02-.19.16-.33.32-.33.3,0,.56,0,.82-.04.29-.04.39.12.42.41.06.58.14,1.16.18,1.74.05.68.09.74.63.7.17-.01.34-.04.51-.03.3.02.39-.14.35-.48-.1-.92-.18-1.85-.28-2.78M456.85,201.6c-.25,0-.5,0-.75,0-.1,0-.18-.1-.17-.22.16-1.37.32-2.72.48-4.06,0-.07.18-.08.2.02.12,1.35.24,2.7.37,4.09,0,.09-.05.17-.13.17"/>
            <path class="cls-12" d="M477.6,201.9c.31-.27.49-.67.6-1.16.16-.71.22-1.44.18-2.17-.04-.79-.4-1.4-.84-1.49-.3-.06-.6-.12-.91-.17-.39-.06-.39-.06-.43.57-.09,1.34-.17,2.68-.26,4.02-.08,1.16-.17,2.33-.25,3.49-.03.34.04.44.26.43.1,0,.19,0,.28,0,.21,0,.27-.09.29-.42.06-.93.13-1.86.19-2.78,0-.08.02-.17.04-.25.07.1.1.21.11.32.12.88.23,1.76.34,2.63.06.48.07.51.36.52.09,0,.18,0,.26,0,.23,0,.26-.04.21-.41-.14-1.03-.28-2.07-.44-3.14M477.51,200.24s-.01.09-.03.13c0,.01,0,.02,0,.03-.06.24-.2.35-.39.34-.09,0-.18-.01-.27-.02.05-.8.1-1.54.14-2.28,0-.01,0-.03,0-.05,0-.07,0-.13.01-.2.06,0,.12.01.18.02.01,0,.02,0,.04,0,.02,0,.04,0,.05,0,.19.03.31.18.34.44,0,.04.01.09.01.13,0,.24-.02.48-.04.72-.02.24-.03.48-.06.72"/>
            <path class="cls-12" d="M497,222.57c0,.97-.76,1.74-1.76,1.74s-1.77-.76-1.77-1.74.79-1.72,1.77-1.72,1.76.76,1.76,1.72M493.91,222.57c0,.76.56,1.37,1.34,1.37s1.31-.61,1.31-1.36-.55-1.38-1.32-1.38-1.33.62-1.33,1.37M494.97,223.47h-.4v-1.72c.16-.03.38-.05.66-.05.32,0,.47.05.6.13.09.07.17.21.17.38,0,.19-.15.33-.36.4v.02c.17.06.26.19.31.42.05.26.08.37.13.43h-.43c-.05-.06-.08-.22-.14-.42-.03-.19-.14-.27-.36-.27h-.19v.69ZM494.98,222.5h.19c.22,0,.4-.07.4-.25,0-.16-.12-.26-.37-.26-.1,0-.18.01-.22.02v.49Z"/>
            <path class="cls-12" d="M439.02,210.22c-.35.07-.69.1-1.03.15-.32.05-.33.06-.3.5.09,1.56.19,3.11.28,4.67.07,1.07.14,2.14.2,3.21.02.32.12.43.32.44.35.02.71.06,1.06.03.29-.03.67-.04.92-.24.49-.39.57-1.17.57-1.69,0-1.05-.23-4.32-.28-5.19-.09-1.43-.74-2.1-1.74-1.88M439.93,216.8c.05,1.01-.03,1.12-.8,1.03-.12-2.07-.25-4.15-.37-6.26.12-.01.21-.02.3-.03.43-.05.57.11.6.71.07,1.16.13,2.32.21,3.47,0,.12.05.9.06,1.08"/>
            <path class="cls-12" d="M492.22,223.81c-.16-1.49-.27-2.96-.45-4.43-.27-2.23-.61-4.44-.9-6.63-.24-1.77-.47-3.53-.68-5.28-.06-.48-.36-.67-1.16-.62-1.08.07-2.13.07-3.16.03-.68-.03-1.02.1-1.15.56-.41,1.44-.86,2.87-1.27,4.29-.92,3.2-1.81,6.35-2.64,9.47-.37,1.39-.34,1.4,1.51,1.68,1.29.2,1.43.14,1.68-.82.21-.81.4-1.63.6-2.48.06-.25.37-.41.72-.36.67.09,1.26.17,1.86.2.69.04.92.3.96.74.09.87.21,1.74.25,2.61.04,1.01.13,1.13,1.49,1.36.44.08.9.13,1.34.24.8.21,1.07.01,1-.54M487.47,216.87c-.57-.05-1.14-.11-1.71-.16-.23-.02-.39-.18-.35-.34.48-1.87.97-3.72,1.46-5.58.03-.09.44-.12.46.02.16,1.91.31,3.83.46,5.84,0,.13-.14.23-.32.21"/>
            <path class="cls-12" d="M429.87,214.85c-.25.03-.49.04-.73.09-.04,0-.1.15-.1.24,0,.19.03.39.04.59.02.21.08.34.22.3.11-.03.15.06.17.23.04.49.09.98.13,1.47.01.15.01.3,0,.44-.01.09-.06.19-.11.22-.28.15-.47-.04-.52-.54-.07-.71-.13-1.42-.19-2.13-.06-.73-.13-1.45-.19-2.18-.02-.22-.03-.51.12-.57.29-.11.42-.13.49.45.01.09,0,.2.04.26.04.09.11.2.17.2.15.02.3,0,.44-.05.06-.02.14-.18.13-.27-.03-.93-.35-1.78-1.08-1.79-.62-.01-1.08.59-1.05,1.51.02.63.08,1.26.14,1.88.07.85.17,1.7.23,2.54.07,1.03.42,1.67,1.05,1.86.64.19,1.16-.57,1.08-1.62-.07-.91-.16-1.82-.22-2.73-.02-.29-.1-.4-.27-.38"/>
            <path class="cls-12" d="M436.88,216.77c-.18-1.07-.38-2.12-.56-3.18-.15-.86-.3-1.72-.44-2.57-.04-.24-.12-.32-.31-.27-.25.07-.51.1-.76.11-.17,0-.25.08-.25.32-.02.75-.06,1.49-.08,2.23-.06,1.67-.12,3.33-.16,4.99-.02.74-.01.74.48.76.34,0,.37-.03.38-.54,0-.42.01-.85.02-1.29,0-.13.07-.23.16-.23.17,0,.32,0,.46-.02.17-.03.24.09.27.3.07.42.14.84.2,1.27.06.49.09.54.42.55.11,0,.22,0,.32.01.19.04.24-.08.2-.34-.12-.7-.22-1.41-.34-2.1M435.73,215.81c-.14,0-.28.01-.42.02-.06,0-.1-.07-.1-.15.02-.96.04-1.92.06-2.87,0-.05.1-.08.11,0,.14.95.28,1.9.42,2.89,0,.06-.02.12-.06.12"/>
            <path class="cls-12" d="M432.92,211.11h0s0,0,0,0c-.02,0-.05,0-.07.01-.1.01-.26.04-.38.05-.19,0-.23.14-.21.42.09,1.09.16,2.18.24,3.27.07.89.14,1.79.2,2.68.03.4-.06.53-.31.53-.21,0-.36-.2-.39-.56-.05-.64-.09-1.27-.14-1.91-.1-1.26-.19-2.53-.29-3.79-.04-.5-.06-.51-.37-.44-.09.02-.18.05-.27.05-.15,0-.18.12-.17.32.03.39.06.77.09,1.16.14,1.63.27,3.26.43,4.89.06.61.32,1.07.68,1.31.37.25.77.27,1.11-.04.4-.36.52-.95.46-1.69-.08-.96-.14-1.93-.21-2.89-.07-1-.15-2.01-.22-3.01-.01-.23-.06-.36-.18-.36"/>
            <path class="cls-12" d="M449.3,217.93c-.48,0-.96-.03-1.52-.04-.01-.39-.03-.73-.04-1.06-.07-2.18-.14-4.36-.22-6.54-.04-1.03-.05-1.03-.9-.88-.42.07-.46.14-.44.65.11,2.94.23,5.88.34,8.83.01.3.1.41.34.43.61.03,1.24.08,1.88.11,1.12.05.94.28.9-1.1,0-.27-.09-.38-.33-.38"/>
            <path class="cls-12" d="M455.33,216.62c-.22-1.4-.46-2.79-.69-4.18-.18-1.13-.36-2.25-.53-3.36-.05-.31-.18-.42-.51-.35-.45.08-.89.13-1.33.13-.29,0-.43.1-.46.41-.11.96-.23,1.92-.34,2.87-.25,2.15-.49,4.29-.71,6.4-.1.95-.08.95.75,1.01.57.04.63-.01.69-.66.05-.54.1-1.09.14-1.66.01-.17.14-.29.29-.28.29.01.54.03.8,0,.29-.02.4.13.44.41.08.55.17,1.1.23,1.66.07.65.11.71.69.76.19.01.38.01.56.05.34.07.44-.08.38-.43-.14-.93-.26-1.86-.4-2.78M453.42,215.29c-.24,0-.49,0-.73,0-.1,0-.17-.09-.16-.2.12-1.25.24-2.48.36-3.71,0-.06.18-.1.19,0,.16,1.23.31,2.47.47,3.77.01.08-.05.15-.12.15"/>
            <path class="cls-12" d="M461.21,208.04c-.28.05-.56.05-.84.04-.49-.01-.61.29-.61.66-.02,2.75-.04,5.49-.06,8.24,0,.28.01.56-.01.84-.05.46-.33.67-.81.66-.44-.02-.7-.24-.78-.69-.03-.18-.03-.36-.03-.54-.01-.59-.04-.62-.6-.65-.28-.01-.55-.04-.82-.02-.11,0-.26.13-.29.23-.27,1.14.32,2.5,1.39,3.11,1.43.8,3.78.39,3.88-1.96.06-1.54.14-7.8.16-9.38,0-.39-.1-.6-.57-.52"/>
            <path class="cls-12" d="M469.01,217.22c-.25-1.71-.53-3.4-.78-5.08-.21-1.37-.41-2.72-.6-4.08-.05-.37-.24-.51-.72-.44-.65.09-1.3.13-1.93.13-.42,0-.62.11-.69.48-.2,1.15-.43,2.29-.64,3.43-.46,2.56-.91,5.1-1.33,7.61-.19,1.12-.16,1.13,1.01,1.24.81.08.9.03,1.02-.75.1-.65.19-1.3.29-1.98.03-.2.22-.34.43-.32.42.03.78.06,1.15.06.43,0,.57.18.61.52.08.67.19,1.34.24,2.01.06.78.12.87.96.96.27.03.55.04.82.1.49.1.64-.06.58-.49-.15-1.13-.27-2.26-.44-3.39M466.31,215.51c-.35-.01-.7-.02-1.06-.04-.14,0-.25-.12-.23-.25.23-1.49.46-2.96.7-4.44.01-.07.26-.11.28,0,.16,1.49.32,2.98.49,4.55.01.1-.08.18-.19.18"/>
            <path class="cls-12" d="M445.19,216.52c-.2-1.22-.42-2.42-.62-3.63-.17-.98-.33-1.96-.49-2.93-.04-.27-.14-.36-.39-.31-.33.08-.66.12-.99.12-.22,0-.32.09-.34.36-.06.85-.13,1.69-.19,2.53-.13,1.9-.26,3.78-.38,5.64-.05.84-.04.84.59.87.44.02.48-.03.51-.6.03-.48.04-.96.06-1.46,0-.15.1-.26.21-.25.22,0,.41.01.6,0,.22-.02.3.11.34.35.07.48.16.96.21,1.44.07.56.1.62.53.64.14,0,.28,0,.42.02.25.05.32-.08.28-.38-.13-.8-.24-1.61-.37-2.41M443.73,215.39c-.18,0-.37,0-.55.01-.07,0-.13-.08-.13-.17.06-1.09.11-2.17.17-3.26,0-.05.13-.09.15,0,.15,1.08.3,2.16.45,3.29,0,.07-.03.14-.09.14"/>
            <path class="cls-12" d="M476.82,215.73c1.13-.45,1.78-1.18,2.14-2.1.53-1.33.65-2.7.39-4.05-.28-1.44-1.8-2.4-3.5-2.37-1.07.02-2.12.05-3.14.09-1.24.06-1.25.06-1.29,1.09-.1,2.18-.18,4.36-.29,6.54-.09,1.89-.21,3.78-.32,5.66-.03.55.17.75.84.81.3.03.59.09.89.13.68.1.87-.03.9-.6.08-1.58.17-3.16.26-4.74,0-.14.06-.29.09-.43.26.18.37.37.44.56.53,1.56,1.06,3.14,1.58,4.75.29.9.35.95,1.41,1.14.34.06.68.12,1.02.17.94.15,1.03.07.77-.67-.72-2.02-1.45-4-2.19-5.99M476.21,212.75c0,.08-.04.15-.09.22,0,.02-.02.03-.03.05-.2.43-.68.63-1.34.62-.32,0-.63-.02-.94-.03.06-1.37.11-2.63.17-3.89,0-.02,0-.05.01-.08,0-.12,0-.23.01-.34.21,0,.42-.01.63-.01.04,0,.08,0,.13,0,.06,0,.13,0,.19,0,.69,0,1.16.22,1.31.67.04.07.07.15.07.23,0,.43,0,.86-.02,1.29-.02.43-.05.86-.1,1.29"/>
          </g>
        </g>
        <g>
          <path class="cls-18" d="M23.71,272.61l-3.01-10.66h-6.75v2.86c-.89-1.7-3.01-2.72-5.96-2.72-3.49,0-6.6,1.62-6.75,5.48h4.46c.15-1.19,1-1.77,2.17-1.77.97,0,1.94.4,1.94,1.5,0,1.55-1.62,1.7-2.94,1.7v2.91c1.19,0,3.07.17,3.07,1.84,0,.97-.77,1.94-2.2,1.94-1.54,0-2.37-.94-2.37-2.47H.72c0,4.09,2.86,6.16,6.75,6.16,3.02,0,5.31-.92,6.5-2.71v2.35h5.03v-5.78c0-1.37-.18-3.67-.35-5.18h.05l3.11,10.94h3.89l3.11-10.94h.05c-.22,1.95-.35,3.82-.35,5.73v5.23h5.03v-17.05h-6.75l-3.07,10.64ZM13.93,271.07c-.38-.43-.89-.78-1.5-1.02.7-.33,1.17-.8,1.5-1.37v2.39Z"/>
          <g id="Capa_1-2" data-name="Capa 1">
            <g>
              <g>
                <path class="cls-4" d="M184.58,272.25v1.38c0,.13.04.23.14.32.09.09.22.13.37.13h1.5v2.64c-.37.18-.76.31-1.17.41-.41.1-.89.15-1.44.15-.62,0-1.2-.11-1.73-.32-.53-.22-.98-.53-1.36-.93-.38-.41-.68-.9-.89-1.49-.21-.59-.32-1.27-.32-2.02,0-.7.1-1.34.3-1.91.2-.57.49-1.06.85-1.46.37-.41.82-.72,1.34-.94.52-.22,1.11-.33,1.76-.33,1.21,0,2.74.64,2.93.73.19.08.37.19.59.21.18.02.35-.02.49-.1.14-.08.26-.19.35-.32l.57-.86s0,0,0,0c-1.31-1.08-3.65-1.56-4.95-1.56,0,0-.09,0-.12,0-.97.01-1.85.17-2.63.47-.82.32-1.45.75-2.03,1.32-.57.58-1.02,1.27-1.33,2.07-.31.8-.47,1.68-.47,2.64,0,6.26,5.4,6.99,7.66,6.73.47-.06,1.2-.19,1.61-.31.41-.12.79-.26,1.15-.44.36-.18.7-.39,1.04-.63v-3.73s.31,0,.31,0c.16,0,.28-.04.37-.13.09-.09.14-.19.14-.32v-1.38h-5.04,0Z"/>
                <path class="cls-4" d="M148.52,270.07c.56.22,1.03.53,1.43.94.39.41.7.9.91,1.49.21.58.32,1.24.32,1.96s-.11,1.39-.32,1.97c-.22.58-.52,1.08-.91,1.5-.39.41-.87.73-1.43.95-.56.22-1.18.33-1.87.33s-1.31-.11-1.87-.33c-.56-.22-1.04-.54-1.44-.95-.4-.41-.7-.91-.92-1.5-.22-.58-.33-1.24-.33-1.97s.11-1.38.33-1.96c.22-.59.53-1.08.92-1.49.4-.41.88-.72,1.44-.94.56-.22,1.18-.33,1.87-.33s1.31.11,1.87.33ZM148.35,276.73c.37-.51.55-1.27.55-2.26s-.18-1.75-.55-2.26c-.37-.52-.93-.78-1.7-.78s-1.35.26-1.72.78c-.37.52-.56,1.28-.56,2.26s.18,1.74.56,2.25c.37.52.94.78,1.72.78s1.33-.26,1.7-.77Z"/>
                <path class="cls-4" d="M227.69,269.84c.35.08.66.2.95.35h2.14s0,.82,0,.82c0,.14-.04.24-.11.32-.07.08-.69.32-.69.32.06.16.11.32.14.49.03.17.05.36.05.55,0,.45-.09.86-.27,1.23-.18.37-.43.68-.75.93-.32.26-.7.46-1.14.6-.44.14-.91.21-1.43.21-.35,0-.68-.03-1.01-.1-.29.17-.43.37-.43.58,0,.18.09.32.26.41.17.09.39.15.67.19.28.03.59.06.94.07.35,0,.71.03,1.08.06.37.03.73.08,1.08.16.35.07.67.19.95.35.28.16.5.38.67.66.17.28.25.63.25,1.07,0,.41-.1.8-.3,1.18-.2.38-.49.72-.87,1.02-.38.3-.84.54-1.39.72-.55.18-1.17.27-1.88.27s-1.3-.07-1.82-.2c-.51-.13-.94-.31-1.28-.54-.34-.22-.59-.48-.76-.77-.17-.29-.25-.6-.25-.91,0-.43.13-.79.39-1.08.26-.29.63-.53,1.09-.7-.23-.13-.41-.29-.55-.5-.14-.21-.21-.48-.21-.81,0-.14.03-.28.07-.42.05-.15.12-.29.22-.44.1-.14.22-.28.37-.41.15-.13.33-.24.53-.34-.47-.25-.83-.59-1.1-1-.27-.42-.4-.91-.4-1.47,0-.45.09-.86.27-1.23.18-.37.44-.68.76-.94.33-.26.71-.46,1.15-.6.44-.14.93-.21,1.45-.21.39,0,.76.04,1.11.12h0ZM228.85,279.03c-.11-.11-.25-.2-.44-.26-.19-.06-.4-.11-.65-.14-.25-.03-.51-.05-.79-.07-.28-.02-.56-.03-.86-.04-.3-.01-.58-.04-.86-.08-.25.14-.45.3-.6.49-.15.19-.23.41-.23.65,0,.16.04.31.12.45.08.14.21.26.38.36.18.1.4.18.68.24.28.06.62.08,1.03.08s.77-.03,1.07-.09c.3-.06.54-.15.74-.26.2-.11.34-.24.42-.39.09-.15.14-.32.14-.5s-.05-.33-.16-.44h0ZM227.3,274.13c.2-.07.37-.18.51-.31.13-.13.24-.29.3-.47.07-.18.1-.39.1-.61,0-.45-.14-.81-.41-1.08-.27-.27-.68-.4-1.22-.4s-.95.13-1.22.4c-.27.27-.41.62-.41,1.08,0,.21.03.41.1.6.07.18.17.34.31.48.13.13.3.24.51.31.21.08.44.11.71.11s.51-.04.72-.11h0Z"/>
                <path class="cls-4" d="M140.63,277.45s-.24-.04-.37-.07v-11.41h-3v1.05c0,.31.15.5.45.56.03,0,.25.04.37.07v9.73c-.12.02-.34.06-.37.07-.3.07-.45.25-.45.56v1.05h3.81v-1.05c0-.31-.15-.5-.45-.56h0Z"/>
                <path class="cls-4" d="M175.57,277.45s-.24-.04-.37-.07v-11.41h-3v1.05c0,.31.15.5.45.56.03,0,.24.04.36.07v9.73c-.12.02-.34.06-.36.07-.3.07-.45.25-.45.56v1.05h3.81v-1.05c0-.31-.15-.5-.45-.56Z"/>
                <path class="cls-4" d="M170.29,277.43s-.24-.04-.36-.07v-4.12c0-.52-.08-1-.23-1.43-.15-.43-.38-.81-.67-1.12-.29-.31-.65-.56-1.07-.73-.42-.18-.9-.27-1.44-.27-1.49,0-2.77.48-3.82,1.45l.4.71c.07.11.15.21.26.29.11.08.24.12.38.12.18,0,.34-.04.49-.13.15-.08.31-.18.49-.28.18-.1.38-.2.62-.28.24-.08.54-.13.9-.13.49,0,.87.15,1.13.45.26.3.39.76.39,1.38v.54c-1.04,0-1.92.09-2.62.27-.7.18-1.27.4-1.69.68-.42.27-.73.58-.91.92-.18.34-.27.68-.27,1.03,0,.41.07.78.2,1.09.13.31.31.57.55.78.23.21.52.37.85.47.33.11.69.16,1.07.16,1.67,0,2.88-.8,3.11-1.01l.12.39c.06.19.15.32.27.38.12.06.28.09.49.09h1.81v-1.05c0-.31-.15-.5-.45-.56h0ZM167.77,276.76c-.16.16-1.18.9-2.14.9-.37,0-.67-.08-.9-.25-.23-.17-.34-.45-.34-.84,0-.2.06-.38.17-.55.11-.17.3-.31.56-.44.26-.13.61-.23,1.04-.31.43-.08.97-.12,1.61-.12v1.61h0Z"/>
                <g>
                  <path class="cls-4" d="M194.36,277.45s-.25-.04-.37-.07v-7.51h-3.03v1.05c0,.31.15.5.45.56.03,0,.25.04.37.07v5.83c-.12.02-.34.06-.36.07-.3.07-.45.25-.45.56v1.05h3.84v-1.05c0-.31-.15-.49-.45-.56h0Z"/>
                  <path class="cls-4" d="M191.77,268.18c.12.12.25.21.41.28.16.07.32.1.5.1s.35-.04.51-.1c.16-.07.3-.16.42-.28.12-.12.21-.25.28-.41.07-.15.11-.32.11-.49s-.04-.35-.11-.51c-.07-.16-.17-.3-.28-.41-.12-.12-.26-.21-.42-.28-.16-.07-.33-.1-.51-.1-.18,0-.34.03-.5.1-.16.07-.29.16-.41.28-.11.12-.21.25-.28.41-.07.16-.1.33-.1.51s.03.34.1.49c.07.15.16.29.28.41Z"/>
                </g>
                <g>
                  <path class="cls-4" d="M209.87,277.45s-.25-.04-.37-.07v-7.51h-3.03v1.05c0,.31.15.5.45.56.03,0,.25.04.37.07v5.83c-.12.02-.34.06-.36.07-.3.07-.45.25-.45.56v1.05h3.84v-1.05c0-.31-.15-.49-.45-.56h0Z"/>
                  <path class="cls-4" d="M207.28,268.18c.12.12.25.21.41.28.16.07.32.1.5.1s.35-.04.51-.1c.16-.07.3-.16.42-.28.12-.12.21-.25.28-.41.07-.15.11-.32.11-.49s-.04-.35-.11-.51c-.07-.16-.17-.3-.29-.41-.12-.12-.26-.21-.42-.28-.16-.07-.33-.1-.51-.1-.18,0-.34.03-.5.1-.16.07-.29.16-.41.28-.11.12-.21.25-.28.41-.07.16-.1.33-.1.51s.03.34.1.49c.07.15.16.29.28.41h0Z"/>
                </g>
                <path class="cls-4" d="M202.73,269.88s-2.42,6.47-2.46,6.69c-.04-.18-2.33-6.69-2.33-6.69h-2.45v1.05c0,.31.15.5.45.56.09.02.1.02.32.06l2.99,7.51h2.01l2.98-7.51c.22-.04.23-.04.32-.06.3-.06.45-.25.45-.56v-1.05h-2.27,0Z"/>
                <path class="cls-4" d="M220.96,277.45s-.24-.04-.36-.07v-4.17c0-.51-.07-.98-.2-1.41-.13-.43-.33-.79-.59-1.1-.26-.31-.58-.55-.97-.72-.39-.17-.83-.26-1.33-.26-.31,0-.6.03-.86.09-.26.06-.51.15-.74.26-.23.11-.45.25-.65.4-.21.16-.4.33-.59.52l-.15-.72c-.09-.27-.28-.4-.56-.4h-2.16v1.05c0,.31.15.5.45.56.03,0,.24.04.36.06,0,0,0,5.77,0,5.83-.12.02-.33.06-.36.06-.3.07-.45.25-.45.56v1.05h3.02v-6.64c.3-.3.61-.53.95-.71.33-.17.69-.26,1.07-.26.52,0,.91.15,1.17.46.26.31.39.74.39,1.3v5.85h3.02v-1.05c0-.31-.15-.49-.45-.56h0Z"/>
                <path class="cls-4" d="M160.23,270.89c-.63-.78-1.53-1.16-2.72-1.16-.88,0-1.77.32-2.59.92v-4.67h-3v1.05c0,.31.15.5.45.56.03,0,.24.04.35.06v11.29c.32.06.88.1,1.49.16.61.06,1.2.09,1.78.09,1.69,0,2.98-.43,3.86-1.3.88-.86,1.32-2.1,1.32-3.7,0-1.42-.31-2.52-.94-3.3h0ZM156.4,277.56c-.68,0-1.18-.05-1.49-.15v-5.18l.2-.21c.15-.15.38-.3.69-.44.32-.14.65-.21,1.02-.21,1.31,0,1.97.99,1.97,2.97,0,2.14-.8,3.22-2.39,3.22h0Z"/>
                <path class="cls-4" d="M131.27,272.25v1.38c0,.13.04.23.14.32.09.09.21.13.37.13h1.5v2.64c-.37.18-.76.31-1.17.41-.41.1-.89.15-1.44.15-.62,0-1.2-.11-1.73-.32-.53-.22-.98-.53-1.36-.93-.38-.41-.68-.9-.89-1.49-.21-.59-.32-1.27-.32-2.02,0-.7.1-1.34.3-1.91.2-.57.48-1.06.85-1.46.37-.41.82-.72,1.34-.94s1.11-.33,1.76-.33c1.21,0,2.74.64,2.92.73.19.08.37.19.59.21.18.02.35-.02.49-.1.14-.08.26-.19.35-.32l.58-.86s0,0,0,0c-1.31-1.08-3.65-1.56-4.95-1.56,0,0-.09,0-.12,0-.97.01-1.85.17-2.63.47-.82.32-1.45.75-2.03,1.32-.57.58-1.02,1.27-1.33,2.07-.31.8-.47,1.68-.47,2.64,0,6.26,5.4,6.99,7.66,6.73.47-.06,1.2-.19,1.61-.31.41-.12.79-.26,1.16-.44.36-.18.7-.39,1.04-.63v-3.73s.3,0,.3,0c.16,0,.28-.04.37-.13.09-.09.14-.19.14-.32v-1.38h-5.04Z"/>
              </g>
              <g>
                <path class="cls-11" d="M118.12,267.03c.8-.04,1.44-.7,1.44-1.52s-.68-1.52-1.52-1.52-1.47.63-1.52,1.44l-2.04-2.04-3.62,3.62,3.56,3.56-3.56,3.56,2.13,2.13,7.17-7.18-2.04-2.04h0Z"/>
                <path class="cls-20" d="M105.2,265.43c-.04-.8-.71-1.44-1.52-1.44s-1.52.68-1.52,1.52.64,1.47,1.44,1.52l-2.04,2.04,3.62,3.62,3.56-3.56,3.56,3.56,2.13-2.13-7.17-7.17-2.04,2.04Z"/>
                <path class="cls-7" d="M103.61,278.34c-.8.04-1.44.71-1.44,1.52s.68,1.52,1.52,1.52,1.47-.64,1.52-1.43l2.04,2.04,3.62-3.62-3.56-3.56,3.56-3.56-2.13-2.13-7.17,7.17,2.04,2.04h0Z"/>
                <path class="cls-8" d="M116.52,279.95c.04.8.71,1.43,1.52,1.43s1.52-.68,1.52-1.52-.64-1.47-1.44-1.52l2.04-2.04-3.62-3.62-3.56,3.56-3.56-3.56-2.13,2.13,7.17,7.18,2.04-2.04h0Z"/>
              </g>
            </g>
          </g>
          <g>
            <g>
              <g>
                <path class="cls-1" d="M429.45,273.79l-.07-7.89h3.17v12.95h-2.87l-4.95-7.8.07,7.8h-3.17v-12.95h2.85l4.97,7.89Z"/>
                <path class="cls-1" d="M433.65,272.51c0-4.23,3.25-6.86,6.82-6.86,3.99,0,6.84,3.11,6.84,6.72s-2.83,6.72-6.86,6.72-6.81-3.24-6.81-6.56v-.02ZM436.96,272.35c0,1.98,1.35,3.83,3.57,3.83,2.34,0,3.48-2.13,3.48-3.8s-1.14-3.83-3.52-3.83-3.53,1.96-3.53,3.78v.02Z"/>
                <path class="cls-1" d="M448.4,265.9h4.23c2.03,0,3.29.37,4.01.93,1.08.84,1.57,2.12,1.57,3.53,0,1-.28,1.77-.65,2.34-.44.68-1.07,1.12-1.68,1.38l2.68,4.76h-3.41l-3.38-6.25h.54c.84,0,1.56-.07,1.99-.35.4-.26.73-.87.73-1.59s-.33-1.22-.77-1.5c-.37-.23-.89-.35-1.35-.35h-1.22v10.04h-3.31v-12.95Z"/>
                <path class="cls-1" d="M461.39,268.8h-2.55v-2.9h8.4v2.9h-2.54v10.04h-3.31v-10.04Z"/>
                <path class="cls-1" d="M468.56,265.9h7.33v2.9h-4.02v2.01h3.9v2.9h-3.9v2.22h4.02v2.9h-7.33v-12.95Z"/>
              </g>
              <g>
                <path class="cls-1" d="M481.27,268.68h-2.12v-2.78h5.42v12.95h-3.31v-10.17Z"/>
                <path class="cls-1" d="M487.58,278.85l2.34-3.2c.18-.25.35-.47.51-.7-.02-.02-.42.04-.66.04-1.89,0-4.08-1.45-4.08-4.39s2.29-4.93,5.02-4.93c1.63,0,3.13.59,4.01,1.75.82.93,1.1,2.26,1.1,3.25,0,1.31-.54,2.47-1.19,3.46l-3.22,4.72h-3.83ZM492.57,270.32c0-1.17-.94-1.77-1.78-1.77-.94,0-1.78.7-1.78,1.73,0,.84.61,1.77,1.78,1.77,1.08,0,1.78-.8,1.78-1.71v-.02Z"/>
              </g>
              <path class="cls-1" d="M481.3,268.58h-2.12v-2.78h5.42v12.95h-3.31v-10.17Z"/>
              <path class="cls-1" d="M487.62,278.75l2.34-3.2c.18-.24.35-.47.51-.7-.02-.02-.42.03-.66.03-1.89,0-4.08-1.45-4.08-4.39s2.29-4.93,5.02-4.93c1.63,0,3.13.6,4.01,1.75.82.93,1.1,2.26,1.1,3.25,0,1.31-.54,2.47-1.19,3.46l-3.22,4.72h-3.83ZM492.6,270.22c0-1.17-.94-1.77-1.78-1.77-.94,0-1.78.7-1.78,1.73,0,.84.61,1.77,1.78,1.77,1.08,0,1.78-.81,1.78-1.71v-.02Z"/>
              <polygon class="cls-1" points="499.16 259.17 495.86 259.17 492.55 259.17 492.55 262.47 495.86 262.47 499.16 262.47 499.16 265.71 499.16 265.74 499.16 269.01 502.46 269.01 502.46 265.74 502.46 265.71 502.46 262.47 502.46 262.44 502.46 259.17 499.16 259.17"/>
            </g>
            <g>
              <path class="cls-1" d="M423.19,261.48c-.12-.07-.22-.16-.29-.27-.07-.12-.1-.25-.1-.4s.03-.29.1-.4c.07-.12.16-.21.29-.27.12-.06.26-.1.4-.1s.28.03.4.1c.12.07.21.16.28.27.07.12.1.25.1.4s-.03.29-.1.4c-.07.12-.16.21-.28.27-.12.06-.25.1-.4.1s-.28-.03-.4-.1ZM423.83,261.23c.07-.04.13-.09.17-.17.04-.07.06-.16.06-.25s-.02-.18-.06-.25-.1-.13-.17-.17c-.07-.04-.15-.06-.23-.06s-.17.02-.24.06c-.07.04-.13.09-.17.17-.04.07-.06.15-.06.25s.02.18.06.25c.04.07.1.13.17.17s.15.06.24.06.16-.02.23-.06Z"/>
              <path class="cls-1" d="M425.99,260.07h.62c.17,0,.3.04.4.13.1.09.15.21.15.37s-.05.28-.15.37c-.1.09-.23.13-.4.13h-.3v.48h-.32v-1.48ZM426.57,260.8c.18,0,.27-.08.27-.23,0-.09-.02-.15-.07-.18-.05-.03-.12-.05-.2-.05h-.25v.46h.25Z"/>
              <path class="cls-1" d="M428.75,260.07h1.03v.27h-.71v.34h.52v.26h-.52v.34h.71v.27h-1.03v-1.48Z"/>
              <path class="cls-1" d="M431.37,260.07h.64c.17,0,.3.04.39.13.09.08.14.21.14.36,0,.11-.03.2-.08.28-.05.08-.12.13-.22.17l.28.54h-.33l-.26-.5h-.25v.5h-.32v-1.48ZM431.95,260.78c.08,0,.15-.02.19-.05.05-.04.07-.09.07-.17,0-.08-.02-.14-.07-.17-.05-.03-.11-.05-.2-.05h-.26v.44h.26Z"/>
              <path class="cls-1" d="M434.61,260.07h.32l.59,1.48h-.33l-.13-.32h-.59l-.13.32h-.33l.59-1.48ZM434.98,260.97l-.21-.56-.21.56h.42Z"/>
              <path class="cls-1" d="M437.13,260.07h.52c.16,0,.3.03.42.09.12.06.21.14.28.25.06.11.1.24.1.39,0,.25-.07.43-.22.56-.14.13-.34.19-.6.19h-.5v-1.48ZM437.64,261.28c.15,0,.27-.04.35-.13.08-.08.12-.2.12-.35,0-.09-.02-.17-.05-.24-.04-.07-.09-.13-.15-.17s-.15-.06-.24-.06h-.21v.94h.19Z"/>
              <path class="cls-1" d="M440.39,261.48c-.12-.07-.22-.16-.29-.27-.07-.12-.1-.25-.1-.4s.03-.29.1-.4c.07-.12.16-.21.29-.27.12-.06.26-.1.4-.1s.28.03.4.1c.12.07.21.16.28.27.07.12.1.25.1.4s-.03.29-.1.4c-.07.12-.16.21-.28.27-.12.06-.25.1-.4.1s-.28-.03-.4-.1ZM441.03,261.23c.07-.04.13-.09.17-.17.04-.07.06-.16.06-.25s-.02-.18-.06-.25-.1-.13-.17-.17c-.07-.04-.15-.06-.23-.06s-.17.02-.24.06c-.07.04-.13.09-.17.17-.04.07-.06.15-.06.25s.02.18.06.25c.04.07.1.13.17.17s.15.06.24.06.16-.02.23-.06Z"/>
              <path class="cls-1" d="M443.2,260.07h.64c.17,0,.3.04.39.13.09.08.14.21.14.36,0,.11-.03.2-.08.28-.05.08-.12.13-.22.17l.28.54h-.33l-.26-.5h-.25v.5h-.32v-1.48ZM443.78,260.78c.08,0,.15-.02.19-.05.05-.04.07-.09.07-.17,0-.08-.02-.14-.07-.17-.05-.03-.11-.05-.2-.05h-.26v.44h.26Z"/>
              <path class="cls-1" d="M446.44,260.07h.32l.59,1.48h-.33l-.13-.32h-.59l-.13.32h-.33l.59-1.48ZM446.81,260.97l-.21-.56-.21.56h.42Z"/>
              <path class="cls-1" d="M451.13,260.07h.32v.59h.65v-.59h.32v1.48h-.32v-.62h-.65v.62h-.32v-1.48Z"/>
              <path class="cls-1" d="M454.42,261.48c-.12-.07-.22-.16-.29-.27-.07-.12-.1-.25-.1-.4s.03-.29.1-.4c.07-.12.16-.21.29-.27.12-.06.26-.1.4-.1s.28.03.4.1c.12.07.21.16.28.27.07.12.1.25.1.4s-.03.29-.1.4c-.07.12-.16.21-.28.27-.12.06-.25.1-.4.1s-.28-.03-.4-.1ZM455.06,261.23c.07-.04.13-.09.17-.17.04-.07.06-.16.06-.25s-.02-.18-.06-.25-.1-.13-.17-.17c-.07-.04-.15-.06-.23-.06s-.17.02-.24.06c-.07.04-.13.09-.17.17-.04.07-.06.15-.06.25s.02.18.06.25c.04.07.1.13.17.17s.15.06.24.06.16-.02.23-.06Z"/>
              <path class="cls-1" d="M457.46,260.34h-.43v-.27h1.19v.27h-.43v1.21h-.32v-1.21Z"/>
              <path class="cls-1" d="M459.79,260.07h1.03v.27h-.71v.34h.52v.26h-.52v.34h.71v.27h-1.03v-1.48Z"/>
              <path class="cls-1" d="M462.4,260.07h.32v1.21h.68v.27h-1v-1.48Z"/>
              <path class="cls-1" d="M464.94,260.07h1.03v.27h-.71v.34h.52v.26h-.52v.34h.71v.27h-1.03v-1.48Z"/>
              <path class="cls-1" d="M467.56,260.07h.64c.17,0,.3.04.39.13s.14.21.14.36c0,.11-.03.2-.08.28-.05.08-.12.13-.22.17l.28.54h-.33l-.26-.5h-.25v.5h-.32v-1.48ZM468.14,260.78c.08,0,.15-.02.19-.05.05-.04.07-.09.07-.17,0-.08-.02-.14-.07-.17s-.11-.05-.2-.05h-.26v.44h.26Z"/>
              <path class="cls-1" d="M470.8,260.07h.32l.59,1.48h-.33l-.13-.32h-.59l-.13.32h-.33l.59-1.48ZM471.17,260.97l-.21-.56-.21.56h.42Z"/>
            </g>
          </g>
          <g>
            <g>
              <path class="cls-14" d="M309.38,269.57h3.04v-3.36c0-.94-.44-1.41-1.35-1.41h-.34c-.9,0-1.35.47-1.35,1.41v3.36h.01ZM309.38,271.72v3.7c.01.94.46,1.4,1.36,1.4h.39c.9,0,1.35-.46,1.35-1.4v-1.82h2.07v1.73c0,2.37-1.15,3.59-3.43,3.59h-.45c-2.28,0-3.43-1.2-3.43-3.3v-9.04c0-2.66,1.15-3.86,3.43-3.86h.45c2.28,0,3.43,1.2,3.43,3.57v5.42h-5.18Z"/>
              <path class="cls-14" d="M318.09,275.97c.59.53,1.26.82,1.97.82.79,0,1.24-.38,1.24-1.29v-9.39c0-.91-.45-1.29-1.24-1.29-.71,0-1.38.29-1.97.82v10.34ZM315.95,262.89h2.14v1.03c.5-.56,1.37-1.2,2.62-1.2,1.83,0,2.73,1.26,2.73,3.14v9.92c0,1.88-.9,3.14-2.73,3.14-1.24,0-2.11-.62-2.62-1.14v5.11h-2.14v-20Z"/>
              <path class="cls-14" d="M329.84,276.06v-5.22l-1.94.77c-.79.32-1.04.74-1.04,1.65v2.4c0,.77.36,1.14,1.04,1.14s1.24-.23,1.94-.74M324.72,273.21c0-1.97.62-2.76,2.25-3.34l2.87-1.03v-2.64c0-.94-.45-1.43-1.35-1.43h-.34c-.9,0-1.35.49-1.35,1.43v2.24h-2.08v-2.15c0-2.37,1.15-3.57,3.43-3.57h.4c2.28,0,3.43,1.2,3.43,3.57v12.44h-2.14v-1c-.59.59-1.38,1.17-2.62,1.17-1.72,0-2.5-1.03-2.5-2.79v-2.91Z"/>
              <path class="cls-14" d="M340.63,278.74h-2.14v-12.76c0-.79-.36-1.14-1.01-1.14-.59,0-1.21.23-1.97.79v13.12h-2.14v-15.85h2.14v1.03c.63-.62,1.43-1.21,2.62-1.21,1.1,0,1.83.47,2.22,1.29.77-.68,1.67-1.29,2.9-1.29,1.66,0,2.5,1.06,2.5,2.79v13.23h-2.14v-12.75c0-.79-.36-1.14-1.01-1.14-.59,0-1.21.23-1.97.79v13.12h0Z"/>
            </g>
            <polygon class="cls-14" points="299.01 269.8 299.01 271.94 304.5 277.32 304.5 274.34 300.91 270.84 304.5 267.26 304.5 264.35 299.01 269.8"/>
            <polygon class="cls-14" points="348.46 267.26 352.06 270.84 348.46 274.35 348.46 277.32 353.96 271.94 353.96 269.8 348.46 264.35 348.46 267.26"/>
          </g>
        </g>
      </g>
    </g>
  </g>
</svg>