<?xml version="1.0" encoding="UTF-8"?>
<svg id="Layer_2" data-name="Layer 2" xmlns="http://www.w3.org/2000/svg" xmlns:xlink="http://www.w3.org/1999/xlink" viewBox="0 0 105.62 22.95">
  <defs>
    <style>
      .cls-1 {
        fill: #e41683;
      }

      .cls-2 {
        fill: #322e47;
      }

      .cls-3 {
        fill: url(#Degradado_sin_nombre_14);
      }
    </style>
    <linearGradient id="Degradado_sin_nombre_14" data-name="Degradado sin nombre 14" x1="-3659.8" y1="-1343.68" x2="-3659.65" y2="-1343.68" gradientTransform="translate(744844.49 -273454.5) scale(203.52 -203.52)" gradientUnits="userSpaceOnUse">
      <stop offset="0" stop-color="#f9af0a"/>
      <stop offset=".02" stop-color="#f9af0a"/>
      <stop offset=".1" stop-color="#f7a40a"/>
      <stop offset=".26" stop-color="#f08225"/>
      <stop offset=".47" stop-color="#ea5451"/>
      <stop offset=".73" stop-color="#e61281"/>
      <stop offset=".77" stop-color="#e41683"/>
      <stop offset="1" stop-color="#e41683"/>
    </linearGradient>
  </defs>
  <g id="Capa_1" data-name="Capa 1">
    <g>
      <path class="cls-3" d="M16.09,0H2.58l1.33,4.59h12.15c1.27,0,2.3,1.02,2.3,2.3v2.3H6.89c-3.79,0-6.89,3.09-6.89,6.89s3.09,6.89,6.89,6.89h9.18c3.79,0,6.89-3.09,6.89-6.89V6.91c.02-3.81-3.07-6.91-6.87-6.91ZM18.38,16.09c0,1.27-1.02,2.3-2.3,2.3H6.89c-1.27,0-2.3-1.02-2.3-2.3s1.02-2.3,2.3-2.3h11.5v2.3h0Z"/>
      <polygon class="cls-1" points="29.55 9.2 25.37 9.2 25.37 13.79 30.88 13.79 29.55 9.2"/>
      <path class="cls-2" d="M46.32,16.13h-2.01v-1.11c-.64.82-1.58,1.35-2.89,1.35-2.58,0-4.61-2.03-4.61-4.84s2.03-4.84,4.61-4.84c1.31,0,2.25.53,2.89,1.35v-1.11h2.01v9.18ZM38.88,11.52c0,1.62,1.05,2.95,2.79,2.95s2.77-1.27,2.77-2.95-1.11-2.95-2.77-2.95c-1.74,0-2.79,1.35-2.79,2.95Z"/>
      <path class="cls-2" d="M63.61,10.35v5.78h-2.01v-5.12c0-1.56-.8-2.42-2.15-2.42s-2.38.86-2.38,2.44v5.1h-2.03v-5.12c0-1.56-.8-2.42-2.15-2.42s-2.38.86-2.38,2.44v5.1h-2.03V6.93h2.01v1.13c.74-1.09,1.89-1.37,2.83-1.37,1.39,0,2.54.61,3.18,1.64.8-1.31,2.21-1.64,3.36-1.64,2.21,0,3.75,1.52,3.75,3.67Z"/>
      <path class="cls-2" d="M86.59,11.52c0,2.77-2.11,4.84-4.96,4.84s-4.94-2.09-4.94-4.84,2.11-4.84,4.94-4.84,4.96,2.09,4.96,4.84ZM78.74,11.52c0,1.74,1.23,2.95,2.89,2.95s2.89-1.21,2.89-2.95-1.25-2.95-2.89-2.95c-1.66,0-2.89,1.21-2.89,2.95Z"/>
      <path class="cls-2" d="M96.28,8.16l-1.29,1.37c-.64-.61-1.33-.94-2.21-.94-1.56,0-2.73,1.21-2.73,2.95s1.17,2.95,2.73,2.95c.88,0,1.68-.41,2.25-.96l1.25,1.37c-.84.96-2.07,1.48-3.44,1.48-2.93,0-4.84-2.09-4.84-4.84s1.91-4.84,4.84-4.84c1.37-.02,2.62.47,3.44,1.46Z"/>
      <path class="cls-2" d="M104.56,9.22c-.55-.35-1.7-.78-2.85-.78-1.09,0-1.74.45-1.74,1.09s.68.82,1.52.94l.94.14c2.01.29,3.2,1.15,3.2,2.73,0,1.76-1.54,3.01-4.18,3.01-.94,0-2.6-.18-3.96-1.19l.92-1.52c.66.51,1.54.94,3.03.94,1.37,0,2.09-.43,2.09-1.13,0-.51-.49-.86-1.6-1.02l-.96-.12c-2.03-.29-3.12-1.23-3.12-2.71,0-1.82,1.46-2.95,3.81-2.95,1.43,0,2.79.35,3.73.96l-.84,1.6Z"/>
      <path class="cls-2" d="M72.83,8.03v-3.38l2.01-.72v12.19h-2.01v-1.11c-.64.82-1.58,1.35-2.89,1.35-2.58,0-4.61-2.03-4.61-4.84s2.03-4.84,4.61-4.84c1.29-.02,2.25.51,2.89,1.33ZM67.4,11.52c0,1.62,1.05,2.95,2.79,2.95s2.79-1.27,2.79-2.95-1.11-2.95-2.79-2.95c-1.74,0-2.79,1.35-2.79,2.95Z"/>
    </g>
  </g>
</svg>