<?xml version="1.0" encoding="UTF-8"?>
<svg id="Layer_2" data-name="Layer 2" xmlns="http://www.w3.org/2000/svg" viewBox="0 0 100.65 42.29">
  <defs>
    <style>
      .cls-1 {
        fill: #e7004c;
      }

      .cls-2 {
        fill: #ff8300;
      }
    </style>
  </defs>
  <g id="Capa_1" data-name="Capa 1">
    <g>
      <polygon class="cls-2" points="43.41 28.1 43.41 28.1 43.37 28.25 43.99 28.25 46.99 16.12 46.99 16.12 47.15 15.47 46.54 15.47 43.41 28.1"/>
      <g>
        <path class="cls-1" d="M56.35,25.49h-5.7v-7.13h5.56v1.69h-3.57v1.02h3.37v1.64h-3.37v1.08h3.72v1.7Z"/>
        <path class="cls-1" d="M60.84,18.37h1.87v7.13h-1.67l-.08-.54c-.43.49-1.1.66-1.66.63-1.48-.09-2.3-1.02-2.3-2.61s.98-2.63,2.44-2.63c.64,0,1.12.2,1.4.54v-2.53ZM58.86,22.98c0,.7.45,1.1,1.01,1.1.63,0,1.01-.52,1.01-1.05,0-.61-.35-1.16-1.01-1.16-.56,0-1.01.41-1.01,1.11Z"/>
        <path class="cls-1" d="M65.58,20.46v2.78c0,.62.36.84.7.84.45,0,.87-.28.87-.94v-2.68h1.85v5.03h-1.66l-.08-.55c-.43.5-1.06.68-1.59.67-1.06-.01-1.97-.57-1.97-2.36v-2.79h1.87Z"/>
        <path class="cls-1" d="M74.71,24.74c-.6.54-1.32.86-2.08.86-1.47,0-2.85-.72-2.85-2.61s1.41-2.64,2.82-2.64c.72,0,1.45.25,1.98.78l-1,1.08c-.24-.25-.53-.37-.87-.37-.71,0-1.1.52-1.1,1.15,0,.55.38,1.04,1.09,1.04.35,0,.68-.14.94-.42l1.07,1.12Z"/>
        <path class="cls-1" d="M80.09,22.33v3.17h-1.7l-.08-.52c-.36.4-.8.61-1.38.61-1.22,0-1.9-.7-1.9-1.81s1.07-1.62,2.18-1.62c.25,0,.68.06,1.02.16-.03-.46-.46-.61-.96-.61-.7,0-1.34.21-1.63.34l-.24-1.24c.65-.32,1.35-.47,1.94-.47,1.53,0,2.76.35,2.76,2ZM77.44,24.2c.29-.01.74-.17.81-.64-.16-.09-.5-.2-.83-.2-.36,0-.57.15-.57.43,0,.35.33.42.58.42Z"/>
        <path class="cls-1" d="M85.74,24.74c-.6.54-1.32.86-2.08.86-1.47,0-2.85-.72-2.85-2.61s1.41-2.64,2.82-2.64c.72,0,1.45.25,1.98.78l-1,1.08c-.24-.25-.53-.37-.87-.37-.71,0-1.1.52-1.1,1.15,0,.55.38,1.04,1.09,1.04.35,0,.68-.14.94-.42l1.07,1.12Z"/>
        <path class="cls-1" d="M87.2,18.22c.52,0,1.05.32,1.05.95s-.53.94-1.05.94-1.06-.32-1.06-.94.53-.95,1.06-.95ZM88.14,25.49v-4.95h-1.88v4.95h1.88Z"/>
        <path class="cls-1" d="M91.73,20.35c1.49,0,2.87.8,2.87,2.64s-1.46,2.63-2.87,2.63-2.87-.79-2.87-2.63,1.42-2.64,2.87-2.64ZM91.73,24.08c.63,0,1.04-.48,1.04-1.09s-.38-1.1-1.04-1.1-1.04.52-1.04,1.1.38,1.09,1.04,1.09ZM93.44,18.23h-1.92l-.76,1.58v.06h1.6l1.09-1.56v-.08Z"/>
        <path class="cls-1" d="M98.78,25.49v-2.78c0-.62-.36-.84-.7-.84-.45,0-.87.31-.87.97v2.65h-1.85v-5.03h1.66l.08.55c.43-.5,1.06-.68,1.59-.67,1.06,0,1.97.57,1.97,2.36v2.79h-1.87Z"/>
      </g>
      <g>
        <path class="cls-2" d="M34.92,25.56c-1.52,7.11-7.82,12.44-15.38,12.47-7.55-.03-13.86-5.36-15.38-12.47H0c1.45,9.47,9.63,16.73,19.51,16.73h.06c9.88,0,18.06-7.26,19.51-16.73h-4.16Z"/>
        <path class="cls-1" d="M27.94,17.47c-.06,0-.12,0-.17,0-.69,0-1.34.13-1.95.35l-.41,1.03c-.71.08-1.32.48-1.69,1.05,0,0-1.9.79-1.9.79,0,0,0,0,0,0-.19.05-.34.22-.34.43,0,.14.07.27.17.35-.02.03-.01.06,0,.09l.64,1.45c.29.04.6,0,.88-.13.56-.24.73-.33.97-.35.44-.03.86.27.92.71.06.49-.3.91-.77.93h-.27c-.16,0-.37-.05-.5-.13-.21-.11-.36-.32-.39-.56-.45.4-.62.82-.63,1.24,0,.23,0,.52,0,.84h4.21s-.04.02-.06.03c-3.24,1.33-5.35,4.5-5.35,8.01v.02c5.8-.94,10.18-6.07,10.18-12.12v-.27c0-1.99-1.55-3.68-3.54-3.76ZM25.53,20.49s-.07.09-.1.13c-.09.15-.24.26-.41.31-.06.02-.12.03-.19.02-.21-.03-.31-.28-.2-.45.11-.17.3-.28.5-.29.08,0,.33,0,.37,0,.06,0,.11.03.13.1.02.09-.05.13-.1.17ZM12.44,25.6s-.05-.02-.06-.03h4.21c0-.32,0-.61,0-.84-.01-.42-.18-.84-.63-1.24-.03.24-.18.45-.39.56-.13.09-.34.13-.5.13h-.27c-.47-.03-.84-.44-.77-.93.06-.44.48-.74.92-.71.24.02.41.11.97.35.28.13.59.17.88.13l.64-1.45s.02-.07,0-.09c.1-.08.17-.21.17-.35,0-.21-.14-.38-.34-.43,0,0,0,0,0,0,0,0-1.9-.79-1.9-.79-.36-.58-.98-.98-1.69-1.05l-.41-1.03c-.61-.23-1.26-.35-1.95-.35-.02,0-.04,0-.05,0-2.03.02-3.66,1.71-3.66,3.75v.28c0,6.05,4.38,11.18,10.18,12.12v-.02c0-3.5-2.11-6.67-5.35-8ZM13.45,20.32c.02-.07.07-.1.13-.1.05,0,.3,0,.37,0,.2,0,.39.11.5.29.11.17,0,.42-.2.45-.06,0-.13,0-.19-.02-.17-.05-.32-.16-.41-.31-.03-.05-.06-.1-.1-.13-.05-.05-.12-.09-.1-.17ZM20.56,33.71c-.34.03-.68.05-1.02.06-.34,0-.69-.02-1.02-.06v-7.78h-.01v-6.52c-.02-.81-.45-1.38-1.08-1.78-.53-.3-.99-.7-1.34-1.19-.05-.07-.13-.11-.22-.1-.11,0-.22.01-.33.01-2.23,0-4.07-1.71-4.28-3.89-.01-.11-.09-.2-.2-.21-1.55-.22-2.74-1.55-2.74-3.16s1.19-2.94,2.74-3.16c.11-.02.19-.1.2-.21.21-2.18,2.05-3.89,4.28-3.89.11,0,.22,0,.33.01.08,0,.17-.03.22-.1.78-1.06,2.04-1.75,3.46-1.75h0c1.42,0,2.67.69,3.46,1.75.05.07.13.11.22.1.11,0,.22-.01.33-.01,2.23,0,4.07,1.71,4.28,3.89.01.11.09.2.2.21,1.55.22,2.74,1.55,2.74,3.16s-1.19,2.94-2.74,3.16c-.11.02-.19.1-.2.21-.21,2.18-2.05,3.89-4.28,3.89-.11,0-.22,0-.33-.01-.08,0-.17.03-.22.1-.36.48-.82.89-1.34,1.19-.63.4-1.06.98-1.07,1.78v6.52h-.02v7.78Z"/>
      </g>
    </g>
  </g>
</svg>