<?xml version="1.0" encoding="UTF-8"?>
<svg id="Layer_2" data-name="Layer 2" xmlns="http://www.w3.org/2000/svg" viewBox="0 0 54.95 20.18">
  <defs>
    <style>
      .cls-1 {
        fill: #242422;
      }
    </style>
  </defs>
  <g id="Capa_1" data-name="Capa 1">
    <g>
      <g>
        <path class="cls-1" d="M10.37,6.86h3.04v-3.36c0-.94-.44-1.41-1.35-1.41h-.34c-.9,0-1.35.47-1.35,1.41v3.36h.01ZM10.37,9.01v3.7c.01.94.46,1.4,1.36,1.4h.39c.9,0,1.35-.46,1.35-1.4v-1.82h2.07v1.73c0,2.37-1.15,3.59-3.43,3.59h-.45c-2.28,0-3.43-1.2-3.43-3.3V3.86c0-2.66,1.15-3.86,3.43-3.86h.45c2.28,0,3.43,1.2,3.43,3.57v5.42h-5.18Z"/>
        <path class="cls-1" d="M19.08,13.26c.59.53,1.26.82,1.97.82.79,0,1.24-.38,1.24-1.29V3.39c0-.91-.45-1.29-1.24-1.29-.71,0-1.38.29-1.97.82v10.34ZM16.94.18h2.14v1.03C19.58.66,20.45.01,21.69.01c1.83,0,2.73,1.26,2.73,3.14v9.92c0,1.88-.9,3.14-2.73,3.14-1.24,0-2.11-.62-2.62-1.14v5.11h-2.14V.18Z"/>
        <path class="cls-1" d="M30.83,13.35v-5.22l-1.94.77c-.79.32-1.04.74-1.04,1.65v2.4c0,.77.36,1.14,1.04,1.14s1.24-.23,1.94-.74M25.71,10.5c0-1.97.62-2.76,2.25-3.34l2.87-1.03v-2.64c0-.94-.45-1.43-1.35-1.43h-.34c-.9,0-1.35.49-1.35,1.43v2.24h-2.08v-2.15C25.7,1.21,26.85.01,29.14.01h.4c2.28,0,3.43,1.2,3.43,3.57v12.44h-2.14v-1c-.59.59-1.38,1.17-2.62,1.17-1.72,0-2.5-1.03-2.5-2.79v-2.91Z"/>
        <path class="cls-1" d="M41.62,16.03h-2.14V3.26c0-.79-.36-1.14-1.01-1.14-.59,0-1.21.23-1.97.79v13.12h-2.14V.18h2.14v1.03c.63-.62,1.43-1.21,2.62-1.21,1.1,0,1.83.47,2.22,1.29.77-.68,1.67-1.29,2.9-1.29,1.66,0,2.5,1.06,2.5,2.79v13.23h-2.14V3.26c0-.79-.36-1.14-1.01-1.14-.59,0-1.21.23-1.97.79v13.12h0Z"/>
      </g>
      <polygon class="cls-1" points="0 7.09 0 9.23 5.49 14.61 5.49 11.63 1.9 8.13 5.49 4.55 5.49 1.64 0 7.09"/>
      <polygon class="cls-1" points="49.45 4.55 53.05 8.13 49.45 11.64 49.45 14.61 54.95 9.23 54.95 7.09 49.45 1.64 49.45 4.55"/>
    </g>
  </g>
</svg>