<?xml version="1.0" encoding="UTF-8"?>
<svg id="Layer_2" data-name="Layer 2" xmlns="http://www.w3.org/2000/svg" viewBox="0 0 129.49 18.91">
  <defs>
    <style>
      .cls-1 {
        fill: #867e6e;
      }

      .cls-2 {
        fill: #b0b920;
      }

      .cls-3 {
        fill: #ffd108;
      }

      .cls-4 {
        fill: #ed881c;
      }

      .cls-5 {
        fill: #809fb4;
      }
    </style>
  </defs>
  <g id="Capa_1" data-name="Capa 1">
    <g id="Capa_1-2" data-name="Capa 1">
      <g>
        <g>
          <path class="cls-1" d="M83.02,8.86v1.38c0,.13.04.23.14.32.09.09.22.13.37.13h1.5v2.64c-.37.18-.76.31-1.17.41-.41.1-.89.15-1.44.15-.62,0-1.2-.11-1.73-.32-.53-.22-.98-.53-1.36-.93-.38-.41-.68-.9-.89-1.49-.21-.59-.32-1.27-.32-2.02,0-.7.1-1.34.3-1.91.2-.57.49-1.06.85-1.46.37-.41.82-.72,1.34-.94.52-.22,1.11-.33,1.76-.33,1.21,0,2.74.64,2.93.73.19.08.37.19.59.21.18.02.35-.02.49-.1.14-.08.26-.19.35-.32l.57-.86s0,0,0,0c-1.31-1.08-3.65-1.56-4.95-1.56,0,0-.09,0-.12,0-.97.01-1.85.17-2.63.47-.82.32-1.45.75-2.03,1.32-.57.58-1.02,1.27-1.33,2.07-.31.8-.47,1.68-.47,2.64,0,6.26,5.4,6.99,7.66,6.73.47-.06,1.2-.19,1.61-.31.41-.12.79-.26,1.15-.44.36-.18.7-.39,1.04-.63v-3.73s.31,0,.31,0c.16,0,.28-.04.37-.13.09-.09.14-.19.14-.32v-1.38h-5.04,0Z"/>
          <path class="cls-1" d="M46.96,6.68c.56.22,1.03.53,1.43.94.39.41.7.9.91,1.49.21.58.32,1.24.32,1.96s-.11,1.39-.32,1.97c-.22.58-.52,1.08-.91,1.5-.39.41-.87.73-1.43.95-.56.22-1.18.33-1.87.33s-1.31-.11-1.87-.33c-.56-.22-1.04-.54-1.44-.95-.4-.41-.7-.91-.92-1.5-.22-.58-.33-1.24-.33-1.97s.11-1.38.33-1.96c.22-.59.53-1.08.92-1.49.4-.41.88-.72,1.44-.94.56-.22,1.18-.33,1.87-.33s1.31.11,1.87.33ZM46.79,13.34c.37-.51.55-1.27.55-2.26s-.18-1.75-.55-2.26c-.37-.52-.93-.78-1.7-.78s-1.35.26-1.72.78c-.37.52-.56,1.28-.56,2.26s.18,1.74.56,2.25c.37.52.94.78,1.72.78s1.33-.26,1.7-.77Z"/>
          <path class="cls-1" d="M126.13,6.45c.35.08.66.2.95.35h2.14s0,.82,0,.82c0,.14-.04.24-.11.32-.07.08-.69.32-.69.32.06.16.11.32.14.49.03.17.05.36.05.55,0,.45-.09.86-.27,1.23-.18.37-.43.68-.75.93-.32.26-.7.46-1.14.6-.44.14-.91.21-1.43.21-.35,0-.68-.03-1.01-.1-.29.17-.43.37-.43.58,0,.18.09.32.26.41.17.09.39.15.67.19.28.03.59.06.94.07.35,0,.71.03,1.08.06.37.03.73.08,1.08.16.35.07.67.19.95.35.28.16.5.38.67.66.17.28.25.63.25,1.07,0,.41-.1.8-.3,1.18-.2.38-.49.72-.87,1.02-.38.3-.84.54-1.39.72-.55.18-1.17.27-1.88.27s-1.3-.07-1.82-.2c-.51-.13-.94-.31-1.28-.54-.34-.22-.59-.48-.76-.77-.17-.29-.25-.6-.25-.91,0-.43.13-.79.39-1.08.26-.29.63-.53,1.09-.7-.23-.13-.41-.29-.55-.5-.14-.21-.21-.48-.21-.81,0-.14.03-.28.07-.42.05-.15.12-.29.22-.44.1-.14.22-.28.37-.41.15-.13.33-.24.53-.34-.47-.25-.83-.59-1.1-1-.27-.42-.4-.91-.4-1.47,0-.45.09-.86.27-1.23.18-.37.44-.68.76-.94.33-.26.71-.46,1.15-.6.44-.14.93-.21,1.45-.21.39,0,.76.04,1.11.12h0ZM127.28,15.65c-.11-.11-.25-.2-.44-.26-.19-.06-.4-.11-.65-.14-.25-.03-.51-.05-.79-.07-.28-.02-.56-.03-.86-.04-.3-.01-.58-.04-.86-.08-.25.14-.45.3-.6.49-.15.19-.23.41-.23.65,0,.16.04.31.12.45.08.14.21.26.38.36.18.1.4.18.68.24.28.06.62.08,1.03.08s.77-.03,1.07-.09c.3-.06.54-.15.74-.26.2-.11.34-.24.42-.39.09-.15.14-.32.14-.5s-.05-.33-.16-.44h0ZM125.73,10.75c.2-.07.37-.18.51-.31.13-.13.24-.29.3-.47.07-.18.1-.39.1-.61,0-.45-.14-.81-.41-1.08-.27-.27-.68-.4-1.22-.4s-.95.13-1.22.4c-.27.27-.41.62-.41,1.08,0,.21.03.41.1.6.07.18.17.34.31.48.13.13.3.24.51.31.21.08.44.11.71.11s.51-.04.72-.11h0Z"/>
          <path class="cls-1" d="M39.06,14.06s-.24-.04-.37-.07V2.59h-3v1.05c0,.31.15.5.45.56.03,0,.25.04.37.07v9.73c-.12.02-.34.06-.37.07-.3.07-.45.25-.45.56v1.05h3.81v-1.05c0-.31-.15-.5-.45-.56h0Z"/>
          <path class="cls-1" d="M74.01,14.06s-.24-.04-.37-.07V2.59h-3v1.05c0,.31.15.5.45.56.03,0,.24.04.36.07v9.73c-.12.02-.34.06-.36.07-.3.07-.45.25-.45.56v1.05h3.81v-1.05c0-.31-.15-.5-.45-.56Z"/>
          <path class="cls-1" d="M68.73,14.05s-.24-.04-.36-.07v-4.12c0-.52-.08-1-.23-1.43-.15-.43-.38-.81-.67-1.12-.29-.31-.65-.56-1.07-.73-.42-.18-.9-.27-1.44-.27-1.49,0-2.77.48-3.82,1.45l.4.71c.07.11.15.21.26.29.11.08.24.12.38.12.18,0,.34-.04.49-.13.15-.08.31-.18.49-.28.18-.1.38-.2.62-.28.24-.08.54-.13.9-.13.49,0,.87.15,1.13.45.26.3.39.76.39,1.38v.54c-1.04,0-1.92.09-2.62.27-.7.18-1.27.4-1.69.68-.42.27-.73.58-.91.92-.18.34-.27.68-.27,1.03,0,.41.07.78.2,1.09.13.31.31.57.55.78.23.21.52.37.85.47.33.11.69.16,1.07.16,1.67,0,2.88-.8,3.11-1.01l.12.39c.06.19.15.32.27.38.12.06.28.09.49.09h1.81v-1.05c0-.31-.15-.5-.45-.56h0ZM66.2,13.38c-.16.16-1.18.9-2.14.9-.37,0-.67-.08-.9-.25-.23-.17-.34-.45-.34-.84,0-.2.06-.38.17-.55.11-.17.3-.31.56-.44.26-.13.61-.23,1.04-.31.43-.08.97-.12,1.61-.12v1.61h0Z"/>
          <g>
            <path class="cls-1" d="M92.8,14.06s-.25-.04-.37-.07v-7.51h-3.03v1.05c0,.31.15.5.45.56.03,0,.25.04.37.07v5.83c-.12.02-.34.06-.36.07-.3.07-.45.25-.45.56v1.05h3.84v-1.05c0-.31-.15-.49-.45-.56h0Z"/>
            <path class="cls-1" d="M90.21,4.79c.12.12.25.21.41.28.16.07.32.1.5.1s.35-.04.51-.1c.16-.07.3-.16.42-.28.12-.12.21-.25.28-.41.07-.15.11-.32.11-.49s-.04-.35-.11-.51c-.07-.16-.17-.3-.28-.41-.12-.12-.26-.21-.42-.28-.16-.07-.33-.1-.51-.1-.18,0-.34.03-.5.1-.16.07-.29.16-.41.28-.11.12-.21.25-.28.41-.07.16-.1.33-.1.51s.03.34.1.49c.07.15.16.29.28.41Z"/>
          </g>
          <g>
            <path class="cls-1" d="M108.31,14.06s-.25-.04-.37-.07v-7.51h-3.03v1.05c0,.31.15.5.45.56.03,0,.25.04.37.07v5.83c-.12.02-.34.06-.36.07-.3.07-.45.25-.45.56v1.05h3.84v-1.05c0-.31-.15-.49-.45-.56h0Z"/>
            <path class="cls-1" d="M105.72,4.79c.12.12.25.21.41.28.16.07.32.1.5.1s.35-.04.51-.1c.16-.07.3-.16.42-.28.12-.12.21-.25.28-.41.07-.15.11-.32.11-.49s-.04-.35-.11-.51c-.07-.16-.17-.3-.29-.41-.12-.12-.26-.21-.42-.28-.16-.07-.33-.1-.51-.1-.18,0-.34.03-.5.1-.16.07-.29.16-.41.28-.11.12-.21.25-.28.41-.07.16-.1.33-.1.51s.03.34.1.49c.07.15.16.29.28.41h0Z"/>
          </g>
          <path class="cls-1" d="M101.16,6.49s-2.42,6.47-2.46,6.69c-.04-.18-2.33-6.69-2.33-6.69h-2.45v1.05c0,.31.15.5.45.56.09.02.1.02.32.06l2.99,7.51h2.01l2.98-7.51c.22-.04.23-.04.32-.06.3-.06.45-.25.45-.56v-1.05h-2.27,0Z"/>
          <path class="cls-1" d="M119.39,14.06s-.24-.04-.36-.07v-4.17c0-.51-.07-.98-.2-1.41-.13-.43-.33-.79-.59-1.1-.26-.31-.58-.55-.97-.72-.39-.17-.83-.26-1.33-.26-.31,0-.6.03-.86.09-.26.06-.51.15-.74.26-.23.11-.45.25-.65.4-.21.16-.4.33-.59.52l-.15-.72c-.09-.27-.28-.4-.56-.4h-2.16v1.05c0,.31.15.5.45.56.03,0,.24.04.36.06,0,0,0,5.77,0,5.83-.12.02-.33.06-.36.06-.3.07-.45.25-.45.56v1.05h3.02v-6.64c.3-.3.61-.53.95-.71.33-.17.69-.26,1.07-.26.52,0,.91.15,1.17.46.26.31.39.74.39,1.3v5.85h3.02v-1.05c0-.31-.15-.49-.45-.56h0Z"/>
          <path class="cls-1" d="M58.67,7.5c-.63-.78-1.53-1.16-2.72-1.16-.88,0-1.77.32-2.59.92V2.59h-3v1.05c0,.31.15.5.45.56.03,0,.24.04.35.06v11.29c.32.06.88.1,1.49.16.61.06,1.2.09,1.78.09,1.69,0,2.98-.43,3.86-1.3.88-.86,1.32-2.1,1.32-3.7,0-1.42-.31-2.52-.94-3.3h0ZM54.84,14.17c-.68,0-1.18-.05-1.49-.15v-5.18l.2-.21c.15-.15.38-.3.69-.44.32-.14.65-.21,1.02-.21,1.31,0,1.97.99,1.97,2.97,0,2.14-.8,3.22-2.39,3.22h0Z"/>
          <path class="cls-1" d="M29.71,8.86v1.38c0,.13.04.23.14.32.09.09.21.13.37.13h1.5v2.64c-.37.18-.76.31-1.17.41-.41.1-.89.15-1.44.15-.62,0-1.2-.11-1.73-.32-.53-.22-.98-.53-1.36-.93-.38-.41-.68-.9-.89-1.49-.21-.59-.32-1.27-.32-2.02,0-.7.1-1.34.3-1.91.2-.57.48-1.06.85-1.46.37-.41.82-.72,1.34-.94s1.11-.33,1.76-.33c1.21,0,2.74.64,2.92.73.19.08.37.19.59.21.18.02.35-.02.49-.1.14-.08.26-.19.35-.32l.58-.86s0,0,0,0c-1.31-1.08-3.65-1.56-4.95-1.56,0,0-.09,0-.12,0-.97.01-1.85.17-2.63.47-.82.32-1.45.75-2.03,1.32-.57.58-1.02,1.27-1.33,2.07-.31.8-.47,1.68-.47,2.64,0,6.26,5.4,6.99,7.66,6.73.47-.06,1.2-.19,1.61-.31.41-.12.79-.26,1.16-.44.36-.18.7-.39,1.04-.63v-3.73s.3,0,.3,0c.16,0,.28-.04.37-.13.09-.09.14-.19.14-.32v-1.38h-5.04Z"/>
        </g>
        <g>
          <path class="cls-4" d="M16.56,3.64c.8-.04,1.44-.7,1.44-1.52s-.68-1.52-1.52-1.52-1.47.63-1.52,1.44l-2.04-2.04-3.62,3.62,3.56,3.56-3.56,3.56,2.13,2.13,7.17-7.18-2.04-2.04h0Z"/>
          <path class="cls-5" d="M3.64,2.04c-.04-.8-.71-1.44-1.52-1.44s-1.52.68-1.52,1.52.64,1.47,1.44,1.52L0,5.68l3.62,3.62,3.56-3.56,3.56,3.56,2.13-2.13L5.69,0l-2.04,2.04Z"/>
          <path class="cls-2" d="M2.04,14.96c-.8.04-1.44.71-1.44,1.52s.68,1.52,1.52,1.52,1.47-.64,1.52-1.43l2.04,2.04,3.62-3.62-3.56-3.56,3.56-3.56-2.13-2.13L0,12.92l2.04,2.04h0Z"/>
          <path class="cls-3" d="M14.96,16.56c.04.8.71,1.43,1.52,1.43s1.52-.68,1.52-1.52-.64-1.47-1.44-1.52l2.04-2.04-3.62-3.62-3.56,3.56-3.56-3.56-2.13,2.13,7.17,7.18,2.04-2.04h0Z"/>
        </g>
      </g>
    </g>
  </g>
</svg>