<?xml version="1.0" encoding="UTF-8"?>
<svg id="Layer_2" data-name="Layer 2" xmlns="http://www.w3.org/2000/svg" viewBox="0 0 80.25 31.85">
  <defs>
    <style>
      .cls-1 {
        fill: #00abc8;
      }
    </style>
  </defs>
  <g id="Capa_1" data-name="Capa 1">
    <g>
      <path class="cls-1" d="M33.57,1.31c-.66-.01-1.33-.1-2.01-.15-.67-.05-.69-.04-.68.64.04,2.38.08,4.77.12,7.15.03,1.64.08,3.27.09,4.91,0,.49.21.64.61.6.69-.06,1.37-.09,2.03-.21.53-.1,1.19-.2,1.63-.53.84-.62,1.03-1.68,1.08-2.38.1-1.41-.01-5.8-.03-6.97-.02-1.93-1.05-3.03-2.84-3.07M34.6,10.76c0,1.42-.16,1.59-1.54,1.56-.04-3.03-.08-6.07-.13-9.16.22.01.4.02.57.03.79.05,1.02.3,1.03,1.15.02,1.63.03,3.26.06,4.89,0,.17,0,1.27,0,1.52"/>
      <path class="cls-1" d="M64.28,12.47c0-.63,0-1.26,0-1.89-.01-.97-.03-1.94-.04-2.91-.01-.8-.02-1.6-.02-2.41,0-.22-.05-.32-.19-.32-.2,0-.4-.04-.6-.1-.14-.04-.21,0-.24.23-.11.7-.24,1.41-.35,2.11-.26,1.61-.53,3.24-.79,4.87-.12.74-.11.74.32.74.28,0,.31-.04.39-.53.06-.41.12-.82.17-1.24.02-.12.09-.22.16-.21.13,0,.25.02.37,0,.13-.02.17.09.17.29,0,.39,0,.78,0,1.17-.01.45,0,.5.25.5.08,0,.16-.01.23,0,.14.03.18-.08.18-.31M63.54,9.62c-.11,0-.22-.01-.33-.02-.05,0-.08-.07-.06-.15.13-.91.26-1.8.4-2.69,0-.04.09-.05.09.01,0,.9-.01,1.81-.02,2.74,0,.06-.03.11-.06.11"/>
      <path class="cls-1" d="M9.88,7.08c-1.11.07-2.26.12-3.41.26-.22.03-.52.36-.54.57-.05.46.06.92.1,1.38.04.5.32.77,1.01.65.53-.09.71.09.74.49.09,1.13.24,2.25.33,3.37.03.33,0,.69-.11,1.02-.08.22-.32.49-.56.59-1.37.57-2.28.23-2.43-.96-.21-1.69-.35-3.4-.51-5.1-.17-1.74-.36-3.49-.5-5.23-.04-.53-.07-1.23.76-1.34,1.46-.2,2.13-.21,2.33,1.11.03.2-.01.45.12.6.19.21.51.46.78.47.68.04,1.38.03,2.02-.08.26-.04.63-.37.63-.57.04-2.01-1.18-3.96-4.65-4.27C2.79-.24.05,1.11,0,3.4c-.04,1.59.19,3.18.36,4.77.23,2.15.6,4.28.73,6.44.17,2.63,1.93,3.93,5.14,3.78,2.95-.14,5.31-2.24,5.17-4.54-.13-1.99-.33-3.97-.44-5.96-.03-.64-.35-.86-1.09-.81"/>
      <path class="cls-1" d="M29.61,10.83c-.3-1.69-.62-3.39-.94-5.1-.26-1.41-.51-2.83-.75-4.26-.07-.4-.25-.56-.71-.55-.64.01-1.3-.03-1.96-.12-.46-.06-.67.04-.72.45-.16,1.29-.35,2.57-.52,3.87-.38,2.97-.76,5.98-1.11,9.03-.16,1.39-.13,1.38,1.27,1.21.91-.11,1.01-.2,1.09-1.09.07-.75.13-1.5.2-2.27.02-.23.21-.41.44-.42.43-.02.81-.04,1.17-.1.41-.07.56.12.62.46.11.69.25,1.37.33,2.07.1.8.16.88.92.79.24-.03.49-.08.72-.07.42,0,.54-.19.47-.6-.18-1.09-.34-2.19-.53-3.29M27.04,9.32c-.36.02-.72.03-1.07.05-.15,0-.26-.11-.25-.26.16-1.66.32-3.28.49-4.89.01-.08.26-.11.29.01.24,1.61.48,3.22.72,4.88.02.1-.07.2-.17.21"/>
      <path class="cls-1" d="M20.5.57h0s0,0,0,0c-.07-.01-.15-.01-.24-.01-.31-.01-.87-.04-1.27-.06-.65-.09-.81.18-.77.72.13,2.13.23,4.26.35,6.39.09,1.75.21,3.5.28,5.25.03.79-.29,1.08-1.16,1.17-.76.08-1.26-.27-1.31-.99-.08-1.3-.12-2.6-.2-3.9-.15-2.58-.3-5.16-.49-7.74-.07-1.02-.13-1.04-1.36-1.05-.36,0-.72.02-1.08-.02-.61-.07-.78.17-.75.61.07.83.12,1.67.19,2.5.3,3.5.56,6.99.91,10.47.13,1.3,1.07,2.15,2.4,2.45,1.32.31,2.68.12,3.85-.66,1.31-.87,1.78-2.04,1.7-3.41-.11-1.79-.18-3.58-.26-5.38-.09-1.87-.2-3.74-.26-5.61-.01-.43-.13-.68-.52-.74"/>
      <path class="cls-1" d="M45.92,11.77c-.46.03-.93.04-1.49.06,0-.43.02-.8.02-1.16.05-2.39.11-4.79.16-7.18.02-1.13.01-1.13-.9-1.18-.47-.02-.52.04-.53.62-.06,3.38-.11,6.76-.17,10.14,0,.34.09.46.36.44.66-.05,1.31-.07,1.94-.12,1.04-.08.87.18.91-1.25,0-.28-.07-.39-.29-.37"/>
      <path class="cls-1" d="M50.85,10.3c-.09-1.24-.19-2.48-.29-3.73-.08-1.03-.15-2.06-.22-3.1-.02-.29-.11-.41-.35-.41-.33,0-.67-.05-1-.13-.23-.05-.34.01-.39.3-.13.91-.29,1.83-.42,2.75-.32,2.1-.63,4.22-.94,6.36-.14.97-.12.97.59.94.47-.02.52-.08.6-.71.07-.53.13-1.06.2-1.61.02-.16.12-.28.24-.28.22,0,.42.01.61-.01.22-.03.29.11.3.36.03.5.07,1,.09,1.51.02.59.05.64.45.62.13,0,.26-.03.39-.01.22.02.29-.11.27-.41-.05-.8-.09-1.61-.15-2.41M49.57,9.09c-.19,0-.37,0-.56-.01-.08,0-.13-.09-.12-.19.15-1.18.3-2.34.45-3.49,0-.06.14-.07.15.02.06,1.17.12,2.33.17,3.54,0,.08-.04.14-.1.14"/>
      <path class="cls-1" d="M54.7,3.67c-.14,0-.28-.04-.42-.08-.25-.08-.32.14-.34.44-.11,2.16-.22,4.32-.34,6.48-.01.22-.01.44-.04.66-.04.36-.2.55-.47.56-.25.01-.39-.16-.42-.52-.01-.15,0-.3,0-.44.01-.48,0-.51-.33-.52-.17,0-.33-.03-.5,0-.07,0-.17.11-.19.2-.22.99.1,2.12.73,2.54.79.52,2.04-.03,2.16-1.8.08-1.16.33-5.85.4-7.03.02-.29-.03-.46-.25-.46"/>
      <path class="cls-1" d="M58.11,10.4c-.04-1.09-.09-2.19-.14-3.29-.04-.9-.07-1.81-.1-2.72,0-.25-.07-.36-.26-.36-.26,0-.51-.05-.77-.12-.17-.05-.26.01-.3.26-.12.8-.26,1.6-.39,2.4-.29,1.83-.58,3.68-.86,5.54-.13.84-.12.85.43.83.36,0,.4-.06.48-.61.06-.46.12-.93.19-1.41.02-.14.1-.24.19-.24.17,0,.32.02.47,0,.17-.02.22.1.23.32.01.44.04.88.04,1.32,0,.51.02.57.34.56.1,0,.2-.02.3,0,.17.03.23-.09.22-.36-.02-.71-.04-1.42-.06-2.13M57.15,9.32c-.14,0-.29-.01-.43-.02-.06,0-.1-.08-.09-.17.14-1.03.28-2.04.42-3.05,0-.05.11-.06.11.02.02,1.02.04,2.05.06,3.1,0,.07-.04.12-.08.12"/>
      <path class="cls-1" d="M41.87,10.36c-.16-1.43-.34-2.86-.52-4.3-.14-1.19-.28-2.38-.41-3.58-.04-.33-.16-.47-.48-.47-.44,0-.9-.05-1.35-.14-.31-.06-.47.02-.51.36-.15,1.06-.32,2.13-.47,3.2-.35,2.45-.7,4.93-1.02,7.43-.15,1.14-.13,1.14.83,1.06.63-.05.7-.12.79-.86.07-.62.13-1.24.2-1.88.02-.19.16-.33.32-.33.3,0,.56,0,.82-.04.29-.04.39.12.42.41.06.58.14,1.16.18,1.74.05.68.09.74.63.7.17-.01.34-.04.51-.03.3.02.39-.14.35-.48-.1-.92-.18-1.85-.28-2.78M40.11,9.01c-.25,0-.5,0-.75,0-.1,0-.18-.1-.17-.22.16-1.37.32-2.72.48-4.06,0-.07.18-.08.2.02.12,1.35.24,2.7.37,4.09,0,.09-.05.17-.13.17"/>
      <path class="cls-1" d="M60.86,9.32c.31-.27.49-.67.6-1.16.16-.71.22-1.44.18-2.17-.04-.79-.4-1.4-.84-1.49-.3-.06-.6-.12-.91-.17-.39-.06-.39-.06-.43.57-.09,1.34-.17,2.68-.26,4.02-.08,1.16-.17,2.33-.25,3.49-.03.34.04.44.26.43.1,0,.19,0,.28,0,.21,0,.27-.09.29-.42.06-.93.13-1.86.19-2.78,0-.08.02-.17.04-.25.07.1.1.21.11.32.12.88.23,1.76.34,2.63.06.48.07.51.36.52.09,0,.18,0,.26,0,.23,0,.26-.04.21-.41-.14-1.03-.28-2.07-.44-3.14M60.76,7.66s-.01.09-.03.13c0,.01,0,.02,0,.03-.06.24-.2.35-.39.34-.09,0-.18-.01-.27-.02.05-.8.1-1.54.14-2.28,0-.01,0-.03,0-.05,0-.07,0-.13.01-.2.06,0,.12.01.18.02.01,0,.02,0,.04,0,.02,0,.04,0,.05,0,.19.03.31.18.34.44,0,.04.01.09.01.13,0,.24-.02.48-.04.72-.02.24-.03.48-.06.72"/>
      <path class="cls-1" d="M80.25,29.99c0,.97-.76,1.74-1.76,1.74s-1.77-.76-1.77-1.74.79-1.72,1.77-1.72,1.76.76,1.76,1.72M77.17,29.99c0,.76.56,1.37,1.34,1.37s1.31-.61,1.31-1.36-.55-1.38-1.32-1.38-1.33.62-1.33,1.37M78.22,30.89h-.4v-1.72c.16-.03.38-.05.66-.05.32,0,.47.05.6.13.09.07.17.21.17.38,0,.19-.15.33-.36.4v.02c.17.06.26.19.31.42.05.26.08.37.13.43h-.43c-.05-.06-.08-.22-.14-.42-.03-.19-.14-.27-.36-.27h-.19v.69ZM78.23,29.91h.19c.22,0,.4-.07.4-.25,0-.16-.12-.26-.37-.26-.1,0-.18.01-.22.02v.49Z"/>
      <path class="cls-1" d="M22.28,17.64c-.35.07-.69.1-1.03.15-.32.05-.33.06-.3.5.09,1.56.19,3.11.28,4.67.07,1.07.14,2.14.2,3.21.02.32.12.43.32.44.35.02.71.06,1.06.03.29-.03.67-.04.92-.24.49-.39.57-1.17.57-1.69,0-1.05-.23-4.32-.28-5.19-.09-1.43-.74-2.1-1.74-1.88M23.18,24.22c.05,1.01-.03,1.12-.8,1.03-.12-2.07-.25-4.15-.37-6.26.12-.01.21-.02.3-.03.43-.05.57.11.6.71.07,1.16.13,2.32.21,3.47,0,.12.05.9.06,1.08"/>
      <path class="cls-1" d="M75.48,31.23c-.16-1.49-.27-2.96-.45-4.43-.27-2.23-.61-4.44-.9-6.63-.24-1.77-.47-3.53-.68-5.28-.06-.48-.36-.67-1.16-.62-1.08.07-2.13.07-3.16.03-.68-.03-1.02.1-1.15.56-.41,1.44-.86,2.87-1.27,4.29-.92,3.2-1.81,6.35-2.64,9.47-.37,1.39-.34,1.4,1.51,1.68,1.29.2,1.43.14,1.68-.82.21-.81.4-1.63.6-2.48.06-.25.37-.41.72-.36.67.09,1.26.17,1.86.2.69.04.92.3.96.74.09.87.21,1.74.25,2.61.04,1.01.13,1.13,1.49,1.36.44.08.9.13,1.34.24.8.21,1.07.01,1-.54M70.72,24.28c-.57-.05-1.14-.11-1.71-.16-.23-.02-.39-.18-.35-.34.48-1.87.97-3.72,1.46-5.58.03-.09.44-.12.46.02.16,1.91.31,3.83.46,5.84,0,.13-.14.23-.32.21"/>
      <path class="cls-1" d="M13.12,22.27c-.25.03-.49.04-.73.09-.04,0-.1.15-.1.24,0,.19.03.39.04.59.02.21.08.34.22.3.11-.03.15.06.17.23.04.49.09.98.13,1.47.01.15.01.3,0,.44-.01.09-.06.19-.11.22-.28.15-.47-.04-.52-.54-.07-.71-.13-1.42-.19-2.13-.06-.73-.13-1.45-.19-2.18-.02-.22-.03-.51.12-.57.29-.11.42-.13.49.45.01.09,0,.2.04.26.04.09.11.2.17.2.15.02.3,0,.44-.05.06-.02.14-.18.13-.27-.03-.93-.35-1.78-1.08-1.79-.62-.01-1.08.59-1.05,1.51.02.63.08,1.26.14,1.88.07.85.17,1.7.23,2.54.07,1.03.42,1.67,1.05,1.86.64.19,1.16-.57,1.08-1.62-.07-.91-.16-1.82-.22-2.73-.02-.29-.1-.4-.27-.38"/>
      <path class="cls-1" d="M20.13,24.19c-.18-1.07-.38-2.12-.56-3.18-.15-.86-.3-1.72-.44-2.57-.04-.24-.12-.32-.31-.27-.25.07-.51.1-.76.11-.17,0-.25.08-.25.32-.02.75-.06,1.49-.08,2.23-.06,1.67-.12,3.33-.16,4.99-.02.74-.01.74.48.76.34,0,.37-.03.38-.54,0-.42.01-.85.02-1.29,0-.13.07-.23.16-.23.17,0,.32,0,.46-.02.17-.03.24.09.27.3.07.42.14.84.2,1.27.06.49.09.54.42.55.11,0,.22,0,.32.01.19.04.24-.08.2-.34-.12-.7-.22-1.41-.34-2.1M18.99,23.22c-.14,0-.28.01-.42.02-.06,0-.1-.07-.1-.15.02-.96.04-1.92.06-2.87,0-.05.1-.08.11,0,.14.95.28,1.9.42,2.89,0,.06-.02.12-.06.12"/>
      <path class="cls-1" d="M16.18,18.52h0s0,0,0,0c-.02,0-.05,0-.07.01-.1.01-.26.04-.38.05-.19,0-.23.14-.21.42.09,1.09.16,2.18.24,3.27.07.89.14,1.79.2,2.68.03.4-.06.53-.31.53-.21,0-.36-.2-.39-.56-.05-.64-.09-1.27-.14-1.91-.1-1.26-.19-2.53-.29-3.79-.04-.5-.06-.51-.37-.44-.09.02-.18.05-.27.05-.15,0-.18.12-.17.32.03.39.06.77.09,1.16.14,1.63.27,3.26.43,4.89.06.61.32,1.07.68,1.31.37.25.77.27,1.11-.04.4-.36.52-.95.46-1.69-.08-.96-.14-1.93-.21-2.89-.07-1-.15-2.01-.22-3.01-.01-.23-.06-.36-.18-.36"/>
      <path class="cls-1" d="M32.55,25.35c-.48,0-.96-.03-1.52-.04-.01-.39-.03-.73-.04-1.06-.07-2.18-.14-4.36-.22-6.54-.04-1.03-.05-1.03-.9-.88-.42.07-.46.14-.44.65.11,2.94.23,5.88.34,8.83.01.3.1.41.34.43.61.03,1.24.08,1.88.11,1.12.05.94.28.9-1.1,0-.27-.09-.38-.33-.38"/>
      <path class="cls-1" d="M38.58,24.04c-.22-1.4-.46-2.79-.69-4.18-.18-1.13-.36-2.25-.53-3.36-.05-.31-.18-.42-.51-.35-.45.08-.89.13-1.33.13-.29,0-.43.1-.46.41-.11.96-.23,1.92-.34,2.87-.25,2.15-.49,4.29-.71,6.4-.1.95-.08.95.75,1.01.57.04.63-.01.69-.66.05-.54.1-1.09.14-1.66.01-.17.14-.29.29-.28.29.01.54.03.8,0,.29-.02.4.13.44.41.08.55.17,1.1.23,1.66.07.65.11.71.69.76.19.01.38.01.56.05.34.07.44-.08.38-.43-.14-.93-.26-1.86-.4-2.78M36.68,22.7c-.24,0-.49,0-.73,0-.1,0-.17-.09-.16-.2.12-1.25.24-2.48.36-3.71,0-.06.18-.1.19,0,.16,1.23.31,2.47.47,3.77.01.08-.05.15-.12.15"/>
      <path class="cls-1" d="M44.46,15.46c-.28.05-.56.05-.84.04-.49-.01-.61.29-.61.66-.02,2.75-.04,5.49-.06,8.24,0,.28.01.56-.01.84-.05.46-.33.67-.81.66-.44-.02-.7-.24-.78-.69-.03-.18-.03-.36-.03-.54-.01-.59-.04-.62-.6-.65-.28-.01-.55-.04-.82-.02-.11,0-.26.13-.29.23-.27,1.14.32,2.5,1.39,3.11,1.43.8,3.78.39,3.88-1.96.06-1.54.14-7.8.16-9.38,0-.39-.1-.6-.57-.52"/>
      <path class="cls-1" d="M52.26,24.64c-.25-1.71-.53-3.4-.78-5.08-.21-1.37-.41-2.72-.6-4.08-.05-.37-.24-.51-.72-.44-.65.09-1.3.13-1.93.13-.42,0-.62.11-.69.48-.2,1.15-.43,2.29-.64,3.43-.46,2.56-.91,5.1-1.33,7.61-.19,1.12-.16,1.13,1.01,1.24.81.08.9.03,1.02-.75.1-.65.19-1.3.29-1.98.03-.2.22-.34.43-.32.42.03.78.06,1.15.06.43,0,.57.18.61.52.08.67.19,1.34.24,2.01.06.78.12.87.96.96.27.03.55.04.82.1.49.1.64-.06.58-.49-.15-1.13-.27-2.26-.44-3.39M49.56,22.93c-.35-.01-.7-.02-1.06-.04-.14,0-.25-.12-.23-.25.23-1.49.46-2.96.7-4.44.01-.07.26-.11.28,0,.16,1.49.32,2.98.49,4.55.01.1-.08.18-.19.18"/>
      <path class="cls-1" d="M28.44,23.93c-.2-1.22-.42-2.42-.62-3.63-.17-.98-.33-1.96-.49-2.93-.04-.27-.14-.36-.39-.31-.33.08-.66.12-.99.12-.22,0-.32.09-.34.36-.06.85-.13,1.69-.19,2.53-.13,1.9-.26,3.78-.38,5.64-.05.84-.04.84.59.87.44.02.48-.03.51-.6.03-.48.04-.96.06-1.46,0-.15.1-.26.21-.25.22,0,.41.01.6,0,.22-.02.3.11.34.35.07.48.16.96.21,1.44.07.56.1.62.53.64.14,0,.28,0,.42.02.25.05.32-.08.28-.38-.13-.8-.24-1.61-.37-2.41M26.98,22.81c-.18,0-.37,0-.55.01-.07,0-.13-.08-.13-.17.06-1.09.11-2.17.17-3.26,0-.05.13-.09.15,0,.15,1.08.3,2.16.45,3.29,0,.07-.03.14-.09.14"/>
      <path class="cls-1" d="M60.08,23.14c1.13-.45,1.78-1.18,2.14-2.1.53-1.33.65-2.7.39-4.05-.28-1.44-1.8-2.4-3.5-2.37-1.07.02-2.12.05-3.14.09-1.24.06-1.25.06-1.29,1.09-.1,2.18-.18,4.36-.29,6.54-.09,1.89-.21,3.78-.32,5.66-.03.55.17.75.84.81.3.03.59.09.89.13.68.1.87-.03.9-.6.08-1.58.17-3.16.26-4.74,0-.14.06-.29.09-.43.26.18.37.37.44.56.53,1.56,1.06,3.14,1.58,4.75.29.9.35.95,1.41,1.14.34.06.68.12,1.02.17.94.15,1.03.07.77-.67-.72-2.02-1.45-4-2.19-5.99M59.47,20.17c0,.08-.04.15-.09.22,0,.02-.02.03-.03.05-.2.43-.68.63-1.34.62-.32,0-.63-.02-.94-.03.06-1.37.11-2.63.17-3.89,0-.02,0-.05.01-.08,0-.12,0-.23.01-.34.21,0,.42-.01.63-.01.04,0,.08,0,.13,0,.06,0,.13,0,.19,0,.69,0,1.16.22,1.31.67.04.07.07.15.07.23,0,.43,0,.86-.02,1.29-.02.43-.05.86-.1,1.29"/>
    </g>
  </g>
</svg>