<?xml version="1.0" encoding="UTF-8"?>
<svg id="Layer_2" data-name="Layer 2" xmlns="http://www.w3.org/2000/svg" viewBox="0 0 74.73 67.34">
  <defs>
    <style>
      .cls-1 {
        fill: #405055;
      }
    </style>
  </defs>
  <g id="Capa_1" data-name="Capa 1">
    <g>
      <g>
        <path class="cls-1" d="M61.4,20.38c0-4.83-3.93-8.76-8.76-8.76-3.07,0-5.9,1.6-7.49,4.21h-3.2l-1.24-.93c.64-.73,1.14-1.62,1.43-2.6l.73-.35.44-2.65-.95-.36c-.05-.23-.11-.45-.18-.67.13.01.27.02.4.02.03,0,.06,0,.09,0,2.2-.05,3.97-1.88,3.94-4.08,0-.38-.06-.75-.17-1.12-.15-.49-.36-.85-.44-.97l-.58.56c-.46.44-1.06.69-1.7.69-.58,0-1.15-.21-1.59-.58l-1.07-1.07c-.13-.13-.26-.26-.38-.39l-.14-.15c-.73-.76-1.72-1.17-2.77-1.17s-2,.4-2.73,1.13c-.73.73-1.13,1.7-1.13,2.73,0,.86.29,1.69.81,2.36-.8.68-1.33,1.62-1.55,2.73l-.95.36.44,2.65.66.31c.3,1.01.8,1.91,1.45,2.65l-1.18.92h-3.2c-1.59-2.61-4.42-4.21-7.49-4.21-4.83,0-8.76,3.93-8.76,8.76,0,2.79,1.34,5.43,3.59,7.08l6.08,5.02h0c.45.31.72.81.72,1.35,0,.9-.73,1.63-1.63,1.63s-1.63-.73-1.63-1.63c0-.41.15-.8.43-1.1l-.96-.88c-.5.54-.77,1.24-.77,1.98,0,1.61,1.31,2.93,2.93,2.93s2.93-1.31,2.93-2.93c0-.9-.42-1.75-1.12-2.3h0s-6.18-5.1-6.18-5.1l-.09.11.08-.11c-1.93-1.4-3.08-3.66-3.08-6.04,0-4.12,3.35-7.46,7.46-7.46,2.34,0,4.51,1.09,5.91,2.91h-2.09c-1.07-.9-2.41-1.39-3.82-1.39-3.28,0-5.95,2.67-5.95,5.95,0,1.83.83,3.54,2.27,4.68l6.36,4.94.25.2s.07.06.1.09c.03.03.06.05.09.08.03.03.06.06.1.09.03.03.06.06.09.09.03.03.06.06.09.1.03.03.06.06.09.09.03.03.06.07.08.1.03.03.05.06.08.1.03.03.05.07.08.1.03.03.05.07.08.1.02.04.05.07.07.11.02.04.05.07.07.11.02.04.04.07.06.11.02.04.04.07.06.11.02.04.04.08.06.11.02.04.04.07.06.11.02.04.04.08.05.12.02.04.03.08.05.11.02.04.03.08.05.12.01.04.03.08.04.11.01.04.03.08.04.13.01.04.03.08.04.12.01.04.02.09.03.13.01.04.02.08.03.12.01.05.02.09.03.14,0,.04.02.07.02.11,0,.05.01.1.02.15,0,.03.01.07.01.1,0,.05,0,.11.01.16,0,.03,0,.06,0,.09,0,.08,0,.17,0,.25,0,0,0,0,0,0,0,.67-.14,1.32-.42,1.93l-.02.05c-.77,1.63-2.4,2.67-4.21,2.67-2.56,0-4.65-2.09-4.65-4.65,0-1.11.39-2.18,1.11-3.02l-.99-.84c-.92,1.07-1.42,2.45-1.42,3.86,0,3.28,2.67,5.95,5.95,5.95,1.95,0,3.74-.95,4.84-2.49,2.26,3.28,6.01,5.27,10.03,5.27s7.76-1.99,10.02-5.27c1.1,1.54,2.89,2.49,4.84,2.49,3.28,0,5.95-2.67,5.95-5.95,0-1.41-.51-2.79-1.42-3.86l-.99.84c.72.84,1.11,1.91,1.11,3.02,0,2.56-2.09,4.65-4.65,4.65-1.76,0-3.35-.98-4.14-2.53l-.09-.19c-.28-.61-.42-1.26-.42-1.93,0-1.4.62-2.71,1.71-3.6l.07-.06.18-.14,6.37-4.94c1.44-1.14,2.27-2.84,2.27-4.68,0-3.28-2.67-5.95-5.95-5.95-1.41,0-2.75.49-3.82,1.39h-2.09c1.4-1.82,3.57-2.91,5.91-2.91,4.12,0,7.46,3.35,7.46,7.46,0,2.38-1.15,4.64-3.08,6.04h0s-6.18,5.1-6.18,5.1h0c-.71.55-1.12,1.4-1.12,2.3,0,1.61,1.31,2.93,2.93,2.93s2.93-1.31,2.93-2.93c0-.74-.27-1.44-.77-1.98l-.96.88c.28.3.43.69.43,1.1,0,.9-.73,1.63-1.63,1.63s-1.63-.73-1.63-1.63c0-.54.27-1.05.72-1.35h0s6.08-5.02,6.08-5.02c2.25-1.65,3.59-4.29,3.59-7.08ZM21.85,21.7c-.39-.33-.62-.82-.62-1.33,0-.96.78-1.74,1.74-1.74.39,0,.77.13,1.08.37l1.56,1.28h0v4.51l-3.76-3.08ZM25.61,28.37l-5.58-4.33c-1.13-.89-1.77-2.22-1.77-3.65,0-2.56,2.09-4.65,4.65-4.65.98,0,1.92.3,2.7.86v1.99l-.74-.6h0c-.53-.43-1.2-.66-1.89-.66-1.68,0-3.04,1.37-3.04,3.04,0,.9.4,1.76,1.09,2.34h0s4.58,3.76,4.58,3.76v1.91ZM35.08,13.1l2.69,1.28,2.61-1.24c-.61,1.06-1.54,1.88-2.64,2.29-1.1-.42-2.05-1.26-2.66-2.33ZM35.94,12.07v-2.77l1.18-.44v3.77l-1.18-.56ZM38.42,12.63v-3.77l1.18.44v2.77l-1.18.56ZM41.7,11.07l-.8.38v-1.66l.96.36-.15.92ZM35.88,1.96c.51-.51,1.18-.79,1.9-.79s1.42.29,1.93.82l.14.15c.13.14.26.27.4.41l1.08,1.08.03.03c.66.57,1.5.89,2.37.89.61,0,1.2-.15,1.72-.43,0,.04,0,.08,0,.12.02,1.56-1.23,2.86-2.79,2.89-.42,0-.82-.07-1.2-.24-.2-.26-.42-.49-.67-.7-.83-.69-1.89-1.07-3.01-1.07-.72,0-1.43.16-2.06.46-.4-.48-.62-1.09-.62-1.71,0-.72.28-1.39.78-1.9ZM34.64,11.45l-.8-.38-.15-.92.96-.36v1.66ZM37.77,6.41c1.54,0,2.55.87,3.05,1.96l-3.05-1.14-3.05,1.14c.5-1.09,1.51-1.96,3.05-1.96ZM35.74,15.81c.54.41,1.15.72,1.8.94l.2.07.2-.07c.65-.21,1.26-.53,1.8-.95l1.14.86c-.78.89-1.9,1.41-3.11,1.41s-2.33-.52-3.11-1.42l1.08-.84ZM49.94,24.61v-4.33h0s1.56-1.29,1.56-1.29c.31-.24.68-.37,1.08-.37.96,0,1.74.78,1.74,1.74,0,.52-.23,1-.62,1.33l-3.75,3.08v-.17ZM49.94,16.6c.78-.56,1.72-.86,2.7-.86,2.56,0,4.65,2.09,4.65,4.65,0,1.43-.65,2.77-1.77,3.65l-5.57,4.33v-1.9l4.58-3.76h0c.69-.58,1.09-1.44,1.09-2.34,0-1.68-1.37-3.04-3.04-3.04-.68,0-1.35.23-1.89.66h0s-.74.61-.74.61v-1.99ZM48.64,17.13v12.26c-1.24,1.13-1.95,2.72-1.95,4.41,0,.74.14,1.47.4,2.15-1.96,3.26-5.5,5.28-9.32,5.28s-7.36-2.01-9.32-5.28c0-.02.01-.04.02-.06.01-.04.03-.08.04-.12.02-.05.04-.1.05-.16.01-.04.02-.08.04-.12.02-.05.03-.1.04-.16.01-.04.02-.08.03-.12.01-.05.03-.11.04-.16,0-.04.02-.08.03-.12.01-.05.02-.11.03-.17,0-.04.01-.08.02-.12,0-.06.02-.12.02-.17,0-.04,0-.07.01-.11,0-.06.01-.13.01-.19,0-.03,0-.06,0-.09,0-.1,0-.19,0-.29h0c0-.05,0-.11,0-.16,0-.02,0-.04,0-.05,0-.04,0-.07,0-.11,0-.02,0-.04,0-.06,0-.03,0-.07,0-.1,0-.02,0-.05,0-.07,0-.03,0-.06,0-.09,0-.02,0-.05,0-.07,0-.03,0-.06-.01-.09,0-.02,0-.05-.01-.07,0-.03,0-.06-.01-.09,0-.02,0-.05-.01-.07,0-.03-.01-.06-.02-.09,0-.02,0-.05-.01-.07,0-.03-.01-.06-.02-.09,0-.02-.01-.05-.02-.07,0-.03-.01-.06-.02-.09,0-.02-.01-.05-.02-.07,0-.03-.02-.06-.02-.09,0-.02-.01-.05-.02-.07,0-.03-.02-.06-.03-.09,0-.02-.01-.04-.02-.07,0-.03-.02-.06-.03-.09,0-.02-.01-.04-.02-.07-.01-.03-.02-.06-.03-.09,0-.02-.01-.04-.02-.06-.01-.03-.02-.06-.04-.09,0-.02-.01-.04-.02-.06-.01-.03-.03-.07-.04-.1,0-.02-.01-.03-.02-.05-.04-.1-.09-.19-.14-.29,0-.01-.01-.03-.02-.04-.02-.03-.03-.07-.05-.1,0-.02-.02-.04-.03-.05-.02-.03-.03-.06-.05-.09-.01-.02-.02-.04-.03-.06-.02-.03-.03-.05-.05-.08-.01-.02-.02-.04-.04-.06-.02-.03-.03-.05-.05-.08-.01-.02-.03-.04-.04-.06-.02-.02-.03-.05-.05-.07-.01-.02-.03-.04-.04-.06-.02-.02-.03-.05-.05-.07-.01-.02-.03-.04-.04-.06-.02-.02-.04-.05-.05-.07-.01-.02-.03-.04-.04-.06-.02-.02-.04-.05-.06-.07-.02-.02-.03-.04-.05-.06-.02-.02-.04-.05-.06-.07-.02-.02-.03-.04-.05-.05-.02-.02-.04-.04-.06-.07-.02-.02-.03-.03-.05-.05-.02-.02-.04-.04-.06-.07-.02-.02-.03-.03-.05-.05-.02-.02-.04-.04-.07-.07-.02-.02-.03-.03-.05-.05-.02-.02-.05-.05-.07-.07-.02-.01-.03-.03-.05-.04,0,0,0,0,0,0v-12.27h6.48c1.02,1.4,2.64,2.23,4.39,2.23s3.37-.83,4.39-2.23h6.48Z"/>
        <polygon class="cls-1" points="37.27 4.71 38.28 4.71 38.28 3.84 39.14 3.84 39.14 2.84 38.28 2.84 38.28 1.97 37.27 1.97 37.27 2.84 36.41 2.84 36.41 3.84 37.27 3.84 37.27 4.71"/>
        <path class="cls-1" d="M41.73,28.79l-.1.26c-.18.02-.33.12-.42.26,0,0-.49.2-.49.2-.03.01-.06.05-.06.1,0,.04.02.07.04.09,0,0,0,.01,0,.02l.16.36c.07,0,.15,0,.22-.03.16-.07.19-.09.27-.09.11,0,.2.09.2.2s-.09.2-.19.2h-.07s-.09-.01-.12-.03c-.05-.03-.09-.08-.1-.14-.11.1-.15.2-.16.31,0,.06,0,.13,0,.21h.89l-.76.47s-.07.02-.1,0l-1.18-.74v-.29c0-.06-.03-.12-.08-.15l-.34-.22v1.09c0,.06.03.12.08.15l1.21.76s-.01.08-.01.12l-.86.54v-.31c0-.06-.03-.12-.08-.15l-.34-.22v1.43c0,.14.15.22.27.15l1.22-.77.7,1.45-1.03.65c-.05.03-.08.09-.08.15v.67s-.53-.18-.53-.18c-.07-.02-.12-.09-.12-.16v-.37c0-.07-.05-.14-.12-.16l-.31-.11v1.28c0,.07.05.14.12.16l1.49.53c.11.04.23-.04.23-.16v-.78c0-.09.08-.17.18-.17h.79l.52,1.09c.03.06.09.1.16.1h.9l-.18.53c-.02.07-.09.12-.16.12h-.37c-.07,0-.14.05-.16.12l-.11.31h1.28c.07,0,.14-.05.16-.12l.53-1.49c.04-.11-.04-.23-.16-.23l-.9-.02c-.12,0-.2-.12-.16-.23l.26-.74h.5c.62,0,1.16-.49,1.16-1.11,0-.25-.05-.39-.13-.55l-.64-1.35c-.1-.26.09-.55.37-.55h0c.05.1.14.16.25.16h.11c.31,0,.58-.19.68-.48h-1.05c-.16,0-.32.05-.45.16-.28.22-.35.57-.19.91l.65,1.34c.05.1.07.22.07.34,0,.46-.38.82-.84.82h-.42c-.4,0-.73-.33-.73-.73,0-.13.08-.35.08-.35l.77-2.16c.18-.5.15-1.06-.11-1.53-.11-.2-.26-.4-.49-.58-.35-.28-.82-.41-1.12-.41-.17,0-.34.03-.49.09Z"/>
        <path class="cls-1" d="M41.76,23.49c-.05,0-.09-.05-.1-.1-.1-1.02-.96-1.83-2.01-1.83-.05,0-.1,0-.15,0-.04,0-.08-.01-.1-.05-.37-.5-.96-.82-1.62-.82s-1.26.32-1.62.82c-.02.03-.06.05-.1.05-.05,0-.1,0-.15,0-1.05,0-1.91.8-2.01,1.83,0,.05-.04.09-.1.1-.73.1-1.29.73-1.29,1.48s.56,1.38,1.29,1.48c.05,0,.09.05.1.1.1,1.02.96,1.83,2.01,1.83.05,0,.1,0,.15,0,.04,0,.08.01.1.05.16.22.36.4.59.54,0,0,0,0,0,0,.3.18.51.51.51.89v6.62s-.03.09-.07.11l-2.42.84s-.07.06-.07.11v.09h3.09s0,0,0,0h3.09s0,0,0,0h0v-.09s-.03-.09-.07-.11l-2.42-.84s-.07-.06-.07-.11v-6.64c.01-.37.21-.69.51-.87.23-.14.43-.32.59-.54.02-.03.06-.05.1-.05.05,0,.1,0,.15,0,1.05,0,1.91-.8,2.01-1.83,0-.05.04-.09.1-.1.73-.1,1.29-.73,1.29-1.48s-.56-1.38-1.29-1.48Z"/>
        <path class="cls-1" d="M36.2,35.77v-1.28l-.31.11c-.07.02-.12.09-.12.16v.37c0,.07-.05.14-.12.16l-.53.18v-.67c0-.06-.03-.12-.08-.15l-1.03-.65.7-1.45,1.22.77c.12.07.27-.01.27-.15v-1.43l-.34.22c-.05.03-.08.09-.08.15v.31l-.86-.54s0-.08-.01-.12l1.21-.76c.05-.03.08-.09.08-.15v-1.09l-.34.22c-.05.03-.08.09-.08.15v.29l-1.18.74s-.07.02-.1,0l-.76-.47h.89c0-.08,0-.15,0-.21,0-.1-.04-.21-.16-.31,0,.06-.05.11-.1.14-.03.02-.08.03-.12.03h-.07c-.11,0-.19-.09-.19-.2s.09-.2.2-.2c.08,0,.11.02.27.09.07.03.14.04.22.03l.16-.36s0-.02,0-.02c.03-.02.04-.05.04-.09,0-.05-.04-.09-.06-.1,0,0-.49-.2-.49-.2-.09-.14-.24-.24-.42-.26l-.1-.26c-.15-.06-.32-.09-.49-.09-.31,0-.78.13-1.12.41-.22.17-.38.38-.49.58-.25.47-.29,1.03-.11,1.53l.77,2.16s.08.23.08.35c0,.4-.33.73-.73.73h-.42c-.46,0-.84-.36-.84-.82,0-.12.02-.23.07-.34l.65-1.34c.16-.35.08-.7-.19-.91-.14-.11-.3-.16-.45-.16h-1.05c.1.29.37.48.68.48h.11c.11,0,.21-.06.25-.16h0c.28,0,.48.28.37.55l-.64,1.35c-.08.16-.13.3-.13.55,0,.62.54,1.11,1.16,1.11h.5l.26.74c.04.11-.04.23-.16.23l-.9.02c-.12,0-.2.12-.16.23l.53,1.49c.02.07.09.12.16.12h1.28l-.11-.31c-.02-.07-.09-.12-.16-.12h-.37c-.07,0-.14-.05-.16-.12l-.18-.53h.9c.07,0,.13-.04.16-.1l.52-1.09h.79c.09,0,.17.08.17.17v.78c0,.12.12.2.24.16l1.49-.53c.07-.02.12-.09.12-.16Z"/>
      </g>
      <path class="cls-1" d="M3.36,64.77c-.21-.2-.52-.3-.78-.3-.64,0-1.05.36-1.05,1.1,0,.48.26,1.08,1.05,1.08.23,0,.45-.04.71-.23v-.54h-.8v-.62h1.45v1.46c-.29.41-.75.62-1.36.62-1.29,0-1.78-.89-1.78-1.77,0-.94.56-1.78,1.78-1.78.45,0,.87.12,1.25.52l-.46.46ZM7,67.32c-1.07,0-1.81-.67-1.81-1.76s.74-1.76,1.81-1.76,1.81.67,1.81,1.76-.74,1.76-1.81,1.76ZM7,64.47c-.64,0-1.08.48-1.08,1.09s.44,1.08,1.08,1.08,1.08-.46,1.08-1.08-.43-1.09-1.08-1.09ZM11.87,63.88c.64,0,1.16.29,1.16.91,0,.28-.12.54-.45.68.43.15.6.58.53.97-.1.54-.55.78-1.22.78h-1.68v-3.35h1.65ZM10.95,65.19h.91c.29,0,.44-.12.44-.32s-.14-.34-.43-.34h-.92v.66ZM10.95,66.58h.92c.33,0,.49-.15.49-.38s-.17-.39-.5-.39h-.91v.78ZM14.55,67.23v-3.35h.74v3.35h-.74ZM19.44,67.23h-2.55v-3.35h2.48v.68h-1.75v.65h1.65v.66h-1.65v.67h1.82v.69ZM23.85,67.23h-.83l-.86-1.1h-.54v1.1h-.75v-3.35h1.59c.81,0,1.24.54,1.24,1.13,0,.44-.13.82-.78,1.05l.92,1.11v.06ZM21.63,64.53v.98h.85c.34,0,.49-.26.49-.47,0-.23-.15-.51-.5-.51h-.84ZM27.53,66.06l-.05-1.05v-1.12h.75v3.35h-.64l-1.67-2.14.03,1.1v1.04h-.76v-3.35h.64l1.69,2.18ZM31.45,67.32c-1.07,0-1.81-.67-1.81-1.76s.74-1.76,1.81-1.76,1.81.67,1.81,1.76-.74,1.76-1.81,1.76ZM31.45,64.47c-.64,0-1.08.48-1.08,1.09s.44,1.08,1.08,1.08,1.08-.46,1.08-1.08-.43-1.09-1.08-1.09ZM38.03,63.88c1.15,0,1.67.78,1.67,1.65s-.49,1.7-1.67,1.7h-1.37v-3.35h1.37ZM37.39,66.55h.64c.73,0,.93-.54.93-1.02s-.23-.97-.93-.97h-.64v1.99ZM43.66,67.23h-2.55v-3.35h2.48v.68h-1.75v.65h1.65v.66h-1.65v.67h1.82v.69ZM45.85,63.88v2.67h1.67v.68h-2.42v-3.35h.75ZM53.23,67.23h-2.55v-3.35h2.48v.68h-1.75v.65h1.65v.66h-1.65v.67h1.82v.69ZM56.65,64.69c-.19-.2-.51-.28-.78-.28-.33,0-.6.14-.6.37,0,.31.29.36.72.4.66.06,1.29.31,1.29,1.09s-.69,1.07-1.41,1.08c-.58,0-1.18-.22-1.46-.69l.45-.46c.26.33.68.47,1.02.47.4,0,.67-.16.67-.4,0-.28-.22-.41-.67-.45-.71-.07-1.34-.24-1.33-1.03,0-.67.64-1.02,1.33-1.02.52,0,.9.11,1.25.52l-.47.41ZM59.38,64.55h-1.02v-.67h2.78v.67h-1.02v2.68h-.74v-2.68ZM64.52,66.66h-1.72l-.24.57h-.8l1.5-3.35h.81l1.5,3.35h-.81l-.24-.57ZM63.67,64.64l-.58,1.36h1.15l-.57-1.36ZM68.15,63.88c1.15,0,1.67.78,1.67,1.65s-.49,1.7-1.67,1.7h-1.37v-3.35h1.37ZM67.52,66.55h.64c.73,0,.93-.54.93-1.02s-.23-.97-.93-.97h-.64v1.99ZM72.85,67.32c-1.07,0-1.81-.67-1.81-1.76s.74-1.76,1.81-1.76,1.81.67,1.81,1.76-.74,1.76-1.81,1.76ZM72.85,64.47c-.64,0-1.08.48-1.08,1.09s.44,1.08,1.08,1.08,1.08-.46,1.08-1.08-.43-1.09-1.08-1.09ZM5.31,47.11v2.33h3.19v4.53c0,1.77-1,2.76-2.68,2.76-1.46,0-2.53-.71-2.62-2.6H.72s-.72,0-.72,0l.24.64h0c.28,0,.53.21.57.49.4,2.7,2.19,3.9,5.05,3.9,3.4,0,5.21-2.17,5.21-5.17v-6.88h-5.76ZM19.45,47.11h-2.8s-1.01,0-1.01,0l.24.64h0c.23,0,.39.24.29.45l-4.96,10.98h2.78l1.09-2.54h5.91l1.09,2.54h2.78l-5.42-12.06ZM16.07,54.37l1.99-4.66,1.97,4.66h-3.96ZM28.64,56.81v-9.71h-2.57s-.75,0-.75,0l.24.64h0c.28,0,.51.23.51.51v10.91h8.32v-2.35h-5.76ZM68.51,59.17c-3.68,0-6.22-2.28-6.22-6.03s2.53-6.04,6.22-6.04,6.22,2.3,6.22,6.04-2.53,6.03-6.22,6.03ZM68.51,49.4c-2.19,0-3.7,1.66-3.7,3.74s1.51,3.71,3.7,3.71,3.7-1.58,3.7-3.71-1.46-3.74-3.7-3.74ZM36.18,47.1h0s-.75,0-.75,0l.24.64h0c.28,0,.51.23.51.51v10.91h2.55v-12.06h-2.55ZM49.48,48.74c-.24-.27-.48-.5-.73-.7-.02-.01-.03-.02-.05-.04-.99-.78-2.12-1.03-3.52-1.03-2.37,0-4.54,1.22-4.56,3.5-.03,2.71,2.14,3.32,4.57,3.55,1.56.13,2.34.57,2.32,1.54,0,.82-.94,1.36-2.3,1.36-.18,0-.37-.01-.56-.04l-.11-.02c-.65-.1-1.33-.33-1.92-.73-.27-.18-.31-.56-.09-.79l-.3-.61-.54.56s0,0,0,0l-1.53,1.59c.97,1.61,3.04,2.38,5.03,2.36,2.48-.02,4.85-1.13,4.85-3.7s-2.15-3.53-4.42-3.73c-1.48-.13-2.48-.33-2.48-1.38,0-.79.92-1.26,2.06-1.26.9,0,2.02.3,2.66.97l1.62-1.42ZM57.27,56.82c-2.7,0-3.6-1.91-3.62-3.58-.02-1.68,1-3.7,3.62-3.7.92,0,1.92.28,2.62.95l1.46-1.45.65-.64-.61-.29h0c-.2.2-.51.23-.74.07-1.01-.7-2.15-1.06-3.37-1.06-4.23,0-6.17,3.12-6.15,6.09.02,3.14,1.76,5.96,6.15,5.96,1.71,0,3.24-.53,4.42-1.69l-1.6-1.77c-.69.69-1.91,1.1-2.83,1.1Z"/>
    </g>
  </g>
</svg>