<?xml version="1.0" encoding="UTF-8"?>
<svg id="Layer_2" data-name="Layer 2" xmlns="http://www.w3.org/2000/svg" viewBox="0 0 80.83 19.92">
  <defs>
    <style>
      .cls-1 {
        fill: #004852;
      }
    </style>
  </defs>
  <g id="Capa_1" data-name="Capa 1">
    <g>
      <g>
        <g>
          <path class="cls-1" d="M7.82,14.62l-.07-7.89h3.17v12.95h-2.87l-4.95-7.8.07,7.8H0V6.73h2.85l4.97,7.89Z"/>
          <path class="cls-1" d="M12.02,13.34c0-4.23,3.25-6.86,6.82-6.86,3.99,0,6.84,3.11,6.84,6.72s-2.83,6.72-6.86,6.72-6.81-3.24-6.81-6.56v-.02ZM15.33,13.19c0,1.98,1.35,3.83,3.57,3.83,2.34,0,3.48-2.13,3.48-3.8s-1.14-3.83-3.52-3.83-3.53,1.96-3.53,3.78v.02Z"/>
          <path class="cls-1" d="M26.77,6.73h4.23c2.03,0,3.29.37,4.01.93,1.08.84,1.57,2.12,1.57,3.53,0,1-.28,1.77-.65,2.34-.44.68-1.07,1.12-1.68,1.38l2.68,4.76h-3.41l-3.38-6.25h.54c.84,0,1.56-.07,1.99-.35.4-.26.73-.87.73-1.59s-.33-1.22-.77-1.5c-.37-.23-.89-.35-1.35-.35h-1.22v10.04h-3.31V6.73Z"/>
          <path class="cls-1" d="M39.76,9.63h-2.55v-2.9h8.4v2.9h-2.54v10.04h-3.31v-10.04Z"/>
          <path class="cls-1" d="M46.93,6.73h7.33v2.9h-4.02v2.01h3.9v2.9h-3.9v2.22h4.02v2.9h-7.33V6.73Z"/>
        </g>
        <g>
          <path class="cls-1" d="M59.64,9.51h-2.12v-2.78h5.42v12.95h-3.31v-10.17Z"/>
          <path class="cls-1" d="M65.95,19.68l2.34-3.2c.18-.25.35-.47.51-.7-.02-.02-.42.04-.66.04-1.89,0-4.08-1.45-4.08-4.39s2.29-4.93,5.02-4.93c1.63,0,3.13.59,4.01,1.75.82.93,1.1,2.26,1.1,3.25,0,1.31-.54,2.47-1.19,3.46l-3.22,4.72h-3.83ZM70.94,11.15c0-1.17-.94-1.77-1.78-1.77-.94,0-1.78.7-1.78,1.73,0,.84.61,1.77,1.78,1.77,1.08,0,1.78-.8,1.78-1.71v-.02Z"/>
        </g>
        <path class="cls-1" d="M59.67,9.41h-2.12v-2.78h5.42v12.95h-3.31v-10.17Z"/>
        <path class="cls-1" d="M65.99,19.58l2.34-3.2c.18-.24.35-.47.51-.7-.02-.02-.42.03-.66.03-1.89,0-4.08-1.45-4.08-4.39s2.29-4.93,5.02-4.93c1.63,0,3.13.6,4.01,1.75.82.93,1.1,2.26,1.1,3.25,0,1.31-.54,2.47-1.19,3.46l-3.22,4.72h-3.83ZM70.97,11.06c0-1.17-.94-1.77-1.78-1.77-.94,0-1.78.7-1.78,1.73,0,.84.61,1.77,1.78,1.77,1.08,0,1.78-.81,1.78-1.71v-.02Z"/>
        <polygon class="cls-1" points="77.53 0 74.23 0 70.92 0 70.92 3.3 74.23 3.3 77.53 3.3 77.53 6.54 77.53 6.57 77.53 9.84 80.83 9.84 80.83 6.57 80.83 6.54 80.83 3.3 80.83 3.27 80.83 0 77.53 0"/>
      </g>
      <g>
        <path class="cls-1" d="M1.56,2.32c-.12-.07-.22-.16-.29-.27-.07-.12-.1-.25-.1-.4s.03-.29.1-.4c.07-.12.16-.21.29-.27.12-.06.26-.1.4-.1s.28.03.4.1c.12.07.21.16.28.27.07.12.1.25.1.4s-.03.29-.1.4c-.07.12-.16.21-.28.27-.12.06-.25.1-.4.1s-.28-.03-.4-.1ZM2.2,2.06c.07-.04.13-.09.17-.17.04-.07.06-.16.06-.25s-.02-.18-.06-.25-.1-.13-.17-.17c-.07-.04-.15-.06-.23-.06s-.17.02-.24.06c-.07.04-.13.09-.17.17-.04.07-.06.15-.06.25s.02.18.06.25c.04.07.1.13.17.17s.15.06.24.06.16-.02.23-.06Z"/>
        <path class="cls-1" d="M4.36.9h.62c.17,0,.3.04.4.13.1.09.15.21.15.37s-.05.28-.15.37c-.1.09-.23.13-.4.13h-.3v.48h-.32V.9ZM4.94,1.63c.18,0,.27-.08.27-.23,0-.09-.02-.15-.07-.18-.05-.03-.12-.05-.2-.05h-.25v.46h.25Z"/>
        <path class="cls-1" d="M7.12.9h1.03v.27h-.71v.34h.52v.26h-.52v.34h.71v.27h-1.03V.9Z"/>
        <path class="cls-1" d="M9.73.9h.64c.17,0,.3.04.39.13.09.08.14.21.14.36,0,.11-.03.2-.08.28-.05.08-.12.13-.22.17l.28.54h-.33l-.26-.5h-.25v.5h-.32V.9ZM10.32,1.61c.08,0,.15-.02.19-.05.05-.04.07-.09.07-.17,0-.08-.02-.14-.07-.17-.05-.03-.11-.05-.2-.05h-.26v.44h.26Z"/>
        <path class="cls-1" d="M12.98.9h.32l.59,1.48h-.33l-.13-.32h-.59l-.13.32h-.33l.59-1.48ZM13.35,1.8l-.21-.56-.21.56h.42Z"/>
        <path class="cls-1" d="M15.5.9h.52c.16,0,.3.03.42.09.12.06.21.14.28.25.06.11.1.24.1.39,0,.25-.07.43-.22.56-.14.13-.34.19-.6.19h-.5V.9ZM16.01,2.11c.15,0,.27-.04.35-.13.08-.08.12-.2.12-.35,0-.09-.02-.17-.05-.24-.04-.07-.09-.13-.15-.17s-.15-.06-.24-.06h-.21v.94h.19Z"/>
        <path class="cls-1" d="M18.76,2.32c-.12-.07-.22-.16-.29-.27-.07-.12-.1-.25-.1-.4s.03-.29.1-.4c.07-.12.16-.21.29-.27.12-.06.26-.1.4-.1s.28.03.4.1c.12.07.21.16.28.27.07.12.1.25.1.4s-.03.29-.1.4c-.07.12-.16.21-.28.27-.12.06-.25.1-.4.1s-.28-.03-.4-.1ZM19.4,2.06c.07-.04.13-.09.17-.17.04-.07.06-.16.06-.25s-.02-.18-.06-.25-.1-.13-.17-.17c-.07-.04-.15-.06-.23-.06s-.17.02-.24.06c-.07.04-.13.09-.17.17-.04.07-.06.15-.06.25s.02.18.06.25c.04.07.1.13.17.17s.15.06.24.06.16-.02.23-.06Z"/>
        <path class="cls-1" d="M21.57.9h.64c.17,0,.3.04.39.13.09.08.14.21.14.36,0,.11-.03.2-.08.28-.05.08-.12.13-.22.17l.28.54h-.33l-.26-.5h-.25v.5h-.32V.9ZM22.15,1.61c.08,0,.15-.02.19-.05.05-.04.07-.09.07-.17,0-.08-.02-.14-.07-.17-.05-.03-.11-.05-.2-.05h-.26v.44h.26Z"/>
        <path class="cls-1" d="M24.81.9h.32l.59,1.48h-.33l-.13-.32h-.59l-.13.32h-.33l.59-1.48ZM25.18,1.8l-.21-.56-.21.56h.42Z"/>
        <path class="cls-1" d="M29.5.9h.32v.59h.65v-.59h.32v1.48h-.32v-.62h-.65v.62h-.32V.9Z"/>
        <path class="cls-1" d="M32.79,2.32c-.12-.07-.22-.16-.29-.27-.07-.12-.1-.25-.1-.4s.03-.29.1-.4c.07-.12.16-.21.29-.27.12-.06.26-.1.4-.1s.28.03.4.1c.12.07.21.16.28.27.07.12.1.25.1.4s-.03.29-.1.4c-.07.12-.16.21-.28.27-.12.06-.25.1-.4.1s-.28-.03-.4-.1ZM33.43,2.06c.07-.04.13-.09.17-.17.04-.07.06-.16.06-.25s-.02-.18-.06-.25-.1-.13-.17-.17c-.07-.04-.15-.06-.23-.06s-.17.02-.24.06c-.07.04-.13.09-.17.17-.04.07-.06.15-.06.25s.02.18.06.25c.04.07.1.13.17.17s.15.06.24.06.16-.02.23-.06Z"/>
        <path class="cls-1" d="M35.83,1.17h-.43v-.27h1.19v.27h-.43v1.21h-.32v-1.21Z"/>
        <path class="cls-1" d="M38.16.9h1.03v.27h-.71v.34h.52v.26h-.52v.34h.71v.27h-1.03V.9Z"/>
        <path class="cls-1" d="M40.77.9h.32v1.21h.68v.27h-1V.9Z"/>
        <path class="cls-1" d="M43.31.9h1.03v.27h-.71v.34h.52v.26h-.52v.34h.71v.27h-1.03V.9Z"/>
        <path class="cls-1" d="M45.93.9h.64c.17,0,.3.04.39.13s.14.21.14.36c0,.11-.03.2-.08.28-.05.08-.12.13-.22.17l.28.54h-.33l-.26-.5h-.25v.5h-.32V.9ZM46.51,1.61c.08,0,.15-.02.19-.05.05-.04.07-.09.07-.17,0-.08-.02-.14-.07-.17s-.11-.05-.2-.05h-.26v.44h.26Z"/>
        <path class="cls-1" d="M49.17.9h.32l.59,1.48h-.33l-.13-.32h-.59l-.13.32h-.33l.59-1.48ZM49.54,1.8l-.21-.56-.21.56h.42Z"/>
      </g>
    </g>
  </g>
</svg>