<?xml version="1.0" encoding="UTF-8"?>
<svg id="Layer_2" data-name="Layer 2" xmlns="http://www.w3.org/2000/svg" viewBox="0 0 184.56 42.74">
  <defs>
    <style>
      .cls-1 {
        fill: #00a5d6;
      }

      .cls-2 {
        fill: #a3c617;
      }
    </style>
  </defs>
  <g id="Capa_1" data-name="Capa 1">
    <g>
      <path class="cls-1" d="M83.41,15.37c.74-.7,1.09-1.61,1.09-2.78v-2.25c0-1.17-.35-2.07-1.07-2.76l-.04-.04c-.75-.68-1.77-1.03-3.01-1.03h-20.94v21.2h20.94c1.25,0,2.27-.35,3.03-1.05.73-.69,1.09-1.6,1.09-2.78v-2.26c0-1.17-.36-2.08-1.09-2.77-.31-.28-.66-.5-1.04-.67l-2.46-1.08,2.46-1.06c.39-.17.74-.39,1.04-.67ZM80.29,19.35c.64.53.97,1.39.97,2.56s-.32,2.02-.94,2.56c-.59.48-1.34.72-2.21.72h-15.42v-6.55h15.42c.86,0,1.6.24,2.19.71ZM80.33,14.8l-.03.03c-.58.47-1.3.7-2.19.7h-15.42v-6.56h15.42c.87,0,1.61.24,2.19.71.44.36.97,1.1.97,2.57,0,1.16-.31,2.02-.93,2.56Z"/>
      <path class="cls-1" d="M26.99,15.47c.8-.82,1.2-1.88,1.2-3.26v-5.54c0-1.37-.4-2.44-1.22-3.26-.81-.81-1.94-1.22-3.34-1.22H0v25.59h3.23v-11.08h14.07l5.55,11.08h4.67l-5.58-10.96,2.11-.13c1.23-.08,2.19-.47,2.94-1.22ZM23.79,12.42c-.71.56-1.6.84-2.65.84H3.23v-7.64h17.91c1.06,0,1.95.28,2.65.83.78.62,1.17,1.63,1.17,2.98s-.39,2.36-1.17,2.98Z"/>
      <path class="cls-1" d="M56.31,22.15c0,3.71-3.18,5.56-9.55,5.56h-5.96c-6.32,0-9.48-1.84-9.48-5.53v-10.19c0-3.67,3.16-5.5,9.48-5.5h5.96c6.36,0,9.55,1.83,9.55,5.5v10.15ZM53.11,12.19c0-2.14-1.76-3.22-5.27-3.22h-7.71c-3.72,0-5.58,1.07-5.58,3.22v9.94c0,2.04,1.86,3.06,5.58,3.06h7.52c3.64,0,5.46-1.02,5.46-3.06v-9.94Z"/>
      <polygon class="cls-1" points="126.57 27.71 129.9 27.71 129.9 8.97 140.73 8.97 140.73 6.5 115.74 6.5 115.74 8.97 126.57 8.97 126.57 27.71"/>
      <g>
        <path class="cls-2" d="M181.31,21.55c-1.79,0-3.25,1.39-3.25,3.1s1.46,3.1,3.25,3.1,3.25-1.39,3.25-3.1-1.46-3.1-3.25-3.1M181.3,27.36c-1.57,0-2.84-1.22-2.84-2.72s1.27-2.71,2.84-2.71,2.85,1.21,2.85,2.71-1.28,2.72-2.85,2.72"/>
        <path class="cls-2" d="M181.87,24.81c.25-.04.45-.14.59-.29h0c.17-.19.26-.41.26-.66,0-.33-.12-.58-.35-.75-.22-.16-.53-.24-.91-.24h-1.19v3.58h.55v-1.58h.45l.98,1.58h.66l-1.04-1.63ZM181.37,24.46h-.65v-1.19h.65c.16,0,.29.02.4.04.11.03.21.06.27.13.06.06.11.12.15.19.03.08.05.14.05.22,0,.09-.02.17-.05.23-.03.08-.08.14-.15.19-.07.06-.16.1-.27.13-.11.04-.25.05-.4.05"/>
      </g>
      <path class="cls-2" d="M147.01,6.5v21.21h-3.21V6.5h3.21Z"/>
      <polygon class="cls-2" points="170.16 27.76 175.13 27.76 165.13 17.14 175.13 6.54 170.16 6.54 162.65 14.53 155.12 6.54 150.14 6.54 160.15 17.14 150.14 27.76 155.12 27.76 162.65 19.78 170.16 27.76"/>
      <path class="cls-1" d="M95.01,20.61c.54.25,1.07.46,1.57.63.5.18,1.01.32,1.52.42.51.1,1.03.16,1.56.17.53.01,1.1-.02,1.71-.11s1.16-.2,1.65-.36c.5-.15.97-.34,1.42-.57.45-.22.88-.49,1.31-.79.43-.3.87-.64,1.34-1.02l.7.7c-.83.79-1.78,1.45-2.86,1.97-1.08.52-2.22.87-3.41,1.03-1.13.16-2.3.14-3.49-.07-1.2-.2-2.32-.59-3.38-1.17l.39-.85Z"/>
      <ellipse class="cls-2" cx="105.14" cy="15.05" rx="1.81" ry="1.79"/>
      <ellipse class="cls-2" cx="95.59" cy="15.05" rx="1.81" ry="1.79"/>
      <path class="cls-1" d="M113.89,12.18h-.6v-.22c0-3.67-3.2-5.51-9.6-5.51h-2.18c-.03-.93-.15-2.73-.6-3.77,0,0,0,0,0,0,.37-.27.61-.7.61-1.18,0-.83-.7-1.5-1.57-1.5s-1.57.67-1.57,1.5.7,1.5,1.57,1.5c.04,0,.08,0,.12-.01h0s.51,1.36.52,3.47h-2.9c-6.36,0-9.54,1.84-9.54,5.51v.22h-.54c-.24,0-.43.19-.43.42v4.41c0,.23.2.42.43.42h.54v4.75c0,3.7,3.18,5.54,9.54,5.54h6c6.4,0,9.6-1.86,9.6-5.57v-4.71h.6c.24,0,.43-.19.43-.42v-4.41c0-.23-.2-.42-.43-.42ZM110.24,22.24c0,2.06-1.86,3.09-5.59,3.09h-7.7c-3.81,0-5.72-1.03-5.72-3.09v-10.03c0-2.16,1.91-3.25,5.72-3.25h7.9c3.6,0,5.4,1.08,5.4,3.25v10.03Z"/>
      <path class="cls-2" d="M100.21,34.06c.19,0,.29.09.29.27v1.18c0,.18-.1.27-.29.27h-5.38c-.32,0-.59.03-.8.08-.21.05-.38.15-.5.27s-.21.3-.27.52c-.05.22-.08.49-.08.81v.25h6.96c.18,0,.27.09.27.27v.98c0,.18-.09.27-.27.27h-6.96v3.22c0,.18-.09.27-.27.27h-1.34c-.19,0-.29-.09-.29-.27v-5.13c0-.6.06-1.1.19-1.51.13-.41.33-.75.61-1.01.28-.26.63-.45,1.07-.57s.97-.18,1.6-.18h5.45Z"/>
      <path class="cls-2" d="M172.42,36.47c.51,0,.94.04,1.29.13.35.09.63.22.84.41s.36.43.45.72.14.64.14,1.06v3.7c0,.17-.08.25-.25.25h-1.12c-.17,0-.25-.08-.25-.25v-3.31c0-.24-.02-.44-.05-.6-.03-.16-.09-.29-.18-.39s-.21-.16-.36-.21c-.15-.04-.35-.06-.59-.06h-3.03c-.24,0-.44.02-.6.06-.16.04-.29.11-.38.21s-.16.22-.2.39c-.04.16-.06.36-.06.6v3.31c0,.17-.08.25-.25.25h-1.12c-.18,0-.26-.08-.26-.25v-3.7c0-.41.05-.76.14-1.06.09-.29.24-.53.45-.72.21-.19.49-.32.83-.41.35-.09.78-.13,1.29-.13h3.27Z"/>
      <g>
        <path class="cls-2" d="M103.43,36.45c.17,0,.25.09.25.26v3.3c0,.24.02.44.05.6.03.16.09.29.17.38s.2.16.35.21c.15.04.35.06.6.06h2.93c.25,0,.46-.02.62-.06.16-.04.29-.11.38-.21.09-.1.16-.22.2-.38.04-.16.06-.36.06-.6v-3.3c0-.18.08-.26.25-.26h1.12c.17,0,.25.09.25.26v3.7c0,.41-.05.76-.14,1.06-.09.29-.24.53-.45.72s-.49.32-.84.4c-.35.08-.78.13-1.29.13h-3.18c-.52,0-.95-.04-1.29-.13-.35-.08-.62-.22-.83-.4-.21-.19-.36-.43-.45-.72-.09-.29-.14-.64-.14-1.06v-3.7c0-.18.09-.26.26-.26h1.12Z"/>
        <path class="cls-2" d="M118.46,36.45c.51,0,.94.04,1.29.13.35.09.63.22.84.41s.36.43.45.72c.09.29.14.64.14,1.06v3.7c0,.17-.08.25-.25.25h-1.12c-.17,0-.25-.08-.25-.25v-3.31c0-.24-.02-.44-.05-.6-.03-.16-.09-.29-.18-.39s-.21-.16-.36-.21c-.15-.04-.35-.06-.59-.06h-3.03c-.24,0-.44.02-.6.06-.16.04-.29.11-.38.21s-.16.22-.2.39c-.04.16-.06.36-.06.6v3.31c0,.17-.08.25-.25.25h-1.12c-.18,0-.26-.08-.26-.25v-3.7c0-.41.05-.76.14-1.06.09-.29.24-.53.45-.72s.49-.32.83-.41c.35-.09.78-.13,1.29-.13h3.27Z"/>
        <path class="cls-2" d="M129.99,36.45v-2.04c0-.17.08-.25.25-.25h1.12c.17,0,.25.08.25.25v6c0,.41-.05.76-.14,1.06s-.24.53-.45.72c-.21.19-.49.32-.84.4-.35.08-.78.13-1.29.13h-3.19c-.52,0-.95-.04-1.29-.13-.35-.08-.62-.22-.83-.4-.21-.19-.36-.43-.45-.72s-.14-.64-.14-1.06v-1.64c0-.41.05-.76.14-1.06s.24-.53.45-.72c.21-.19.49-.32.83-.41.35-.09.78-.13,1.29-.13h4.29ZM128.74,41.34c.25,0,.46-.02.62-.06.16-.04.29-.11.38-.2.09-.1.16-.22.2-.38s.06-.36.06-.6v-2.27h-4.13c-.24,0-.44.02-.6.06-.16.04-.29.11-.38.21-.1.1-.16.22-.2.39-.04.16-.06.36-.06.6v1.02c0,.24.02.44.06.6.04.16.1.29.2.38.09.1.22.16.38.2.16.04.36.06.6.06h2.87Z"/>
        <path class="cls-2" d="M138.74,36.45c.51,0,.94.04,1.29.13.35.09.63.22.84.41s.36.43.45.72c.09.29.14.64.14,1.06v3.03c0,.18-.01.33-.04.45-.03.12-.07.21-.14.28-.06.07-.15.12-.26.14-.11.03-.24.04-.41.04h-5.43c-.33,0-.61-.03-.84-.1s-.4-.16-.54-.29c-.14-.13-.23-.3-.29-.5-.06-.21-.09-.45-.09-.73v-.55c0-.24.03-.45.09-.63.06-.19.15-.34.29-.47.14-.13.32-.23.54-.29s.5-.1.84-.1h4.64v-.22c0-.18-.02-.34-.06-.47-.04-.13-.1-.23-.19-.31s-.22-.14-.38-.18c-.16-.04-.37-.06-.62-.06h-4.77c-.14,0-.21-.07-.21-.21v-.96c0-.14.07-.2.21-.2h4.93ZM139.49,41.45c.12,0,.21-.03.26-.08.05-.06.07-.16.07-.3v-1h-4.18c-.24,0-.4.05-.5.14-.1.1-.14.23-.14.42v.24c0,.21.05.36.14.45.09.1.26.14.5.14h3.84Z"/>
        <path class="cls-2" d="M150.56,36.45c.14,0,.21.07.21.2v.96c0,.14-.07.21-.21.21h-4.43c-.25,0-.46.02-.62.06s-.29.11-.38.21-.16.22-.19.39c-.04.16-.06.36-.06.6v1.02c0,.24.02.44.06.6s.1.29.19.38.22.16.38.2c.16.04.37.06.62.06h4.43c.14,0,.21.07.21.21v.96c0,.14-.07.21-.21.21h-4.59c-.52,0-.95-.04-1.29-.13-.35-.08-.62-.22-.83-.4s-.36-.43-.45-.72c-.09-.29-.14-.64-.14-1.06v-1.64c0-.41.05-.76.14-1.06.09-.29.24-.53.45-.72s.49-.32.83-.41c.35-.09.78-.13,1.29-.13h4.59Z"/>
        <path class="cls-2" d="M153.96,34.14c.17,0,.25.08.25.25v1.08c0,.18-.08.26-.25.26h-1.12c-.18,0-.26-.09-.26-.26v-1.08c0-.17.09-.25.26-.25h1.12ZM153.96,36.46c.17,0,.25.09.25.26v5.75c0,.17-.08.25-.25.25h-1.12c-.17,0-.25-.08-.25-.25v-5.75c0-.18.08-.26.25-.26h1.12Z"/>
        <path class="cls-2" d="M161.96,36.42c.51,0,.94.04,1.29.13.35.09.63.22.84.41s.36.43.45.72c.09.29.14.64.14,1.06v1.64c0,.41-.05.76-.14,1.06-.09.29-.24.53-.45.72-.21.19-.49.32-.84.4-.35.08-.78.13-1.29.13h-3.23c-.52,0-.95-.04-1.29-.13-.35-.08-.62-.22-.83-.4-.21-.19-.36-.43-.45-.72s-.14-.64-.14-1.06v-1.64c0-.41.05-.76.14-1.06s.24-.53.45-.72c.21-.19.49-.32.83-.41.35-.09.78-.13,1.29-.13h3.23ZM157.65,40.1c0,.24.02.44.06.6.04.16.1.29.2.38.09.1.22.16.38.2.16.04.36.06.6.06h2.91c.25,0,.46-.02.62-.06.16-.04.29-.11.38-.2.09-.1.16-.22.2-.38.04-.16.06-.36.06-.6v-1.08c0-.24-.02-.43-.06-.59-.04-.16-.1-.29-.2-.39-.1-.1-.22-.17-.38-.21-.16-.04-.36-.06-.62-.06h-2.91c-.24,0-.44.02-.6.06-.16.04-.29.11-.38.21-.1.1-.16.23-.2.39-.04.16-.06.36-.06.59v1.08ZM161.99,34.06c.06,0,.11.02.14.05.03.03.03.08,0,.14l-.87,1.56c-.03.06-.07.11-.11.14-.04.03-.09.05-.15.05h-.64c-.06,0-.11-.02-.14-.05-.03-.03-.03-.08,0-.14l.77-1.56c.06-.13.15-.19.26-.19h.74Z"/>
      </g>
    </g>
  </g>
</svg>