<?xml version="1.0" encoding="UTF-8"?>
<svg id="Layer_2" data-name="Layer 2" xmlns="http://www.w3.org/2000/svg" viewBox="0 0 117.86 118.24">
  <defs>
    <style>
      .cls-1 {
        fill: #1ab3b1;
      }

      .cls-2 {
        fill: #f1f1f1;
      }

      .cls-3 {
        fill: #434093;
      }

      .cls-4 {
        fill: #424093;
      }

      .cls-5 {
        fill: #fff;
      }
    </style>
  </defs>
  <g id="Capa_1" data-name="Capa 1">
    <g>
      <path class="cls-1" d="M0,0h117.86v36.99c0,44.84-36.41,81.25-81.25,81.25H0V0h0Z" transform="translate(117.86 118.24) rotate(180)"/>
      <g>
        <rect class="cls-2" x="36.11" y="40.59" width="59.34" height="45.22" rx="9.54" ry="9.54"/>
        <rect class="cls-4" x="41.08" y="45.9" width="49.39" height="34.61" rx="9.51" ry="9.51"/>
        <g>
          <path class="cls-5" d="M59,71.14c.63.4,1.23.76,1.84,1.06.61.33,1.19.59,1.82.78.62.23,1.25.39,1.89.48.67.1,1.39.17,2.15.17.76,0,1.49-.06,2.12-.14.64-.11,1.28-.26,1.86-.45.58-.19,1.2-.45,1.76-.74.59-.29,1.2-.65,1.83-1.01l.75,1c-1.15.83-2.49,1.47-3.93,1.95-1.44.45-2.92.68-4.44.67-1.45,0-2.89-.25-4.34-.7-1.45-.45-2.79-1.16-4.01-2.06l.7-1Z"/>
          <circle class="cls-5" cx="54.27" cy="60.83" r="3.58"/>
          <circle class="cls-5" cx="77.29" cy="60.7" r="3.58"/>
        </g>
        <path class="cls-2" d="M94.62,56.18h.84c3.52,0,6.37,2.86,6.37,6.37v2.03c0,3.52-2.86,6.37-6.37,6.37h-.84v-14.78h0Z"/>
        <g>
          <path class="cls-3" d="M62.58,28.49c.47.38,1.17.88,1.19,1.55.01.32-.18.53-.36.77-.2.28-.35.56-.4.91-.08.7.31,1.28.67,1.84.42.64.67,1.32.7,2.09.04.84,1.35.85,1.31,0s-.23-1.6-.62-2.32c-.18-.34-.44-.64-.62-.98-.22-.4-.14-.59.12-.94.47-.63.63-1.34.36-2.09s-.84-1.27-1.44-1.77c-.65-.53-1.58.39-.93.93h0Z"/>
          <circle class="cls-2" cx="62.52" cy="24.82" r="2.98"/>
        </g>
        <path class="cls-2" d="M55.82,45.59c0-5.81,4.71-10.52,10.52-10.52s10.52,4.71,10.52,10.52"/>
      </g>
    </g>
  </g>
</svg>