<?xml version="1.0" encoding="UTF-8"?>
<svg id="Layer_2" data-name="Layer 2" xmlns="http://www.w3.org/2000/svg" viewBox="0 0 83.11 26.83">
  <defs>
    <style>
      .cls-1 {
        fill: #010101;
      }
    </style>
  </defs>
  <g id="Capa_1" data-name="Capa 1">
    <g>
      <path class="cls-1" d="M17.82,13.8l-1.89-1.89v5.35h1.89v-3.46ZM10.26,8.1h4.6l-1.88-1.88h0s-2.42,0-2.42,0c1.71-.14,2.98-1.65,2.84-3.36C13.26,1.23,11.89-.02,10.26,0v6.22h0L5.08,1.07c-.57.3-1.11.65-1.61,1.06l4.89,4.87v10.71l3.78,3.78v-2.67l-1.89-1.89v-8.83Z"/>
      <path class="cls-1" d="M12.15,8.11v9.13s1.88,0,1.88,0v-7.23s-1.88-1.9-1.88-1.9ZM18.63,11.91l-1.89-1.89h-2.71l1.89,1.89h2.71ZM6.48,15.93V7.8L2.14,3.46c-.41.5-.77,1.04-1.06,1.61l3.52,3.52v2.67L.32,6.99c-.2.75-.31,1.54-.32,2.35l6.48,6.59ZM.03,12.05v2.67l12.12,12.11v-2.67L.03,12.05ZM21.6,14.87h-1.89v2.39h-1.89c-.05,1.72,1.31,3.15,3.03,3.2,1.72.05,3.15-1.31,3.2-3.03,0-.06,0-.11,0-.17l-2.44-2.39h0ZM36.99,17.3l-1.42,2.69h-8.83l5.74-11.03h-5.08l1.42-2.7h8.83l-5.75,11.04h5.08s0,0,0,0ZM42.12,11.76h4.53v2.7h-4.53v2.84h4.53v2.7h-7.86V6.26h7.86v2.7h-4.53v2.8ZM52.98,6.26c1.75,0,2.76.19,3.5.66.95.58,1.52,1.75,1.52,3.07,0,.97-.31,1.77-.93,2.39-.39.41-.7.6-1.44.8.84.18,1.21.37,1.65.78.62.58.93,1.38.93,2.39,0,1.27-.52,2.41-1.4,3-.68.45-1.5.64-2.9.64h-5.62V6.26h4.69ZM51.62,11.95h.82c1.52,0,2.16-.47,2.16-1.61s-.64-1.58-2.2-1.58h-.78v3.19h0ZM51.62,17.61h1.21c1.4,0,2-.47,2-1.58,0-.66-.25-1.13-.74-1.4-.37-.21-.7-.25-1.71-.25h-.76v3.23h0ZM62.84,19.99h-3.34V6.26h4.45c1.81,0,3.13.33,4.03,1.03.95.74,1.48,1.98,1.48,3.48,0,2.1-.88,3.48-2.66,4.18l3.03,5.04h-3.99l-3-5.31v5.31s0,0,0,0ZM63.91,12.81c1.36,0,2.18-.7,2.18-1.89,0-1.13-.8-1.91-1.98-1.91h-1.28v3.81h1.07ZM79.5,19.99h3.62l-4.5-13.73h-4.24l-4.53,13.73h3.52l.85-2.7h4.45l.84,2.7ZM75.05,14.59l1.38-4.4,1.38,4.4h-2.76Z"/>
    </g>
  </g>
</svg>